<svg width="94" height="40" viewBox="0 0 94 40" fill="none" xmlns="http://www.w3.org/2000/svg">
<rect width="94" height="40" rx="20" fill="white"/>
<circle cx="74" cy="20" r="12" fill="#F4F4F4"/>
<mask id="mask0_205_221" style="mask-type:luminance" maskUnits="userSpaceOnUse" x="63" y="9" width="22" height="22">
<path d="M84.3898 19.8948C84.4479 25.633 79.8433 30.3317 74.1052 30.3898C68.3671 30.4479 63.6683 25.8433 63.6102 20.1052C63.5521 14.3671 68.1567 9.66831 73.8948 9.61022C79.6329 9.55214 84.3317 14.1567 84.3898 19.8948Z" fill="white" stroke="white"/>
</mask>
<g mask="url(#mask0_205_221)">
<path d="M87.5269 8.8226H61.178V16.3806H87.5269V8.8226Z" fill="#DC0031"/>
<path d="M87.5268 16.3301H61.1779V23.8881H87.5268V16.3301Z" fill="white"/>
<path d="M87.5268 23.8376H61.1779V31.3956H87.5268V23.8376Z" fill="black"/>
</g>
<path d="M74.0259 20.0766L76.2285 22.1212L76.0719 18.4081C76.0489 17.8452 75.56 17.9743 75.2042 18.1774C74.8444 18.4081 74.4335 18.4081 73.9997 18.2561C73.5659 18.4081 73.1556 18.4081 72.7958 18.1774C72.4407 17.9743 71.9518 17.8452 71.9288 18.4081L71.7722 22.1212L74.0266 20.0766H74.0259Z" fill="white"/>
<path d="M76.2285 22.1416C76.2232 22.1416 76.2186 22.1396 76.2147 22.1363L74.0259 20.1041L71.7853 22.1363C71.7794 22.1416 71.7702 22.1429 71.763 22.1396C71.7558 22.1363 71.7512 22.1285 71.7512 22.1199L71.9078 18.4068C71.9223 18.0569 72.1143 17.9835 72.2729 17.9835C72.4688 17.9835 72.691 18.0936 72.8063 18.1591C72.9944 18.2797 73.2054 18.3406 73.4335 18.3406C73.6071 18.3406 73.7959 18.3052 73.9938 18.2358C73.9984 18.2345 74.0029 18.2345 74.0075 18.2358C74.2054 18.3052 74.3942 18.3406 74.5678 18.3406C74.7959 18.3406 75.0069 18.2797 75.1943 18.1598C75.3103 18.0936 75.5325 17.9835 75.7284 17.9835C75.887 17.9835 76.079 18.0569 76.0935 18.4068L76.2501 22.1199C76.2501 22.1285 76.2455 22.1357 76.2383 22.1396C76.2357 22.1409 76.2324 22.1416 76.2298 22.1416H76.2285ZM72.2729 18.0241C72.0684 18.0241 71.9596 18.1532 71.9491 18.4081L71.7945 22.0728L74.0128 20.0609C74.0206 20.0537 74.0324 20.0537 74.0403 20.0609L76.2062 22.0714L76.0515 18.4075C76.041 18.1526 75.9322 18.0235 75.7278 18.0235C75.5895 18.0235 75.4073 18.0837 75.2147 18.1938C75.0213 18.3177 74.8031 18.3806 74.5672 18.3806C74.3909 18.3806 74.2002 18.3452 74.0003 18.2758C73.8004 18.3452 73.6097 18.3806 73.4335 18.3806C73.1975 18.3806 72.9793 18.3177 72.7853 18.1932C72.594 18.0837 72.4118 18.0235 72.2735 18.0235L72.2729 18.0241Z" fill="#C09300"/>
<path d="M72.1818 18.2784L72.0298 21.8906L71.7716 22.1213L71.9282 18.4081C72.0023 18.3577 72.1314 18.279 72.1818 18.279V18.2784Z" fill="#C09300"/>
<path d="M72.4919 18.5373L72.3628 21.559L72.1046 21.8231L72.2612 18.3341C72.3117 18.3846 72.4644 18.5091 72.4919 18.5373Z" fill="#C09300"/>
<path d="M72.7729 18.7673L72.6714 21.287L72.4636 21.4902L72.5927 18.6152C72.6432 18.6657 72.7448 18.7397 72.7723 18.7673H72.7729Z" fill="#C09300"/>
<path d="M73.0777 18.897L72.9761 21.0446L72.7729 21.2091L72.8745 18.8184C72.925 18.8413 73.0266 18.897 73.0777 18.897Z" fill="#C09300"/>
<path d="M73.3588 18.897L73.2848 20.6867L73.077 20.8899L73.1557 18.92C73.2061 18.92 73.3352 18.92 73.3588 18.897Z" fill="#C09300"/>
<path d="M75.8184 18.2784L75.9704 21.8906L76.2286 22.1213L76.072 18.4082C75.9979 18.3577 75.8688 18.2791 75.8184 18.2791V18.2784Z" fill="#C09300"/>
<path d="M75.509 18.5373L75.6381 21.559L75.8963 21.8231L75.7397 18.3341C75.6892 18.3846 75.5366 18.5091 75.509 18.5373Z" fill="#C09300"/>
<path d="M75.2272 18.7673L75.3287 21.287L75.5365 21.4902L75.4074 18.6152C75.3569 18.6657 75.2554 18.7397 75.2278 18.7673H75.2272Z" fill="#C09300"/>
<path d="M74.9225 18.897L75.0241 21.0446L75.2272 21.2091L75.1256 18.8184C75.0752 18.8413 74.9736 18.897 74.9225 18.897Z" fill="#C09300"/>
<path d="M74.6414 18.897L74.7154 20.6867L74.9232 20.8899L74.8445 18.92C74.794 18.92 74.6649 18.92 74.6414 18.897Z" fill="#C09300"/>
<path d="M74.1018 20.4836L74.4111 21.8906L74.3095 21.9922L74.2034 21.9135L74.0277 20.6586L74.1018 21.9135L74.0002 22.0426L73.8986 21.9135L73.9727 20.6586L73.7977 21.9135L73.6915 21.9922L73.59 21.8906L73.8993 20.4836H74.1024H74.1018Z" fill="#C09300"/>
<path d="M74.0003 22.0708L73.881 21.9194L73.9302 21.0884L73.8135 21.9233L73.6897 22.0151L73.571 21.8965L73.8849 20.4665H74.1156L74.4295 21.8965L74.3109 22.0151L74.1871 21.9233L74.0704 21.0884L74.1196 21.9194L74.0003 22.0708ZM73.9164 21.9083L74.0003 22.0151L74.0842 21.9083L74.0108 20.6599L74.0449 20.6566L74.2192 21.9043L74.3076 21.9699L74.3922 21.8853L74.0881 20.5013H73.9131L73.6091 21.8853L73.6936 21.9699L73.7821 21.9043L73.9564 20.6566L73.9905 20.6599L73.9171 21.9083H73.9164Z" fill="#C09300"/>
<path d="M73.3083 19.8655L72.6949 22.0426L73.539 22.1717L73.8988 20.534L73.3083 19.8649V19.8655Z" fill="white"/>
<path d="M73.539 22.1914C73.539 22.1914 73.537 22.1914 73.5363 22.1914L72.6923 22.0623C72.687 22.0616 72.6818 22.0583 72.6792 22.0538C72.6759 22.0492 72.6752 22.0433 72.6765 22.038L73.2899 19.861C73.2919 19.8545 73.2971 19.8492 73.3043 19.8472C73.3109 19.8459 73.3181 19.8479 73.3227 19.8531L73.9131 20.5222C73.9171 20.5268 73.919 20.5327 73.9177 20.5393L73.558 22.177C73.556 22.1861 73.5481 22.192 73.5396 22.192L73.539 22.1914ZM72.7191 22.0275L73.5245 22.1507L73.8784 20.5399L73.3175 19.9049L72.7191 22.0275Z" fill="#C09300"/>
<path d="M73.1792 20.8086C73.1792 20.8086 73.1766 20.8086 73.1753 20.8086C73.1687 20.8073 73.1635 20.8027 73.1608 20.7961L73.0868 20.6166L73.1248 20.6008L73.1871 20.7529L73.5645 20.3924L73.5927 20.4219L73.1936 20.8027C73.1897 20.8066 73.1844 20.8086 73.1792 20.8086Z" fill="#C09300"/>
<path d="M73.465 20.9606C73.465 20.9606 73.4611 20.9606 73.4598 20.96C73.4519 20.958 73.446 20.9508 73.4447 20.9423L73.3615 20.1591L73.4021 20.1546L73.4801 20.8866L73.7029 20.5949L73.7356 20.6198L73.482 20.9521C73.4781 20.9573 73.4722 20.96 73.4656 20.96L73.465 20.9606Z" fill="#C09300"/>
<path d="M73.6369 20.7315L73.5979 20.7428L73.7365 21.2211L73.7755 21.2098L73.6369 20.7315Z" fill="#C09300"/>
<path d="M73.5973 21.8951L73.5174 21.517L73.3529 21.7726C73.3483 21.7791 73.3411 21.7831 73.3332 21.7817C73.3254 21.7804 73.3188 21.7752 73.3162 21.768L73.2284 21.5013L73.0672 21.7667C73.0632 21.7739 73.0547 21.7772 73.0469 21.7765C73.039 21.7752 73.0324 21.7693 73.0298 21.7614L72.8961 21.2712C72.8942 21.264 72.8961 21.2568 72.9014 21.2516L73.1642 20.9822C73.1694 20.977 73.1766 20.975 73.1838 20.977C73.191 20.979 73.1963 20.9842 73.1982 20.9914L73.269 21.2444L73.4322 21.0235C73.4368 21.017 73.4453 21.0137 73.4532 21.0157C73.461 21.0176 73.4669 21.0242 73.4689 21.032L73.5384 21.4161L73.7926 21.0301L73.8267 21.0524L73.5495 21.4737L73.6373 21.8879L73.5973 21.8964V21.8951ZM73.2343 21.4318C73.2343 21.4318 73.2356 21.4318 73.2369 21.4318C73.2448 21.4325 73.2513 21.4384 73.2539 21.4456L73.3418 21.7142L73.5056 21.4593L73.4374 21.0845L73.2775 21.3007C73.273 21.3073 73.2651 21.3099 73.2572 21.3086C73.2494 21.3073 73.2435 21.3014 73.2415 21.2942L73.1688 21.0347L72.9387 21.2706L73.0567 21.7038L73.2166 21.441C73.2205 21.4351 73.2271 21.4311 73.2343 21.4311V21.4318Z" fill="#C09300"/>
<path d="M73.3902 22.1782L73.303 21.9122L73.1739 22.1317C73.17 22.1389 73.1621 22.1422 73.1536 22.1415C73.1457 22.1409 73.1385 22.135 73.1365 22.1271L73.0376 21.7988L72.8915 22.0039L72.858 21.9803L73.0284 21.7411C73.033 21.7346 73.0409 21.7313 73.0481 21.7326C73.0559 21.7339 73.0618 21.7392 73.0645 21.747L73.1621 22.0708L73.2906 21.8525C73.2945 21.8453 73.3023 21.842 73.3102 21.8427C73.3181 21.8434 73.3246 21.8492 73.3273 21.8565L73.4288 22.1658L73.3902 22.1782Z" fill="#C09300"/>
<path d="M74.6923 19.8657L75.3057 22.0427L74.4616 22.1718L74.1018 20.5341L74.6923 19.865V19.8657Z" fill="white"/>
<path d="M74.461 22.1914C74.4525 22.1914 74.4446 22.1855 74.4427 22.1763L74.0829 20.5386C74.0816 20.5327 74.0829 20.5262 74.0875 20.5216L74.6779 19.8525C74.6825 19.8473 74.6897 19.8453 74.6963 19.8466C74.7028 19.8479 74.7087 19.8532 74.7107 19.8604L75.3241 22.0374C75.3254 22.0426 75.3241 22.0485 75.3215 22.0531C75.3182 22.0577 75.3136 22.061 75.3084 22.0616L74.4643 22.1907C74.4643 22.1907 74.4623 22.1907 74.4617 22.1907L74.461 22.1914ZM74.1222 20.5399L74.4761 22.1507L75.2815 22.0275L74.6832 19.9049L74.1222 20.5399Z" fill="#C09300"/>
<path d="M74.8215 20.8087C74.8162 20.8087 74.811 20.8067 74.8071 20.8028L74.408 20.422L74.4361 20.3926L74.8136 20.753L74.8759 20.601L74.9139 20.6167L74.8398 20.7962C74.8372 20.8028 74.832 20.8074 74.8254 20.8087C74.8241 20.8087 74.8228 20.8087 74.8215 20.8087Z" fill="#C09300"/>
<path d="M74.5351 20.9607C74.5286 20.9607 74.5227 20.9581 74.5188 20.9529L74.2651 20.6206L74.2979 20.5957L74.5207 20.8873L74.5987 20.1553L74.6393 20.1599L74.5561 20.943C74.5554 20.9516 74.5496 20.9581 74.541 20.9607C74.5391 20.9607 74.5371 20.9614 74.5358 20.9614L74.5351 20.9607Z" fill="#C09300"/>
<path d="M74.363 20.7307L74.2245 21.2091L74.2635 21.2204L74.4021 20.742L74.363 20.7307Z" fill="#C09300"/>
<path d="M74.4027 21.8952L74.3627 21.8867L74.4505 21.4725L74.1733 21.0512L74.2074 21.0289L74.4617 21.4149L74.5312 21.0308C74.5325 21.023 74.5384 21.0164 74.5469 21.0145C74.5547 21.0125 74.5633 21.0158 74.5679 21.0223L74.731 21.2432L74.8018 20.9902C74.8038 20.983 74.809 20.9778 74.8162 20.9758C74.8234 20.9738 74.8306 20.9758 74.8359 20.981L75.0987 21.2504C75.1039 21.2556 75.1059 21.2628 75.1039 21.27L74.9702 21.7602C74.9683 21.7681 74.9617 21.774 74.9532 21.7753C74.9447 21.7766 74.9368 21.7727 74.9329 21.7655L74.7717 21.5001L74.6838 21.7668C74.6812 21.774 74.6747 21.7799 74.6668 21.7805C74.6589 21.7819 74.6511 21.7779 74.6471 21.7714L74.4827 21.5158L74.4027 21.8939V21.8952ZM74.4945 21.4601L74.6583 21.715L74.7461 21.4463C74.7487 21.4385 74.7553 21.4332 74.7631 21.4326C74.771 21.4319 74.7789 21.4352 74.7828 21.4424L74.9427 21.7052L75.0607 21.272L74.8306 21.0361L74.7579 21.2949C74.7559 21.3022 74.7494 21.3081 74.7422 21.3094C74.7343 21.3107 74.7264 21.3074 74.7219 21.3015L74.562 21.0852L74.4938 21.4601H74.4945Z" fill="#C09300"/>
<path d="M74.6098 22.1783L74.5712 22.1659L74.6727 21.8566C74.6754 21.8487 74.6819 21.8435 74.6898 21.8428C74.6983 21.8428 74.7055 21.8461 74.7094 21.8526L74.8379 22.0709L74.9355 21.7471C74.9375 21.7399 74.9441 21.734 74.9519 21.7327C74.9598 21.7314 74.9676 21.7347 74.9716 21.7412L75.142 21.9804L75.1085 22.004L74.9624 21.7989L74.8634 22.1272C74.8608 22.1351 74.8543 22.1403 74.8464 22.1416C74.8385 22.1423 74.8307 22.139 74.8261 22.1318L74.697 21.9123L74.6098 22.1783Z" fill="#C09300"/>
<path d="M74.0003 23.0165C74.6419 23.0165 75.2553 22.966 75.6151 22.8645C75.7671 22.8369 75.7671 22.7583 75.7671 22.6567C75.9192 22.6062 75.8412 22.426 75.9473 22.426C75.8412 22.4536 75.8182 22.2458 75.6891 22.274C75.6891 22.0938 75.5089 22.0708 75.3569 22.122C75.0521 22.2235 74.5128 22.2465 74.0003 22.2465C73.4885 22.2235 72.9531 22.2235 72.6438 22.122C72.4918 22.0715 72.3115 22.0944 72.3115 22.274C72.1824 22.2465 72.1595 22.4542 72.0533 22.426C72.1595 22.426 72.0809 22.6056 72.2336 22.6567C72.2336 22.7583 72.2336 22.8369 72.3902 22.8645C72.7454 22.966 73.3588 23.0165 74.0003 23.0165Z" fill="white"/>
<path d="M74.0003 23.0544C73.3135 23.0544 72.7237 22.9987 72.3816 22.9011C72.2106 22.8703 72.1962 22.7772 72.1955 22.6822C72.1162 22.6435 72.0985 22.5708 72.0867 22.5203C72.0795 22.4908 72.0743 22.4718 72.0658 22.4659C72.0586 22.4659 72.0514 22.464 72.0442 22.4627C72.0258 22.4581 72.0134 22.4397 72.016 22.4207C72.0186 22.4017 72.035 22.3873 72.054 22.3873C72.0618 22.3873 72.0697 22.388 72.0769 22.3893C72.0972 22.386 72.1182 22.3591 72.1398 22.3316C72.1719 22.2903 72.2119 22.2392 72.2768 22.2333C72.2932 22.1239 72.3764 22.0596 72.5081 22.0596C72.5553 22.0596 72.6064 22.0682 72.6569 22.0852C72.9053 22.1671 73.3044 22.1815 73.727 22.1973C73.8188 22.2005 73.9112 22.2038 74.0029 22.2084C74.6583 22.2084 75.098 22.1684 75.3457 22.0859C75.3955 22.0695 75.4473 22.0603 75.4945 22.0603C75.6255 22.0603 75.7094 22.1245 75.7258 22.234C75.7907 22.2399 75.8307 22.291 75.8628 22.3323C75.8844 22.3604 75.9054 22.3873 75.9257 22.3906C75.9329 22.3893 75.9408 22.3886 75.9486 22.3886C75.9676 22.3886 75.984 22.403 75.9866 22.422C75.9893 22.441 75.9768 22.4587 75.9585 22.464C75.9512 22.4659 75.944 22.4673 75.9368 22.4673C75.9283 22.4725 75.9231 22.4922 75.9159 22.5216C75.9041 22.5715 75.8864 22.6449 75.8071 22.6835C75.8058 22.7785 75.792 22.8716 75.6255 22.9024C75.2789 23 74.6878 23.0557 74.0023 23.0557L74.0003 23.0544ZM72.1411 22.4417C72.151 22.4607 72.1562 22.483 72.1608 22.502C72.1733 22.5544 72.1844 22.599 72.2453 22.6193C72.2611 22.6245 72.2716 22.639 72.2716 22.6553C72.2716 22.7569 72.2716 22.8034 72.3967 22.8251C72.398 22.8251 72.3993 22.8251 72.4007 22.8257C72.7309 22.9201 73.3293 22.9764 74.0003 22.9764C74.6714 22.9764 75.2651 22.9214 75.6046 22.8257C75.6059 22.8257 75.6072 22.8257 75.6079 22.8251C75.7284 22.8034 75.7284 22.7569 75.7284 22.6553C75.7284 22.639 75.7389 22.6245 75.7546 22.6193C75.8162 22.599 75.8267 22.5538 75.8392 22.502C75.8438 22.4823 75.849 22.4607 75.8588 22.4417C75.8359 22.4247 75.8176 22.4004 75.8005 22.3788C75.7619 22.329 75.7376 22.3021 75.6963 22.3113C75.6852 22.3139 75.6734 22.3113 75.6642 22.3034C75.655 22.2962 75.6498 22.2851 75.6498 22.2739C75.6498 22.1599 75.5639 22.1363 75.4925 22.1363C75.4532 22.1363 75.4106 22.1435 75.368 22.1579C75.1124 22.2431 74.6648 22.2844 73.9997 22.2844C73.9066 22.2805 73.8142 22.2772 73.7225 22.2733C73.2945 22.2575 72.8902 22.2425 72.6313 22.1579C72.5887 22.1435 72.5461 22.1363 72.5068 22.1363C72.4347 22.1363 72.3495 22.1599 72.3495 22.2739C72.3495 22.2857 72.3443 22.2962 72.3351 22.3034C72.3259 22.3106 72.3141 22.3133 72.303 22.3113C72.2617 22.3028 72.2375 22.3296 72.1988 22.3794C72.1818 22.4017 72.1628 22.4253 72.1405 22.4424L72.1411 22.4417Z" fill="#C09300"/>
<path d="M73.1281 22.0426C73.3359 22.0702 73.5665 22.0931 73.7461 22.0702C73.8477 22.0702 73.9211 22.2451 73.7186 22.2733C73.539 22.2963 73.2572 22.2733 73.1052 22.2458C72.9761 22.2229 72.6943 22.1717 72.5147 22.1213C72.3345 22.0426 72.4643 21.8906 72.5652 21.9135C72.7218 21.964 72.925 22.0151 73.1281 22.0426Z" fill="white"/>
<path d="M73.5443 22.3034C73.3804 22.3034 73.2042 22.2844 73.1013 22.2661C72.9899 22.2464 72.6937 22.1933 72.5089 22.1409C72.3988 22.0931 72.4007 22.0249 72.4066 21.998C72.4191 21.9391 72.4807 21.8912 72.5442 21.8912C72.5528 21.8912 72.5619 21.8919 72.5698 21.8938C72.6753 21.9279 72.8863 21.9895 73.1295 22.0223C73.1308 22.0223 73.1321 22.0223 73.1334 22.0223C73.2618 22.0393 73.4283 22.059 73.5803 22.059C73.6406 22.059 73.6957 22.0557 73.7435 22.0498C73.8071 22.0498 73.8628 22.1022 73.8667 22.1645C73.8687 22.19 73.8628 22.2739 73.7206 22.2936C73.6708 22.3001 73.6111 22.3034 73.5436 22.3034H73.5443ZM72.5442 21.9318C72.5003 21.9318 72.4551 21.9666 72.4466 22.0066C72.4387 22.0439 72.4656 22.078 72.5226 22.1029C72.7035 22.1533 72.9977 22.2064 73.1085 22.2261C73.2094 22.2444 73.3831 22.2628 73.5443 22.2628C73.6105 22.2628 73.6681 22.2595 73.716 22.2536C73.7894 22.2438 73.8293 22.2123 73.8267 22.1678C73.8241 22.1278 73.7854 22.0911 73.7461 22.0911C73.6989 22.097 73.6426 22.1003 73.5803 22.1003C73.4244 22.1003 73.2553 22.0806 73.1249 22.0629C72.8778 22.0295 72.6635 21.9672 72.5587 21.9332C72.5547 21.9325 72.5495 21.9318 72.5436 21.9318H72.5442Z" fill="#C09300"/>
<path d="M74.872 22.0426C74.6643 22.0701 74.4336 22.093 74.2586 22.0701C74.1525 22.0701 74.0784 22.2451 74.2816 22.2732C74.4618 22.2962 74.7429 22.2732 74.8949 22.2457C75.024 22.2228 75.3058 22.1717 75.4854 22.1212C75.6656 22.0426 75.5365 21.8905 75.4349 21.9135C75.2783 21.9639 75.0752 22.015 74.872 22.0426Z" fill="white"/>
<path d="M74.4564 22.3034C74.3882 22.3034 74.3293 22.3001 74.2795 22.2936C74.1372 22.2739 74.132 22.1907 74.1333 22.1658C74.1379 22.1029 74.1949 22.0498 74.2585 22.0498C74.3076 22.0564 74.362 22.059 74.421 22.059C74.573 22.059 74.7402 22.0393 74.8693 22.0223C75.113 21.9889 75.3241 21.9279 75.4283 21.8938C75.4381 21.8912 75.4473 21.8906 75.4558 21.8906C75.5193 21.8906 75.5809 21.9384 75.5934 21.9974C75.5993 22.0242 75.6006 22.0931 75.4931 22.1396C75.3051 22.1927 75.0095 22.2457 74.8981 22.2654C74.7959 22.2838 74.6189 22.3028 74.4557 22.3028L74.4564 22.3034ZM74.2559 22.0911C74.212 22.0911 74.1766 22.1324 74.1739 22.1691C74.1713 22.213 74.2113 22.2438 74.284 22.2536C74.3319 22.2595 74.3896 22.2628 74.4557 22.2628C74.617 22.2628 74.7906 22.2444 74.8909 22.2261C75.0016 22.2064 75.2965 22.154 75.4794 22.1022C75.5338 22.0786 75.5606 22.0439 75.5528 22.0072C75.5436 21.9626 75.4846 21.9246 75.4387 21.9345C75.3352 21.9679 75.1216 22.0301 74.8745 22.0642C74.7441 22.0819 74.575 22.1016 74.421 22.1016C74.3594 22.1016 74.3044 22.0983 74.2552 22.0917L74.2559 22.0911Z" fill="#C09300"/>
<path d="M72.4917 21.941C72.3351 21.9135 72.2611 22.0931 72.3122 22.1946C72.3351 22.1442 72.4413 22.1442 72.4642 22.0931C72.4917 22.0144 72.4413 22.0144 72.4917 21.941Z" fill="white"/>
<path d="M72.3115 22.2156C72.3037 22.2156 72.2964 22.211 72.2932 22.2045C72.2643 22.1468 72.2702 22.0668 72.3082 22.0052C72.3489 21.9397 72.4183 21.9076 72.4944 21.9214C72.5009 21.9227 72.5068 21.9273 72.5094 21.9338C72.5121 21.9404 72.5114 21.9476 72.5075 21.9535C72.4839 21.9875 72.4858 22 72.4891 22.019C72.4924 22.0374 72.4963 22.0609 72.4819 22.1009C72.4662 22.1357 72.4295 22.1501 72.3941 22.1638C72.3659 22.175 72.3371 22.1861 72.3292 22.2038C72.3259 22.211 72.3187 22.2156 72.3109 22.2156H72.3115ZM72.4577 21.9594C72.3941 21.96 72.3587 22.002 72.3436 22.0269C72.3194 22.0655 72.3109 22.1147 72.3194 22.1553C72.3364 22.1422 72.3587 22.1337 72.3803 22.1252C72.4085 22.114 72.4373 22.1029 72.4452 22.0852C72.455 22.057 72.4524 22.0419 72.4498 22.0256C72.4465 22.0046 72.4446 21.9862 72.4577 21.9594Z" fill="#C09300"/>
<path d="M73.1052 22.4129C73.1052 22.3113 73.2068 22.3237 73.2068 22.2222C73.2068 22.1717 73.1793 22.0931 73.1281 22.0931C73.077 22.0931 73.0266 22.1435 73.0266 22.1946C73.0036 22.2962 73.1052 22.3113 73.1052 22.4129Z" fill="white"/>
<path d="M73.1051 22.4338C73.094 22.4338 73.0848 22.4247 73.0848 22.4135C73.0848 22.3729 73.0658 22.3486 73.0455 22.3224C73.0206 22.291 72.9931 22.2549 73.0062 22.1927C73.0075 22.1317 73.0671 22.0734 73.1281 22.0734C73.1923 22.0734 73.227 22.1606 73.227 22.2228C73.227 22.2851 73.1949 22.3106 73.1694 22.3336C73.1451 22.3552 73.1255 22.3722 73.1255 22.4135C73.1255 22.4247 73.1163 22.4338 73.1051 22.4338ZM73.1281 22.114C73.0888 22.114 73.0468 22.156 73.0468 22.1953C73.0468 22.1966 73.0468 22.1986 73.0468 22.1999C73.037 22.2444 73.0547 22.268 73.0783 22.2975C73.0881 22.31 73.0986 22.3237 73.1071 22.3395C73.1176 22.3244 73.1307 22.3132 73.1425 22.3028C73.1667 22.2811 73.1864 22.2641 73.1864 22.2228C73.1864 22.1789 73.1622 22.114 73.1287 22.114H73.1281Z" fill="#C09300"/>
<path d="M73.8352 22.1212C73.9873 22.1212 73.9722 22.3244 73.8981 22.426C73.8981 22.3519 73.769 22.3244 73.769 22.2739C73.769 22.1953 73.8857 22.1953 73.8352 22.1212Z" fill="white"/>
<path d="M73.8987 22.4463C73.8987 22.4463 73.8948 22.4463 73.8922 22.445C73.8837 22.4423 73.8778 22.4345 73.8778 22.4253C73.8778 22.3958 73.845 22.3729 73.8129 22.3513C73.7795 22.3283 73.7487 22.3067 73.7487 22.2733C73.7487 22.228 73.7795 22.2031 73.8017 22.1848C73.8299 22.1619 73.8352 22.1566 73.8181 22.1324C73.8135 22.1258 73.8135 22.118 73.8168 22.1114C73.8201 22.1048 73.8273 22.1003 73.8352 22.1003C73.9046 22.1003 73.938 22.1376 73.9544 22.1684C73.9944 22.2464 73.9649 22.3683 73.9151 22.4371C73.9112 22.4423 73.9053 22.4456 73.8987 22.4456V22.4463ZM73.8679 22.1461C73.8732 22.1802 73.847 22.2018 73.828 22.2169C73.8044 22.2359 73.7899 22.2497 73.7899 22.2733C73.7899 22.2857 73.8148 22.3028 73.8365 22.3178C73.8601 22.3342 73.8869 22.3526 73.9033 22.3775C73.9321 22.3178 73.9433 22.2385 73.9177 22.1881C73.9066 22.1671 73.8902 22.1527 73.8679 22.1461Z" fill="#C09300"/>
<path d="M75.509 21.941C75.6657 21.9135 75.7397 22.0931 75.6892 22.1946C75.6663 22.1442 75.5601 22.1442 75.5372 22.0931C75.5097 22.0144 75.5601 22.0144 75.5097 21.941H75.509Z" fill="white"/>
<path d="M75.6885 22.2156C75.6807 22.2156 75.6735 22.211 75.6702 22.2038C75.6623 22.1861 75.6335 22.1743 75.6053 22.1638C75.5699 22.1501 75.5332 22.1357 75.5182 22.1022C75.5031 22.0609 75.507 22.0374 75.5103 22.019C75.5136 22 75.5155 21.9875 75.4919 21.9535C75.488 21.9476 75.4874 21.9404 75.49 21.9338C75.4926 21.9273 75.4985 21.9227 75.505 21.9214C75.5811 21.9076 75.6512 21.9397 75.6912 22.0052C75.7292 22.0668 75.7351 22.1468 75.7062 22.2045C75.703 22.2117 75.6958 22.2156 75.6879 22.2156H75.6885ZM75.5424 21.9594C75.5549 21.9862 75.5535 22.0046 75.5503 22.0256C75.5476 22.0419 75.545 22.057 75.5555 22.0872C75.5627 22.1035 75.5916 22.1147 75.6197 22.1258C75.6414 22.1343 75.663 22.1429 75.6807 22.156C75.6892 22.1153 75.6807 22.0662 75.6564 22.0275C75.6407 22.0026 75.606 21.9607 75.5424 21.96V21.9594Z" fill="#C09300"/>
<path d="M74.8949 22.4129C74.8949 22.3113 74.7933 22.3237 74.7933 22.2222C74.7933 22.1717 74.8209 22.0931 74.872 22.0931C74.9231 22.0931 74.9736 22.1435 74.9736 22.1946C74.9965 22.2962 74.8949 22.3113 74.8949 22.4129Z" fill="white"/>
<path d="M74.8948 22.4338C74.8837 22.4338 74.8745 22.4247 74.8745 22.4135C74.8745 22.3722 74.8555 22.3552 74.8306 22.3336C74.8051 22.3113 74.7729 22.2831 74.7729 22.2228C74.7729 22.1625 74.807 22.0734 74.8719 22.0734C74.9329 22.0734 74.9925 22.1324 74.9938 22.1927C75.0069 22.2549 74.9794 22.291 74.9545 22.3224C74.9342 22.3486 74.9152 22.3729 74.9152 22.4135C74.9152 22.4247 74.906 22.4338 74.8948 22.4338ZM74.8719 22.114C74.8385 22.114 74.8136 22.1789 74.8136 22.2228C74.8136 22.2641 74.8332 22.2811 74.8575 22.3028C74.8693 22.3132 74.8824 22.3244 74.8929 22.3395C74.9014 22.3237 74.9119 22.31 74.9217 22.2975C74.9446 22.268 74.963 22.2444 74.9532 22.1999C74.9532 22.1986 74.9532 22.1966 74.9532 22.1953C74.9532 22.156 74.9112 22.114 74.8719 22.114Z" fill="#C09300"/>
<path d="M74.1647 22.1213C74.0126 22.1213 74.0277 22.3245 74.1011 22.4261C74.1011 22.352 74.2302 22.3245 74.2302 22.274C74.2302 22.1954 74.1136 22.1954 74.164 22.1213H74.1647Z" fill="white"/>
<path d="M74.1012 22.4463C74.0947 22.4463 74.0888 22.443 74.0848 22.4378C74.035 22.369 74.0055 22.2471 74.0455 22.1691C74.0612 22.1376 74.0947 22.1009 74.1648 22.1009C74.1726 22.1009 74.1792 22.1049 74.1831 22.1121C74.1864 22.1186 74.1864 22.1271 74.1818 22.133C74.1654 22.1573 74.1707 22.1625 74.1982 22.1855C74.2205 22.2038 74.2513 22.2287 74.2513 22.2739C74.2513 22.3074 74.2198 22.329 74.1871 22.3519C74.1549 22.3735 74.1222 22.3965 74.1222 22.426C74.1222 22.4351 74.1163 22.4424 74.1078 22.4456C74.1058 22.4463 74.1038 22.4469 74.1012 22.4469V22.4463ZM74.132 22.1461C74.1097 22.1527 74.0927 22.1665 74.0822 22.1881C74.0566 22.2385 74.0678 22.3178 74.0966 22.3775C74.113 22.3526 74.1405 22.3342 74.1635 22.3178C74.1851 22.3028 74.21 22.2857 74.21 22.2733C74.21 22.249 74.1956 22.2359 74.172 22.2169C74.153 22.2012 74.1268 22.1796 74.132 22.1461Z" fill="#C09300"/>
<path d="M72.5423 21.9921C72.5934 21.9921 72.6714 22.015 72.6943 22.0425L72.5416 21.9914L72.5423 21.9921Z" fill="white"/>
<path d="M72.6943 22.057C72.6943 22.057 72.691 22.057 72.6897 22.0564L72.5383 22.0059C72.5383 22.0059 72.535 22.0046 72.5337 22.0039C72.5278 22 72.5259 21.9921 72.5285 21.9856C72.5311 21.9797 72.537 21.9771 72.5429 21.9777C72.5953 21.9777 72.674 22.0013 72.7021 22.0308C72.7061 22.0334 72.7087 22.038 72.7087 22.0426C72.7087 22.0505 72.7021 22.057 72.6943 22.057Z" fill="#C09300"/>
<path d="M72.7958 22.0707C72.8233 22.0707 72.9249 22.0936 72.976 22.1211L72.7958 22.07V22.0707Z" fill="white"/>
<path d="M72.9754 22.1356C72.9754 22.1356 72.9728 22.1356 72.9715 22.1356L72.7932 22.0851C72.7899 22.0851 72.7867 22.0825 72.784 22.0799C72.7801 22.0753 72.7801 22.0681 72.7834 22.0629C72.7867 22.0583 72.7919 22.0557 72.7978 22.0563C72.8299 22.0576 72.9289 22.0806 72.98 22.1074C72.9859 22.1094 72.9905 22.1146 72.9905 22.1212C72.9905 22.1291 72.9839 22.1363 72.9761 22.1356H72.9754Z" fill="#C09300"/>
<path d="M73.7185 22.1716C73.668 22.1716 73.5665 22.1716 73.5389 22.1946L73.7185 22.1716Z" fill="white"/>
<path d="M73.5391 22.209C73.5332 22.209 73.5279 22.2057 73.526 22.2005C73.5233 22.1946 73.5253 22.188 73.5299 22.1834C73.5587 22.1592 73.6413 22.1572 73.7167 22.1572C73.7226 22.1566 73.7278 22.1592 73.7311 22.1638C73.7337 22.1684 73.7337 22.1736 73.7311 22.1782C73.7285 22.1828 73.7239 22.1854 73.7186 22.1854L73.541 22.2084C73.541 22.2084 73.5397 22.2084 73.5391 22.2084V22.209Z" fill="#C09300"/>
<path d="M73.4375 22.1717C73.41 22.1442 73.3084 22.1442 73.2579 22.1717H73.4375Z" fill="white"/>
<path d="M73.4374 22.1861H73.2579C73.2513 22.1861 73.2454 22.1815 73.2441 22.1756C73.2428 22.169 73.2454 22.1625 73.2513 22.1592C73.2769 22.1448 73.3168 22.1369 73.3568 22.1369C73.3765 22.1369 73.4256 22.1395 73.4486 22.1618C73.4525 22.1658 73.4538 22.1723 73.4518 22.1775C73.4499 22.1828 73.4446 22.1861 73.4387 22.1861H73.4374Z" fill="#C09300"/>
<path d="M75.4586 21.9921C75.4081 21.9921 75.334 22.0151 75.3065 22.0426L75.4586 21.9921Z" fill="white"/>
<path d="M75.3059 22.057C75.3013 22.057 75.2961 22.0543 75.2934 22.0504C75.2902 22.0445 75.2908 22.0373 75.2954 22.0327C75.3275 22.0006 75.4068 21.9777 75.4579 21.9777C75.4651 21.9777 75.471 21.9829 75.4723 21.9895C75.4736 21.9967 75.4691 22.0032 75.4625 22.0052L75.3105 22.0557C75.3105 22.0557 75.3072 22.0563 75.3059 22.0563V22.057Z" fill="#C09300"/>
<path d="M75.2044 22.0707C75.1769 22.0707 75.0753 22.0936 75.0242 22.1211L75.2044 22.07V22.0707Z" fill="white"/>
<path d="M75.0247 22.1356C75.0188 22.1356 75.0136 22.1323 75.0116 22.1264C75.009 22.1199 75.0116 22.112 75.0182 22.1087C75.0693 22.0812 75.1702 22.0576 75.203 22.0563C75.2089 22.0557 75.2148 22.0583 75.2174 22.0629C75.2207 22.0688 75.22 22.076 75.2154 22.0806C75.2135 22.0825 75.2102 22.0845 75.2076 22.0845L75.0293 22.135C75.0293 22.135 75.0267 22.135 75.0254 22.135L75.0247 22.1356Z" fill="#C09300"/>
<path d="M74.2817 22.1717C74.3322 22.1717 74.4338 22.1717 74.462 22.1947L74.2817 22.1717Z" fill="white"/>
<path d="M74.4618 22.209C74.4618 22.209 74.4605 22.209 74.4599 22.209L74.2816 22.1861C74.2777 22.1861 74.2737 22.1848 74.2711 22.1821C74.2665 22.1776 74.2659 22.171 74.2685 22.1658C74.2711 22.1605 74.277 22.1572 74.2829 22.1579C74.3563 22.1579 74.4363 22.1599 74.4671 22.1821C74.4723 22.1841 74.4756 22.1894 74.4756 22.1953C74.4756 22.2031 74.4697 22.209 74.4612 22.2097L74.4618 22.209Z" fill="#C09300"/>
<path d="M74.5629 22.1716C74.5904 22.1441 74.692 22.1441 74.7431 22.1716H74.5629Z" fill="white"/>
<path d="M74.743 22.1861H74.5628C74.5549 22.1861 74.5483 22.1795 74.5483 22.1716C74.5483 22.1671 74.5503 22.1625 74.5542 22.1598C74.5772 22.1389 74.625 22.1363 74.644 22.1363C74.684 22.1363 74.724 22.1448 74.7495 22.1585C74.7554 22.1618 74.758 22.1684 74.7567 22.1749C74.7554 22.1815 74.7495 22.1854 74.743 22.1854V22.1861Z" fill="#C09300"/>
<path d="M72.4996 22.3978C72.4826 22.3945 72.4734 22.3808 72.478 22.365C72.4832 22.3454 72.499 22.3342 72.514 22.3395C72.5232 22.3428 72.5409 22.3605 72.5409 22.3663C72.5409 22.3736 72.5317 22.3906 72.5278 22.3906C72.5258 22.3906 72.5232 22.3919 72.5219 22.3939C72.5186 22.3978 72.5088 22.3998 72.5003 22.3978H72.4996Z" fill="#C09300"/>
<path d="M74.2658 22.5236C74.2592 22.521 74.2494 22.5072 74.2494 22.5C74.2494 22.4876 74.2677 22.4673 74.2795 22.4673C74.2854 22.4673 74.3005 22.4751 74.3064 22.481C74.3169 22.4922 74.3143 22.5099 74.3012 22.5197C74.2946 22.5249 74.2756 22.5262 74.2658 22.523V22.5236Z" fill="#C09300"/>
<path d="M74.2776 22.6036C74.2638 22.599 74.2593 22.5924 74.2579 22.5774C74.2566 22.5616 74.2579 22.559 74.275 22.5505L74.2868 22.5439L74.2979 22.5492C74.3136 22.5557 74.3202 22.5636 74.3209 22.5741C74.3209 22.5852 74.313 22.597 74.3005 22.6023C74.2894 22.6075 74.2887 22.6075 74.2783 22.6036H74.2776Z" fill="#C09300"/>
<path d="M72.6411 22.253C72.63 22.253 72.6149 22.2628 72.6058 22.268C72.5848 22.2726 72.5605 22.2857 72.5402 22.272C72.5206 22.2661 72.4937 22.2707 72.4911 22.2949C72.4963 22.3159 72.5258 22.3277 72.5435 22.3139C72.5566 22.2969 72.5927 22.2864 72.5966 22.3159C72.5822 22.3382 72.5835 22.3676 72.5717 22.3912C72.5697 22.4057 72.5638 22.4201 72.5553 22.4325C72.5402 22.4338 72.5245 22.4325 72.512 22.4417C72.4917 22.443 72.4714 22.4528 72.4596 22.4699C72.4465 22.4882 72.4341 22.5072 72.4308 22.5302C72.4341 22.5538 72.4609 22.5603 72.4812 22.5616C72.5029 22.5675 72.5238 22.5754 72.5455 22.5819C72.5802 22.5898 72.613 22.6023 72.6477 22.6101C72.6988 22.6252 72.7519 22.6324 72.8037 22.6462C72.8089 22.6481 72.8142 22.6494 72.8201 22.6501C72.841 22.6547 72.8522 22.6311 72.8541 22.614C72.8646 22.5767 72.8725 22.5387 72.883 22.5013C72.8902 22.4863 72.8987 22.4528 72.8699 22.46C72.8535 22.4699 72.8391 22.4849 72.8187 22.4863C72.7906 22.4876 72.8069 22.5164 72.8174 22.5282C72.8201 22.5472 72.8142 22.5695 72.801 22.5846C72.784 22.595 72.7637 22.5826 72.746 22.5787C72.7277 22.5787 72.6903 22.5695 72.708 22.5446C72.7139 22.5262 72.7145 22.5059 72.7218 22.4876C72.7309 22.4679 72.7322 22.4463 72.7368 22.4253C72.725 22.4004 72.7054 22.4338 72.6896 22.4365C72.6785 22.4443 72.6379 22.4469 72.6595 22.4666C72.6778 22.4804 72.6641 22.5053 72.6608 22.523C72.6595 22.5479 72.6339 22.5538 72.6136 22.5479C72.5933 22.5472 72.5651 22.5321 72.5822 22.5099C72.5861 22.4915 72.5927 22.4732 72.5959 22.4548C72.6038 22.4325 72.6097 22.4109 72.6182 22.3886C72.6215 22.369 72.6287 22.3499 72.6385 22.3323C72.6385 22.31 72.6536 22.291 72.6536 22.2687C72.6523 22.2575 72.647 22.2536 72.6405 22.2536L72.6411 22.253ZM72.5258 22.4863C72.5258 22.4863 72.5304 22.4863 72.533 22.4876C72.5409 22.4908 72.5415 22.4974 72.533 22.5046C72.5291 22.5079 72.5252 22.5105 72.5238 22.5105C72.5088 22.5092 72.5042 22.5072 72.5035 22.5013C72.5035 22.4967 72.5048 22.4948 72.5147 22.4902C72.5199 22.4876 72.5232 22.4869 72.5258 22.4863Z" fill="#C09300"/>
<path d="M72.4923 22.6481C72.4766 22.6331 72.4792 22.6219 72.5028 22.6049C72.5127 22.5977 72.5192 22.5983 72.5303 22.6088C72.548 22.6252 72.5487 22.635 72.533 22.6495C72.5251 22.656 72.5218 22.658 72.5127 22.658C72.5035 22.658 72.5009 22.6567 72.4923 22.6488V22.6481Z" fill="#C09300"/>
<path d="M72.5907 22.6776C72.575 22.6737 72.5658 22.658 72.5704 22.6429C72.5743 22.6291 72.577 22.6278 72.5973 22.6272C72.6202 22.6272 72.6248 22.6311 72.6248 22.6508C72.6248 22.6619 72.6241 22.6645 72.6182 22.6698C72.6117 22.6757 72.5986 22.6796 72.5901 22.677L72.5907 22.6776Z" fill="#C09300"/>
<path d="M75.4564 22.6802C75.4492 22.6743 75.4479 22.6717 75.4473 22.6639C75.4473 22.6508 75.4545 22.6409 75.4715 22.6337C75.4931 22.6239 75.5023 22.6252 75.5108 22.6396C75.522 22.6593 75.5213 22.6671 75.5082 22.6796C75.501 22.6868 75.4997 22.6875 75.4827 22.6875C75.4663 22.6875 75.4643 22.6875 75.4564 22.6802Z" fill="#C09300"/>
<path d="M72.7205 22.717C72.7087 22.7137 72.7028 22.7052 72.7028 22.6907C72.7028 22.6803 72.7028 22.6783 72.7106 22.6724C72.7152 22.6685 72.7231 22.6652 72.729 22.6645C72.7375 22.6632 72.7408 22.6645 72.7473 22.6691C72.765 22.6816 72.7689 22.694 72.7585 22.7058C72.7473 22.7183 72.7375 22.7215 72.7198 22.717H72.7205Z" fill="#C09300"/>
<path d="M73.4257 22.7484C73.4257 22.7484 73.4172 22.7432 73.4165 22.7392C73.4178 22.7215 73.4185 22.7032 73.4244 22.6862C73.4276 22.6691 73.4244 22.6521 73.4309 22.6357C73.4368 22.6062 73.4368 22.5754 73.444 22.5453C73.444 22.5302 73.446 22.5145 73.4499 22.5C73.4552 22.4771 73.4499 22.4529 73.4571 22.4299C73.4565 22.4214 73.4663 22.3985 73.4748 22.4122C73.4873 22.4306 73.5043 22.4456 73.5207 22.4607C73.5345 22.4686 73.522 22.481 73.5122 22.485C73.4991 22.4902 73.4958 22.5046 73.4965 22.5177C73.4945 22.5308 73.4892 22.5439 73.4886 22.5571C73.486 22.5774 73.4866 22.5977 73.484 22.6173C73.4781 22.637 73.4801 22.658 73.4788 22.6783C73.4788 22.6914 73.4729 22.7025 73.4735 22.7156C73.4722 22.7288 73.4716 22.7445 73.4604 22.7537C73.4499 22.7589 73.4349 22.7582 73.4263 22.7491L73.4257 22.7484Z" fill="#C09300"/>
<path d="M74.3812 22.4332C74.3654 22.445 74.3517 22.4587 74.3379 22.4725C74.3189 22.4869 74.3537 22.4954 74.3582 22.5079C74.3635 22.5269 74.3628 22.5466 74.3641 22.5662C74.37 22.5839 74.3727 22.6029 74.3713 22.6213C74.3694 22.6416 74.3438 22.637 74.332 22.6481C74.3163 22.6547 74.3097 22.6704 74.2979 22.6816C74.2901 22.6973 74.2881 22.7163 74.2868 22.734C74.2881 22.7484 74.277 22.7648 74.2868 22.7772C74.2881 22.7792 74.2894 22.7812 74.2907 22.7831C74.294 22.7877 74.3019 22.7838 74.3071 22.7851C74.3235 22.7844 74.3399 22.7864 74.3556 22.7799C74.3943 22.7733 74.4336 22.7726 74.4729 22.7707C74.4972 22.7713 74.5201 22.7628 74.5444 22.7635C74.5634 22.7674 74.5719 22.7471 74.5712 22.732C74.5607 22.711 74.5699 22.6861 74.5614 22.6645C74.5535 22.6429 74.5568 22.6186 74.5535 22.5964C74.5535 22.5787 74.5306 22.5721 74.5195 22.5852C74.5083 22.5964 74.4906 22.5983 74.4821 22.6121C74.4723 22.6318 74.5024 22.6318 74.507 22.6462C74.5129 22.6612 74.5109 22.6776 74.5122 22.6934C74.5162 22.7124 74.4952 22.7137 74.4821 22.7156C74.4651 22.7222 74.4408 22.7261 74.431 22.7058C74.4251 22.6901 74.4257 22.6737 74.4238 22.6573C74.4238 22.6285 74.4166 22.6003 74.4146 22.5721C74.4126 22.5367 74.4067 22.502 74.4048 22.4666C74.4048 22.4522 74.4028 22.4279 74.3818 22.4325L74.3812 22.4332ZM74.3609 22.6986L74.3707 22.6999L74.372 22.7117L74.3733 22.7235L74.3602 22.7274C74.353 22.7294 74.3471 22.7307 74.3471 22.7307C74.3471 22.7307 74.3445 22.7287 74.3412 22.7268C74.334 22.7215 74.336 22.7143 74.3451 22.7045C74.3504 22.6993 74.353 22.6979 74.3615 22.6986H74.3609Z" fill="#C09300"/>
<path d="M73.3967 22.4004C73.3843 22.405 73.3692 22.4227 73.3568 22.4227C73.3286 22.4247 73.3325 22.4522 73.3528 22.462C73.3554 22.4705 73.3528 22.481 73.3541 22.4902C73.3581 22.5158 73.3423 22.5361 73.345 22.5616C73.3436 22.5898 73.3351 22.6167 73.3338 22.6449C73.326 22.6737 73.326 22.7038 73.3207 22.7333C73.3174 22.7595 73.2984 22.7504 73.2814 22.7432C73.2814 22.7314 73.2807 22.7202 73.2801 22.7091C73.2873 22.6829 73.2657 22.675 73.2447 22.6717C73.2224 22.6737 73.2119 22.6547 73.2165 22.6357C73.2257 22.6245 73.2499 22.6278 73.265 22.6259C73.2965 22.6324 73.2952 22.5898 73.2788 22.5754C73.2676 22.5551 73.2401 22.5459 73.2322 22.5249C73.2355 22.4968 73.2165 22.4692 73.1942 22.4555C73.1595 22.4529 73.1326 22.483 73.1202 22.5125C73.1058 22.5164 73.0913 22.521 73.0769 22.5263C73.054 22.5321 73.0219 22.5715 73.0527 22.5865C73.0704 22.5911 73.1235 22.6036 73.0999 22.6278C73.0868 22.6508 73.0612 22.6508 73.0383 22.6449C73.0147 22.6449 72.9891 22.6337 72.9898 22.6069C72.9852 22.5826 72.9858 22.5571 72.9747 22.5348C72.9701 22.5079 72.9393 22.5138 72.9373 22.5387C72.9137 22.5557 72.917 22.5839 72.9334 22.6042C72.9439 22.6278 72.9334 22.6547 72.9236 22.6763C72.9177 22.7045 72.8862 22.7052 72.8646 22.7143C72.8535 22.7183 72.8122 22.7117 72.8272 22.7353C72.8515 22.7438 72.8803 22.7517 72.9059 22.7451C72.9321 22.7419 72.955 22.7235 72.9681 22.7012C72.9858 22.6835 73.0166 22.6927 73.0396 22.692C73.0645 22.692 73.09 22.7097 73.1136 22.6979C73.1208 22.6796 73.1529 22.6501 73.1628 22.6809C73.1608 22.7084 73.1857 22.7235 73.2113 22.7202C73.2388 22.7189 73.229 22.7399 73.2283 22.7563C73.2303 22.7864 73.2493 22.8021 73.2748 22.8146C73.2834 22.8172 73.2925 22.8159 73.3011 22.8146C73.3253 22.8067 73.3509 22.7962 73.3581 22.7694C73.3679 22.7478 73.3679 22.7228 73.3751 22.6999C73.381 22.6639 73.3882 22.6272 73.3889 22.5905C73.398 22.5571 73.3954 22.5217 73.402 22.4882C73.4059 22.4633 73.4092 22.4378 73.4118 22.4129C73.4092 22.3998 73.4033 22.3971 73.3954 22.3998L73.3967 22.4004ZM73.1785 22.5341C73.1831 22.5341 73.1864 22.5407 73.1864 22.5512C73.1864 22.5629 73.1929 22.5721 73.2001 22.5741C73.206 22.5754 73.2054 22.582 73.1988 22.5859C73.1949 22.5885 73.1883 22.5898 73.1765 22.5898C73.1582 22.5898 73.1464 22.5852 73.1366 22.5747L73.1307 22.5688L73.1398 22.5629C73.1444 22.5597 73.1529 22.5525 73.1582 22.5466C73.1674 22.5374 73.1733 22.5328 73.1785 22.5335V22.5341Z" fill="#C09300"/>
<path d="M75.3024 22.2805C75.2841 22.2812 75.2657 22.2844 75.2494 22.2884C75.2159 22.2864 75.1989 22.3211 75.231 22.3388C75.2507 22.388 75.2808 22.3283 75.3116 22.3329C75.3581 22.3421 75.3621 22.3919 75.3686 22.4293C75.3712 22.4666 75.3817 22.5027 75.3929 22.538C75.4237 22.5721 75.3699 22.5937 75.3463 22.5669C75.3267 22.5452 75.2847 22.519 75.2611 22.5485C75.2323 22.561 75.231 22.5996 75.2068 22.6108C75.1681 22.6226 75.1628 22.5747 75.1425 22.5544C75.1235 22.5282 75.0875 22.5256 75.058 22.5164C75.0442 22.4882 75.0514 22.4411 75.0226 22.422C74.9984 22.4319 74.9545 22.4771 74.9912 22.4974C75.0272 22.5282 74.9754 22.5426 74.959 22.5636C74.9354 22.5898 74.9315 22.6259 74.9276 22.6593C74.887 22.6816 74.8791 22.6337 74.8745 22.6042C74.8712 22.5682 74.8411 22.5787 74.8201 22.5924C74.7893 22.6049 74.7742 22.6337 74.7526 22.6567C74.75 22.6776 74.7539 22.7006 74.7539 22.7222C74.7611 22.7484 74.7926 22.736 74.8122 22.734C74.8437 22.7209 74.8568 22.7543 74.8312 22.7733C74.8142 22.7949 74.7598 22.7838 74.7651 22.8185C74.7828 22.8205 74.8004 22.8198 74.8181 22.8185C74.8535 22.8087 74.8909 22.7844 74.8948 22.7451C74.8994 22.711 74.9486 22.7176 74.9754 22.7097C75.0088 22.6999 75.0495 22.6973 75.0567 22.7399C75.0796 22.7641 75.1288 22.791 75.1543 22.7582C75.1799 22.7425 75.1923 22.715 75.1904 22.6861C75.1851 22.6606 75.231 22.6599 75.2428 22.6743C75.2598 22.7019 75.3123 22.694 75.3372 22.6783C75.364 22.6586 75.3699 22.6232 75.4086 22.6232C75.4656 22.6062 75.5252 22.5964 75.5816 22.5747C75.6268 22.5649 75.5751 22.5361 75.5633 22.5197C75.5285 22.5027 75.4984 22.5728 75.4597 22.538C75.4296 22.5151 75.4315 22.4712 75.4204 22.4378C75.4125 22.3939 75.4145 22.3441 75.383 22.3093C75.3614 22.2864 75.3319 22.2805 75.3018 22.2825L75.3024 22.2805ZM75.0836 22.5852C75.0875 22.5852 75.0921 22.5872 75.0999 22.5911C75.1144 22.599 75.1242 22.6121 75.1242 22.6226C75.1242 22.6291 75.1222 22.6298 75.1124 22.6344C75.1058 22.637 75.0986 22.6403 75.096 22.6403C75.0901 22.6403 75.0757 22.6285 75.0757 22.6239C75.0757 22.6219 75.0737 22.6147 75.0718 22.6088C75.0678 22.5983 75.0685 22.5983 75.0737 22.5918C75.077 22.5872 75.0796 22.5846 75.0836 22.5846V22.5852ZM75.2939 22.5964C75.3057 22.5957 75.3129 22.5996 75.3182 22.6082C75.3241 22.6186 75.3201 22.6272 75.3051 22.6331C75.2985 22.6357 75.2919 22.6383 75.2913 22.6383C75.29 22.6383 75.2847 22.635 75.2795 22.6311C75.271 22.6252 75.2697 22.6226 75.2697 22.616C75.2697 22.6062 75.2808 22.597 75.2946 22.5957L75.2939 22.5964ZM75.0062 22.5996C75.0095 22.5996 75.0128 22.601 75.0174 22.6049C75.0233 22.6101 75.0252 22.6141 75.0265 22.6239C75.0279 22.6311 75.0272 22.6403 75.0265 22.6442C75.0252 22.6514 75.0246 22.6514 75.0082 22.6514C74.9879 22.6514 74.9859 22.6494 74.9859 22.6304C74.9859 22.618 74.9859 22.6154 74.9931 22.6082C74.9984 22.6029 75.0029 22.601 75.0062 22.6003V22.5996ZM74.8293 22.6462C74.8358 22.6475 74.8417 22.6527 74.843 22.6599C74.845 22.6704 74.843 22.675 74.8352 22.6789C74.828 22.6829 74.8116 22.6835 74.807 22.6809C74.8057 22.6802 74.8024 22.6776 74.8011 22.675C74.7991 22.6711 74.7991 22.6691 74.8024 22.6671C74.8044 22.6658 74.8063 22.6632 74.8063 22.6619C74.8063 22.6606 74.8083 22.6567 74.8116 22.6527C74.8162 22.6462 74.8234 22.6442 74.8299 22.6455L74.8293 22.6462ZM75.1268 22.6842C75.1327 22.6842 75.1373 22.6861 75.1406 22.6894C75.1465 22.6947 75.1465 22.7025 75.1393 22.7078C75.1347 22.711 75.1111 22.711 75.1032 22.7078C75.0993 22.7065 75.098 22.7045 75.098 22.7006C75.098 22.696 75.0993 22.6934 75.1071 22.6894C75.1137 22.6861 75.1203 22.6842 75.1261 22.6842H75.1268Z" fill="#C09300"/>
<path d="M74.5744 22.8388C74.5744 22.8388 74.5666 22.8349 74.5711 22.8316C74.5764 22.8218 74.5875 22.8185 74.5974 22.8153C74.615 22.8074 74.6301 22.7949 74.6413 22.7792C74.6426 22.7687 74.655 22.7628 74.655 22.7517C74.655 22.7366 74.6563 22.7209 74.6524 22.7058C74.6485 22.692 74.638 22.6816 74.6255 22.6744C74.617 22.6678 74.6039 22.6658 74.6006 22.6547C74.5987 22.6436 74.6085 22.635 74.6124 22.6252C74.6196 22.6114 74.6255 22.5977 74.6334 22.5839C74.6419 22.5747 74.6544 22.5839 74.659 22.5924C74.6649 22.6016 74.6707 22.6108 74.6734 22.6213C74.6832 22.6318 74.6917 22.6442 74.695 22.6586C74.6996 22.6685 74.7074 22.6783 74.7068 22.6894C74.7068 22.7025 74.7147 22.715 74.714 22.7281C74.714 22.7458 74.714 22.7648 74.7081 22.7818C74.7035 22.791 74.6943 22.7969 74.6884 22.8054C74.678 22.8146 74.6668 22.8238 74.6537 22.829C74.6445 22.8323 74.6393 22.8428 74.6275 22.8402C74.6111 22.8402 74.5941 22.8428 74.5777 22.8402C74.579 22.8421 74.5725 22.8375 74.5738 22.8382L74.5744 22.8388Z" fill="#C09300"/>
<path d="M74.3543 22.8533C74.3464 22.8454 74.3451 22.8421 74.3445 22.8343C74.3445 22.8264 74.3458 22.8231 74.3537 22.8153C74.3681 22.8008 74.3746 22.8008 74.3989 22.8133C74.4218 22.8251 74.4297 22.8264 74.4323 22.8179C74.4343 22.81 74.4474 22.8022 74.4605 22.8022C74.4683 22.8022 74.4729 22.8035 74.4795 22.8087C74.4873 22.8153 74.488 22.8159 74.488 22.8303C74.488 22.8454 74.488 22.8461 74.4788 22.8539C74.4697 22.8618 74.4683 22.8624 74.4572 22.8611C74.4434 22.8598 74.4349 22.8533 74.4323 22.8421C74.4303 22.8343 74.4277 22.8323 74.4257 22.8375C74.4251 22.8395 74.4218 22.8415 74.4179 22.8421C74.4113 22.8441 74.4002 22.8506 74.3923 22.8585C74.389 22.8611 74.3838 22.8624 74.3759 22.8624C74.3648 22.8624 74.3628 22.8624 74.3543 22.8526V22.8533Z" fill="#C09300"/>
<path d="M73.7165 22.5669C73.6949 22.5669 73.672 22.5852 73.6693 22.6062C73.6739 22.6304 73.6942 22.654 73.6811 22.6796C73.6903 22.7124 73.6569 22.7248 73.6339 22.7058C73.6202 22.6744 73.613 22.6403 73.5927 22.6121C73.5671 22.6049 73.5553 22.6462 73.5376 22.6606C73.5468 22.6848 73.573 22.7065 73.5756 22.7373C73.5822 22.7668 73.5638 22.7995 73.5383 22.8146C73.516 22.8356 73.4858 22.8284 73.459 22.8329C73.4262 22.8519 73.4832 22.8592 73.4983 22.8598C73.5317 22.8631 73.5671 22.8585 73.592 22.8336C73.6169 22.8218 73.6149 22.7792 73.6444 22.7746C73.6955 22.7727 73.746 22.7825 73.7971 22.7838C73.8246 22.7903 73.8666 22.7805 73.8856 22.8008C73.8856 22.8362 73.9157 22.8585 73.9446 22.8723C73.9603 22.8769 73.9773 22.8565 73.9937 22.8533C74.0245 22.8434 74.0153 22.8048 74.0337 22.7897C74.0868 22.7871 74.1405 22.7877 74.1936 22.7864C74.2034 22.7864 74.2067 22.772 74.2139 22.7661C74.2126 22.7458 74.2119 22.7255 74.2087 22.7045C74.1982 22.6783 74.2106 22.6449 74.1916 22.6232C74.1648 22.616 74.1425 22.6403 74.115 22.6422C74.0855 22.6553 74.0599 22.6829 74.0586 22.7163C74.0409 22.7451 74.0127 22.7111 74.0226 22.6875C74.0212 22.677 74.0245 22.6645 74.0212 22.6553C74.0049 22.6357 73.9767 22.6422 73.9537 22.639C73.921 22.6403 73.8889 22.6331 73.8561 22.6337C73.8273 22.6318 73.7978 22.6363 73.7696 22.6285C73.7362 22.6278 73.7408 22.5951 73.7355 22.5721C73.7296 22.5675 73.7224 22.5662 73.7152 22.5662L73.7165 22.5669ZM73.7807 22.6855C73.7919 22.6855 73.8024 22.6875 73.8128 22.6888C73.8266 22.6907 73.8417 22.6842 73.8548 22.6888C73.8862 22.694 73.9177 22.6927 73.9492 22.696C73.9577 22.696 73.9636 22.7019 73.9695 22.7071C73.9695 22.7294 73.9695 22.7517 73.9695 22.7733C73.9688 22.7818 73.9721 22.7923 73.9642 22.7982C73.9616 22.8002 73.959 22.8015 73.9564 22.8021C73.9478 22.8002 73.9387 22.7943 73.9341 22.7858C73.9328 22.774 73.9341 22.7628 73.9354 22.7517C73.9354 22.7484 73.9367 22.7438 73.9354 22.7419C73.9288 22.7373 73.921 22.734 73.9125 22.734C73.8849 22.7333 73.8581 22.7314 73.8312 22.7301C73.8083 22.7287 73.7853 22.732 73.763 22.7261C73.7545 22.7228 73.7434 22.7242 73.7381 22.715C73.7309 22.7065 73.7414 22.696 73.7493 22.692C73.7598 22.6875 73.7703 22.6855 73.7814 22.6861L73.7807 22.6855ZM74.1438 22.6934C74.149 22.6934 74.1503 22.6947 74.153 22.7045C74.1543 22.7104 74.1562 22.7176 74.1569 22.7209C74.1582 22.7248 74.1562 22.7261 74.151 22.7281C74.1353 22.734 74.1195 22.7333 74.1136 22.7261C74.111 22.7228 74.1136 22.7124 74.1189 22.7078C74.1281 22.6993 74.1385 22.694 74.1438 22.694V22.6934Z" fill="#C09300"/>
<path d="M73.9997 20.8749C75.0495 20.0675 74.9591 18.8846 74.9591 18.8846C74.9316 18.8899 74.9054 18.8931 74.8772 18.8931C74.657 18.8931 74.1321 18.7673 74.0095 18.6074C73.8784 18.7522 73.3417 18.8931 73.1229 18.8931C73.0953 18.8931 73.0671 18.8905 73.0409 18.8846C73.0409 18.8846 72.9498 20.0675 73.999 20.8749H73.9997Z" fill="white"/>
<path d="M73.9996 20.8984L73.9885 20.8899C72.9426 20.0858 73.0219 18.8957 73.0232 18.8839L73.0245 18.8629L73.0448 18.8675C73.0697 18.8728 73.0959 18.8754 73.1228 18.8754C73.345 18.8754 73.8699 18.7345 73.9957 18.5956L74.0108 18.5792L74.0245 18.5969C74.1412 18.7496 74.6615 18.8754 74.8778 18.8754C74.904 18.8754 74.9289 18.8728 74.9558 18.8675L74.9761 18.8636L74.9774 18.8846C74.9781 18.8964 75.056 20.0864 74.0108 20.8905L73.9996 20.8991V20.8984ZM73.0586 18.9069C73.0533 19.0668 73.0566 20.1179 73.9996 20.8519C74.9433 20.1179 74.9473 19.0668 74.942 18.9069C74.9204 18.9101 74.8994 18.9121 74.8778 18.9121C74.6655 18.9121 74.1569 18.7935 74.0088 18.6349C73.847 18.7856 73.326 18.9121 73.1228 18.9121C73.1012 18.9121 73.0796 18.9108 73.0586 18.9075V18.9069Z" fill="#C09300"/>
<path d="M74.8752 18.9717C74.866 18.9717 74.8568 18.9724 74.8477 18.9724C74.6478 18.9724 74.1845 18.8702 74.0062 18.7168C73.8188 18.8584 73.3476 18.9724 73.1517 18.9724C73.1425 18.9724 73.1333 18.9711 73.1241 18.9698C73.1241 19.0143 73.1261 19.0609 73.1287 19.1028C73.1392 19.2601 73.1667 19.4187 73.2087 19.5707C73.3411 20.0498 73.6111 20.4567 73.999 20.7654C74.387 20.4561 74.6576 20.0491 74.79 19.5694C74.8319 19.4174 74.8595 19.2588 74.87 19.1015C74.8726 19.0602 74.8752 19.015 74.8745 18.9711L74.8752 18.9717Z" fill="white"/>
<path d="M73.999 20.7844L73.9898 20.7772C73.6012 20.4678 73.326 20.0517 73.1949 19.5746C73.1516 19.418 73.1248 19.2601 73.1143 19.1034C73.1123 19.0694 73.109 19.0182 73.1097 18.9691V18.9514L73.1267 18.9547C73.1359 18.9566 73.1438 18.9573 73.1516 18.9573C73.3489 18.9573 73.8162 18.8413 73.9977 18.7043L74.0069 18.6971L74.016 18.705C74.1956 18.859 74.6635 18.9573 74.8483 18.9573C74.8568 18.9573 74.866 18.9573 74.8745 18.9566H74.8902V18.9711C74.8902 19.0182 74.8876 19.0661 74.8857 19.1028C74.8752 19.2588 74.8483 19.4173 74.805 19.5733C74.6733 20.0511 74.3981 20.4672 74.0088 20.7765L73.9996 20.7837L73.999 20.7844ZM73.1385 18.9861C73.1385 19.0287 73.1412 19.072 73.1431 19.1015C73.153 19.2555 73.1798 19.4121 73.2224 19.5668C73.3535 20.0406 73.6143 20.4377 73.9983 20.747C74.383 20.4377 74.6445 20.0406 74.7756 19.5661C74.8182 19.4114 74.845 19.2555 74.8555 19.1015C74.8575 19.0694 74.8601 19.0287 74.8601 18.9874C74.8562 18.9874 74.8516 18.9874 74.8476 18.9874C74.6569 18.9874 74.1982 18.8918 74.0055 18.7358C73.8109 18.8754 73.3541 18.9874 73.1516 18.9874C73.1477 18.9874 73.1431 18.9874 73.1392 18.9874L73.1385 18.9861Z" fill="#C09300"/>
<path d="M73.6582 18.8747C73.4695 18.9344 73.265 18.9724 73.1516 18.9724C73.1425 18.9724 73.1333 18.9711 73.1248 18.9691C73.1248 19.0137 73.1267 19.0609 73.13 19.1028C73.1405 19.2601 73.1674 19.418 73.2093 19.57C73.2984 19.8925 73.4505 20.1821 73.6582 20.4312V18.8747Z" fill="#C09300"/>
<path d="M74.3214 18.8715V20.4554C74.5396 20.2005 74.6989 19.9023 74.7906 19.5687C74.8326 19.4167 74.8594 19.2588 74.8699 19.1015C74.8725 19.0602 74.8752 19.015 74.8752 18.9711C74.866 18.9711 74.8575 18.9724 74.8483 18.9724C74.7284 18.9724 74.5134 18.935 74.3214 18.8721V18.8715Z" fill="#C09300"/>
<path d="M74.3962 18.4907C74.4178 18.492 74.3674 18.376 74.3674 18.376C74.4244 18.4343 74.6387 18.4481 74.6387 18.4481C74.5102 18.3911 74.3818 17.9625 74.3969 17.6211C74.4106 17.2783 74.3477 17.1433 74.2973 17.0929C74.233 17.0286 74.0259 16.9716 73.8903 16.9644C73.8136 16.9605 73.8261 17.0227 73.8261 17.0227C73.6839 16.986 73.541 16.9723 73.4768 17.0149C73.4165 17.0555 73.4034 17.2567 73.4479 17.222C73.5554 17.1361 73.6485 17.2141 73.7127 17.3078C73.7697 17.3897 73.7658 17.6217 73.6839 17.893C73.598 18.1781 73.3634 18.4632 73.3634 18.4632C73.4905 18.4632 73.6701 18.3498 73.6701 18.3498L73.6275 18.5274C73.7625 18.4632 73.8693 18.3636 73.8693 18.3636L73.9978 18.4986C74.0404 18.4415 74.1262 18.3636 74.1262 18.3636C74.1262 18.3636 74.2337 18.4769 74.3975 18.492L74.3962 18.4907Z" fill="white"/>
<path d="M73.5967 18.5615L73.6386 18.3885C73.577 18.4225 73.4571 18.4815 73.3621 18.4815H73.3208L73.347 18.4494C73.347 18.4494 73.5803 18.1643 73.6635 17.8865C73.7481 17.606 73.7435 17.3884 73.695 17.3183C73.659 17.2659 73.6032 17.2043 73.5397 17.2043C73.5128 17.2043 73.4859 17.2154 73.4584 17.2371C73.4512 17.243 73.444 17.2456 73.4368 17.2456C73.4302 17.2456 73.4132 17.243 73.4053 17.2167C73.3909 17.1689 73.4093 17.0352 73.4643 16.9985C73.5233 16.9592 73.6465 16.9598 73.8057 16.9979C73.8077 16.9887 73.8116 16.9789 73.8189 16.9703C73.8339 16.952 73.8569 16.9435 73.8903 16.9454C74.0331 16.9533 74.2429 17.0123 74.3104 17.0798C74.3661 17.1355 74.4296 17.2751 74.4159 17.623C74.4001 17.9736 74.5345 18.3819 74.6465 18.4317L74.6374 18.4691C74.6197 18.4678 74.4906 18.4586 74.4073 18.4245C74.4283 18.4842 74.4204 18.4959 74.4172 18.5012C74.4126 18.5077 74.4054 18.5117 74.3975 18.5117C74.2592 18.4992 74.1609 18.4219 74.1262 18.3904C74.1006 18.4147 74.0449 18.4691 74.0135 18.5104L73.9997 18.5287L73.868 18.3911C73.8339 18.4206 73.7441 18.494 73.6354 18.5458L73.598 18.5634L73.5967 18.5615ZM73.6989 18.3059L73.655 18.4894C73.7677 18.4284 73.8536 18.3485 73.8549 18.3478L73.8693 18.3347L73.9958 18.4671C74.041 18.4127 74.1092 18.3505 74.1124 18.3472L74.1269 18.3341L74.14 18.3478C74.14 18.3478 74.2363 18.4481 74.3805 18.4684C74.3759 18.4481 74.3628 18.4127 74.3497 18.3832L74.3818 18.3616C74.4126 18.3931 74.5056 18.4121 74.5758 18.4212C74.4598 18.2882 74.3641 17.9219 74.3772 17.6191C74.3916 17.2685 74.3248 17.1466 74.2835 17.1053C74.2232 17.045 74.022 16.99 73.889 16.9821H73.8837C73.8726 16.9821 73.8575 16.9841 73.8503 16.9926C73.8424 17.0018 73.8451 17.0162 73.8451 17.0162L73.8516 17.047L73.8215 17.0391C73.6662 16.9992 73.5384 16.9952 73.4879 17.0287C73.4709 17.0398 73.4551 17.0745 73.4466 17.1191C73.4401 17.1551 73.4407 17.184 73.4433 17.1984C73.539 17.1283 73.6386 17.1623 73.7291 17.2941C73.7926 17.3865 73.7822 17.6335 73.7029 17.8957C73.634 18.125 73.4728 18.3505 73.4073 18.4363C73.522 18.4167 73.6583 18.3308 73.6596 18.3301L73.7002 18.3039L73.6989 18.3059Z" fill="#C09300"/>
<path d="M73.684 18.3622L73.6538 18.3347C73.7829 18.1912 73.855 17.6722 73.8557 17.6676L73.8963 17.6728C73.893 17.6945 73.8222 18.2089 73.6846 18.3622H73.684Z" fill="#C09300"/>
<path d="M73.8858 18.3721L73.8497 18.3524C73.9395 18.1873 73.9683 17.6604 73.9683 17.6551L74.009 17.6571C74.0077 17.6794 73.9801 18.1984 73.8858 18.3721Z" fill="#C09300"/>
<path d="M74.1059 18.3695C74.0699 18.2679 74.0692 17.7023 74.0692 17.6781H74.1098C74.1098 17.8399 74.1157 18.2771 74.1439 18.3557L74.1053 18.3695H74.1059Z" fill="#C09300"/>
<path d="M74.3496 18.3878C74.2271 18.2076 74.1976 17.7285 74.1963 17.7082L74.2369 17.7056C74.2369 17.7102 74.2671 18.1938 74.3837 18.3649L74.3496 18.3878Z" fill="#C09300"/>
<path d="M73.7456 17.4139C73.7391 17.3674 73.7279 17.3307 73.7115 17.3065C73.6473 17.2134 73.5543 17.1348 73.4468 17.2206C73.4468 17.2206 73.4835 17.1072 73.5615 17.1033C73.6218 17.0994 73.7594 17.1485 73.8806 17.3556C73.8806 17.3556 73.7908 17.3353 73.7699 17.3543C73.7292 17.3897 73.7456 17.4133 73.7456 17.4133V17.4139Z" fill="#C09300"/>
<path d="M73.7409 17.4173C73.7409 17.4173 73.735 17.4087 73.737 17.3956C73.7304 17.3583 73.72 17.3294 73.7069 17.3104C73.6223 17.1879 73.5352 17.1584 73.4506 17.2259L73.4355 17.2377L73.4414 17.22C73.4428 17.2154 73.4801 17.1027 73.5614 17.0988C73.5633 17.0988 73.566 17.0988 73.5679 17.0988C73.6453 17.0988 73.775 17.1656 73.8851 17.3537L73.8917 17.3648L73.8786 17.3622C73.8786 17.3622 73.8373 17.353 73.8052 17.353C73.7848 17.353 73.7763 17.357 73.7724 17.3596C73.758 17.372 73.7495 17.3845 73.7475 17.3956C73.7488 17.4015 73.7495 17.4074 73.7501 17.4133L73.7396 17.4173H73.7409ZM73.5397 17.1787C73.5994 17.1787 73.659 17.2207 73.716 17.3039C73.7278 17.3216 73.7377 17.3452 73.7442 17.3753C73.7488 17.3674 73.756 17.3589 73.7658 17.3511C73.773 17.3445 73.7862 17.3419 73.8058 17.3419C73.8281 17.3419 73.8543 17.3458 73.8694 17.3491C73.7291 17.1171 73.585 17.1106 73.5686 17.1106C73.5666 17.1106 73.5646 17.1106 73.5627 17.1106C73.5076 17.1132 73.4736 17.1748 73.4598 17.2062C73.4867 17.1885 73.5135 17.18 73.5404 17.18L73.5397 17.1787Z" fill="#C09300"/>
<path d="M73.4356 17.0811C73.4441 17.0523 73.4585 17.0254 73.4762 17.0142C73.5405 16.9717 73.6833 16.9854 73.8255 17.0221C73.8255 17.0221 73.8131 16.9605 73.8898 16.9638C74.0261 16.9717 74.2325 17.028 74.2967 17.0922C74.3118 17.1086 74.3295 17.1329 74.3446 17.1689H74.3419C74.3105 17.125 74.2207 17.1276 74.1997 17.1296C74.1656 17.1335 74.144 17.1322 74.0988 17.1433C74.0772 17.1486 74.0444 17.1545 74.0267 17.1683C74.013 17.1794 74.0018 17.2213 73.9802 17.2213C73.9461 17.2213 73.9487 17.2128 73.9396 17.2023C73.9284 17.1886 73.9219 17.1683 73.9107 17.1696C73.8753 17.1761 73.819 17.1479 73.7469 17.0916C73.6748 17.0346 73.6473 17.0208 73.5542 17.0274C73.4625 17.0352 73.433 17.0863 73.433 17.0863L73.4356 17.0798V17.0811Z" fill="#C09300"/>
<path d="M73.9802 17.2279C73.952 17.2279 73.9461 17.222 73.9395 17.2121C73.9382 17.2102 73.9376 17.2089 73.9356 17.2069C73.9317 17.2017 73.9284 17.1964 73.9251 17.1912C73.9205 17.184 73.916 17.1761 73.912 17.1761C73.8753 17.182 73.8183 17.1558 73.7436 17.0968C73.6846 17.0503 73.6558 17.0326 73.5909 17.0326C73.5804 17.0326 73.5686 17.0326 73.5549 17.0339C73.4677 17.0411 73.4389 17.0896 73.4382 17.0903L73.4277 17.0857L73.4304 17.0791C73.4363 17.0601 73.45 17.0247 73.473 17.0096C73.5005 16.9913 73.5424 16.9821 73.5975 16.9821C73.6578 16.9821 73.7344 16.9933 73.8183 17.0142C73.8183 17.0051 73.8196 16.99 73.8295 16.9782C73.8412 16.9638 73.8609 16.9566 73.8891 16.9585C74.0293 16.9664 74.2351 17.0234 74.3 17.0889C74.3203 17.1106 74.336 17.1368 74.3491 17.1676L74.3524 17.1754H74.3386L74.3367 17.1728C74.3124 17.1387 74.2495 17.1348 74.2233 17.1348C74.2102 17.1348 74.2017 17.1355 74.1997 17.1361C74.1905 17.1374 74.182 17.1381 74.1735 17.1387C74.1519 17.1407 74.1322 17.142 74.0995 17.1499L74.0922 17.1519C74.0719 17.1564 74.0444 17.163 74.03 17.1741C74.0261 17.1774 74.0215 17.1853 74.0162 17.1938C74.007 17.2102 73.9966 17.2285 73.9795 17.2285L73.9802 17.2279ZM73.912 17.165C73.9225 17.165 73.9284 17.1748 73.935 17.1859C73.9376 17.1905 73.9409 17.1958 73.9441 17.2003C73.9461 17.2023 73.9474 17.2043 73.9487 17.2069C73.9533 17.2135 73.9559 17.2174 73.9802 17.2174C73.9907 17.2174 73.9992 17.2023 74.007 17.1886C74.0123 17.1794 74.0175 17.1702 74.0234 17.1656C74.0405 17.1525 74.0693 17.146 74.0903 17.1407L74.0975 17.1387C74.1309 17.1302 74.1512 17.1289 74.1735 17.127C74.1814 17.127 74.1899 17.1256 74.1991 17.1243C74.2056 17.1237 74.2148 17.123 74.224 17.123C74.2521 17.123 74.298 17.127 74.3288 17.1479C74.3183 17.1283 74.3065 17.1112 74.2928 17.0955C74.2305 17.0332 74.0247 16.9762 73.8891 16.969C73.8655 16.9677 73.8485 16.9729 73.8386 16.9847C73.8268 16.9998 73.8308 17.0201 73.8308 17.0201L73.8327 17.0293L73.8242 17.0273C73.7377 17.0051 73.6597 16.9933 73.5981 16.9933C73.545 16.9933 73.5051 17.0018 73.4795 17.0188C73.4684 17.026 73.4579 17.0411 73.4494 17.0614C73.4677 17.0457 73.5011 17.0267 73.5542 17.0228C73.5686 17.0221 73.5804 17.0214 73.5916 17.0214C73.6597 17.0214 73.6912 17.0411 73.7515 17.0883C73.8222 17.144 73.8779 17.1715 73.9107 17.1656H73.9127L73.912 17.165Z" fill="#C09300"/>
<path d="M73.9624 17.1643C73.9834 17.1643 74.0005 17.1473 74.0005 17.1263C74.0005 17.1053 73.9834 17.0883 73.9624 17.0883C73.9415 17.0883 73.9244 17.1053 73.9244 17.1263C73.9244 17.1473 73.9415 17.1643 73.9624 17.1643Z" fill="white"/>
<path d="M23.04 19.616C23.3813 19.744 23.712 19.8773 24.032 20.016C24.352 20.144 24.6613 20.2667 24.96 20.384C25.2693 20.4907 25.5733 20.5813 25.872 20.656C26.1707 20.72 26.4747 20.752 26.784 20.752H28.08C28.2933 20.752 28.4533 20.7893 28.56 20.864C28.6667 20.9387 28.72 21.088 28.72 21.312C28.72 21.5787 28.6667 21.76 28.56 21.856C28.464 21.952 28.304 22 28.08 22H26.944C26.9973 22.0853 27.0613 22.224 27.136 22.416C27.2107 22.6187 27.248 22.8373 27.248 23.072C27.248 23.328 27.1947 23.5787 27.088 23.824C26.992 24.08 26.8267 24.3093 26.592 24.512C26.3573 24.7147 26.048 24.8747 25.664 24.992C25.28 25.12 24.8107 25.184 24.256 25.184H20.512C19.264 25.184 18.3147 24.8693 17.664 24.24C17.0133 23.6213 16.688 22.768 16.688 21.68C16.688 21.0507 16.7893 20.448 16.992 19.872C17.2053 19.2853 17.4507 18.7947 17.728 18.4C17.7707 18.3253 17.8453 18.32 17.952 18.384L18.832 18.864C18.9173 18.9173 18.9333 18.9867 18.88 19.072C18.688 19.3707 18.5013 19.7387 18.32 20.176C18.1493 20.6133 18.064 21.072 18.064 21.552C18.064 21.9893 18.1333 22.3573 18.272 22.656C18.4213 22.9653 18.6187 23.2107 18.864 23.392C19.1093 23.5733 19.3867 23.7013 19.696 23.776C20.016 23.8613 20.352 23.904 20.704 23.904H24.24C24.88 23.904 25.3227 23.808 25.568 23.616C25.824 23.424 25.952 23.1947 25.952 22.928C25.952 22.6933 25.8773 22.4907 25.728 22.32C25.5893 22.1493 25.376 21.9947 25.088 21.856C24.8107 21.7067 24.4587 21.5573 24.032 21.408C23.616 21.2587 23.136 21.0827 22.592 20.88C22.496 20.848 22.464 20.784 22.496 20.688L22.848 19.728C22.88 19.6213 22.944 19.584 23.04 19.616ZM22.368 27.952C22.2613 27.952 22.208 27.8987 22.208 27.792V26.624C22.208 26.5173 22.2613 26.464 22.368 26.464H23.456C23.5627 26.464 23.616 26.5173 23.616 26.624V27.792C23.616 27.8987 23.5627 27.952 23.456 27.952H22.368ZM20.416 27.952C20.3093 27.952 20.256 27.8987 20.256 27.792V26.624C20.256 26.5173 20.3093 26.464 20.416 26.464H21.504C21.6107 26.464 21.664 26.5173 21.664 26.624V27.792C21.664 27.8987 21.6107 27.952 21.504 27.952H20.416ZM28.2381 22C28.0248 22 27.8648 21.9627 27.7581 21.888C27.6515 21.8133 27.5981 21.664 27.5981 21.44C27.5981 21.1733 27.6515 20.992 27.7581 20.896C27.8541 20.8 28.0141 20.752 28.2381 20.752H29.2461C29.5128 20.752 29.7048 20.6933 29.8221 20.576C29.9501 20.448 30.0141 20.224 30.0141 19.904V15.616C30.0141 15.5093 30.0675 15.456 30.1741 15.456H31.1981C31.3048 15.456 31.3581 15.5093 31.3581 15.616V19.984C31.3581 20.6773 31.2141 21.1893 30.9261 21.52C30.6381 21.84 30.1581 22 29.4861 22H28.2381ZM29.7741 24.928C29.6675 24.928 29.6141 24.8747 29.6141 24.768V23.6C29.6141 23.4933 29.6675 23.44 29.7741 23.44H30.8621C30.9688 23.44 31.0221 23.4933 31.0221 23.6V24.768C31.0221 24.8747 30.9688 24.928 30.8621 24.928H29.7741ZM32.7925 25.184C32.6858 25.184 32.6325 25.1307 32.6325 25.024V24.096C32.6325 23.9893 32.6858 23.936 32.7925 23.936H33.1605C34.0245 23.936 34.4565 23.4827 34.4565 22.576V15.616C34.4565 15.5093 34.5098 15.456 34.6165 15.456H35.6405C35.7472 15.456 35.8005 15.5093 35.8005 15.616V19.664C35.8005 20.0267 35.9285 20.2987 36.1845 20.48C36.4512 20.6613 36.8032 20.752 37.2405 20.752H37.4165C37.6298 20.752 37.7898 20.8 37.8965 20.896C38.0032 20.9813 38.0565 21.1307 38.0565 21.344C38.0565 21.6213 38.0032 21.8027 37.8965 21.888C37.8005 21.9627 37.6405 22 37.4165 22H37.0805C36.5258 22 36.0992 21.8293 35.8005 21.488V22.544C35.8005 23.408 35.5818 24.064 35.1445 24.512C34.7072 24.96 34.0672 25.184 33.2245 25.184H32.7925ZM37.5897 22C37.3764 22 37.2324 21.9573 37.1577 21.872C37.0831 21.776 37.0457 21.616 37.0457 21.392C37.0457 21.1253 37.0831 20.9547 37.1577 20.88C37.2217 20.7947 37.3657 20.752 37.5897 20.752H39.3497C39.5631 20.752 39.7231 20.7947 39.8297 20.88C39.9364 20.9653 39.9897 21.12 39.9897 21.344C39.9897 21.6107 39.9364 21.7867 39.8297 21.872C39.7337 21.9573 39.5737 22 39.3497 22H37.5897ZM39.531 22C39.3177 22 39.1737 21.9573 39.099 21.872C39.0243 21.776 38.987 21.616 38.987 21.392C38.987 21.1253 39.0243 20.9547 39.099 20.88C39.163 20.7947 39.307 20.752 39.531 20.752H41.291C41.5043 20.752 41.6643 20.7947 41.771 20.88C41.8777 20.9653 41.931 21.12 41.931 21.344C41.931 21.6107 41.8777 21.7867 41.771 21.872C41.675 21.9573 41.515 22 41.291 22H39.531ZM41.4722 22C41.2589 22 41.1149 21.9573 41.0402 21.872C40.9656 21.776 40.9282 21.616 40.9282 21.392C40.9282 21.1253 40.9656 20.9547 41.0402 20.88C41.1042 20.7947 41.2482 20.752 41.4722 20.752H43.2322C43.4456 20.752 43.6056 20.7947 43.7122 20.88C43.8189 20.9653 43.8722 21.12 43.8722 21.344C43.8722 21.6107 43.8189 21.7867 43.7122 21.872C43.6162 21.9573 43.4562 22 43.2322 22H41.4722ZM43.4135 22C43.2002 22 43.0562 21.9573 42.9815 21.872C42.9068 21.776 42.8695 21.616 42.8695 21.392C42.8695 21.1253 42.9068 20.9547 42.9815 20.88C43.0455 20.7947 43.1895 20.752 43.4135 20.752H45.1735C45.3868 20.752 45.5468 20.7947 45.6535 20.88C45.7602 20.9653 45.8135 21.12 45.8135 21.344C45.8135 21.6107 45.7602 21.7867 45.6535 21.872C45.5575 21.9573 45.3975 22 45.1735 22H43.4135ZM52.7148 20.752C52.8214 20.752 52.8748 20.8053 52.8748 20.912V21.84C52.8748 21.9467 52.8214 22 52.7148 22H45.3388C44.9121 22 44.6988 21.7867 44.6988 21.36C44.6988 21.0933 44.7521 20.928 44.8588 20.864C44.9548 20.7893 45.1148 20.752 45.3388 20.752H47.1628C46.9174 20.5067 46.7094 20.1973 46.5388 19.824C46.3681 19.4507 46.2828 19.0027 46.2828 18.48C46.2828 18.1493 46.3308 17.792 46.4268 17.408C46.5228 17.0133 46.6988 16.6507 46.9548 16.32C47.2108 15.9893 47.5574 15.7173 47.9948 15.504C48.4428 15.28 49.0134 15.168 49.7068 15.168C50.3361 15.168 50.8801 15.2853 51.3388 15.52C51.7974 15.744 52.1654 16.0587 52.4428 16.464C52.4961 16.5493 52.4801 16.624 52.3948 16.688L51.6908 17.264C51.6054 17.328 51.5308 17.3227 51.4668 17.248C50.9868 16.6933 50.3841 16.416 49.6588 16.416C48.9974 16.416 48.5068 16.6133 48.1868 17.008C47.8668 17.392 47.7068 17.8773 47.7068 18.464C47.7068 18.8587 47.7708 19.1947 47.8988 19.472C48.0268 19.7493 48.1708 19.9787 48.3308 20.16C48.5014 20.3413 48.6721 20.48 48.8428 20.576C49.0134 20.6613 49.1468 20.72 49.2428 20.752H52.7148Z" fill="#067EDA"/>
</svg>
