<svg width="65" height="40" viewBox="0 0 65 40" fill="none" xmlns="http://www.w3.org/2000/svg">
<rect width="65" height="40" rx="20" fill="white"/>
<circle cx="45" cy="20" r="12" fill="#F4F4F4"/>
<mask id="mask0_232_718" style="mask-type:luminance" maskUnits="userSpaceOnUse" x="34" y="9" width="22" height="22">
<path d="M55.3898 19.8948C55.4479 25.633 50.8433 30.3317 45.1052 30.3898C39.3671 30.4479 34.6683 25.8433 34.6102 20.1052C34.5521 14.3671 39.1567 9.66831 44.8948 9.61022C50.6329 9.55214 55.3317 14.1567 55.3898 19.8948Z" fill="white" stroke="white"/>
</mask>
<g mask="url(#mask0_232_718)">
<path d="M58.5269 8.8226H32.178V16.3806H58.5269V8.8226Z" fill="#DC0031"/>
<path d="M58.5268 16.3301H32.1779V23.8881H58.5268V16.3301Z" fill="white"/>
<path d="M58.5268 23.8376H32.1779V31.3956H58.5268V23.8376Z" fill="black"/>
</g>
<path d="M45.0259 20.0766L47.2285 22.1212L47.0719 18.4081C47.0489 17.8452 46.56 17.9743 46.2042 18.1774C45.8444 18.4081 45.4335 18.4081 44.9997 18.2561C44.5659 18.4081 44.1556 18.4081 43.7958 18.1774C43.4407 17.9743 42.9518 17.8452 42.9288 18.4081L42.7722 22.1212L45.0266 20.0766H45.0259Z" fill="white"/>
<path d="M47.2285 22.1416C47.2232 22.1416 47.2186 22.1396 47.2147 22.1363L45.0259 20.1041L42.7853 22.1363C42.7794 22.1416 42.7702 22.1429 42.763 22.1396C42.7558 22.1363 42.7512 22.1285 42.7512 22.1199L42.9078 18.4068C42.9223 18.0569 43.1143 17.9835 43.2729 17.9835C43.4688 17.9835 43.691 18.0936 43.8063 18.1591C43.9944 18.2797 44.2054 18.3406 44.4335 18.3406C44.6071 18.3406 44.7959 18.3052 44.9938 18.2358C44.9984 18.2345 45.0029 18.2345 45.0075 18.2358C45.2054 18.3052 45.3942 18.3406 45.5678 18.3406C45.7959 18.3406 46.0069 18.2797 46.1943 18.1598C46.3103 18.0936 46.5325 17.9835 46.7284 17.9835C46.887 17.9835 47.079 18.0569 47.0935 18.4068L47.2501 22.1199C47.2501 22.1285 47.2455 22.1357 47.2383 22.1396C47.2357 22.1409 47.2324 22.1416 47.2298 22.1416H47.2285ZM43.2729 18.0241C43.0684 18.0241 42.9596 18.1532 42.9491 18.4081L42.7945 22.0728L45.0128 20.0609C45.0206 20.0537 45.0324 20.0537 45.0403 20.0609L47.2062 22.0714L47.0515 18.4075C47.041 18.1526 46.9322 18.0235 46.7278 18.0235C46.5895 18.0235 46.4073 18.0837 46.2147 18.1938C46.0213 18.3177 45.8031 18.3806 45.5672 18.3806C45.3909 18.3806 45.2002 18.3452 45.0003 18.2758C44.8004 18.3452 44.6097 18.3806 44.4335 18.3806C44.1975 18.3806 43.9793 18.3177 43.7853 18.1932C43.594 18.0837 43.4118 18.0235 43.2735 18.0235L43.2729 18.0241Z" fill="#C09300"/>
<path d="M43.1818 18.2784L43.0298 21.8906L42.7716 22.1213L42.9282 18.4081C43.0023 18.3577 43.1314 18.279 43.1818 18.279V18.2784Z" fill="#C09300"/>
<path d="M43.4919 18.5373L43.3628 21.559L43.1046 21.8231L43.2612 18.3341C43.3117 18.3846 43.4644 18.5091 43.4919 18.5373Z" fill="#C09300"/>
<path d="M43.7729 18.7673L43.6714 21.287L43.4636 21.4902L43.5927 18.6152C43.6432 18.6657 43.7448 18.7397 43.7723 18.7673H43.7729Z" fill="#C09300"/>
<path d="M44.0777 18.897L43.9761 21.0446L43.7729 21.209L43.8745 18.8184C43.925 18.8413 44.0266 18.897 44.0777 18.897Z" fill="#C09300"/>
<path d="M44.3588 18.897L44.2848 20.6867L44.077 20.8899L44.1557 18.92C44.2061 18.92 44.3352 18.92 44.3588 18.897Z" fill="#C09300"/>
<path d="M46.8184 18.2784L46.9704 21.8906L47.2286 22.1213L47.072 18.4082C46.9979 18.3577 46.8688 18.2791 46.8184 18.2791V18.2784Z" fill="#C09300"/>
<path d="M46.509 18.5373L46.6381 21.559L46.8963 21.8231L46.7397 18.3341C46.6892 18.3846 46.5366 18.5091 46.509 18.5373Z" fill="#C09300"/>
<path d="M46.2272 18.7673L46.3287 21.287L46.5365 21.4902L46.4074 18.6152C46.3569 18.6657 46.2554 18.7397 46.2278 18.7673H46.2272Z" fill="#C09300"/>
<path d="M45.9225 18.897L46.0241 21.0446L46.2272 21.209L46.1256 18.8184C46.0752 18.8413 45.9736 18.897 45.9225 18.897Z" fill="#C09300"/>
<path d="M45.6414 18.897L45.7154 20.6867L45.9232 20.8899L45.8445 18.92C45.794 18.92 45.6649 18.92 45.6414 18.897Z" fill="#C09300"/>
<path d="M45.1018 20.4836L45.4111 21.8906L45.3095 21.9922L45.2034 21.9135L45.0277 20.6586L45.1018 21.9135L45.0002 22.0426L44.8986 21.9135L44.9727 20.6586L44.7977 21.9135L44.6915 21.9922L44.59 21.8906L44.8993 20.4836H45.1024H45.1018Z" fill="#C09300"/>
<path d="M45.0003 22.0708L44.881 21.9194L44.9302 21.0884L44.8135 21.9233L44.6897 22.0151L44.571 21.8965L44.8849 20.4665H45.1156L45.4295 21.8965L45.3109 22.0151L45.1871 21.9233L45.0704 21.0884L45.1196 21.9194L45.0003 22.0708ZM44.9164 21.9083L45.0003 22.0151L45.0842 21.9083L45.0108 20.6599L45.0449 20.6566L45.2192 21.9043L45.3076 21.9699L45.3922 21.8853L45.0881 20.5013H44.9131L44.6091 21.8853L44.6936 21.9699L44.7821 21.9043L44.9564 20.6566L44.9905 20.6599L44.9171 21.9083H44.9164Z" fill="#C09300"/>
<path d="M44.3083 19.8656L43.6949 22.0426L44.539 22.1717L44.8988 20.534L44.3083 19.8649V19.8656Z" fill="white"/>
<path d="M44.539 22.1914C44.539 22.1914 44.537 22.1914 44.5363 22.1914L43.6923 22.0623C43.687 22.0616 43.6818 22.0583 43.6792 22.0538C43.6759 22.0492 43.6752 22.0433 43.6765 22.038L44.2899 19.861C44.2919 19.8545 44.2971 19.8492 44.3043 19.8473C44.3109 19.8459 44.3181 19.8479 44.3227 19.8532L44.9131 20.5222C44.9171 20.5268 44.919 20.5327 44.9177 20.5393L44.558 22.177C44.556 22.1861 44.5481 22.192 44.5396 22.192L44.539 22.1914ZM43.7191 22.0275L44.5245 22.1508L44.8784 20.5399L44.3175 19.9049L43.7191 22.0275Z" fill="#C09300"/>
<path d="M44.1792 20.8086C44.1792 20.8086 44.1766 20.8086 44.1753 20.8086C44.1687 20.8073 44.1635 20.8027 44.1608 20.7961L44.0868 20.6166L44.1248 20.6008L44.1871 20.7529L44.5645 20.3924L44.5927 20.4219L44.1936 20.8027C44.1897 20.8066 44.1844 20.8086 44.1792 20.8086Z" fill="#C09300"/>
<path d="M44.465 20.9606C44.465 20.9606 44.4611 20.9606 44.4598 20.96C44.4519 20.958 44.446 20.9508 44.4447 20.9423L44.3615 20.1592L44.4021 20.1546L44.4801 20.8866L44.7029 20.595L44.7356 20.6199L44.482 20.9521C44.4781 20.9574 44.4722 20.96 44.4656 20.96L44.465 20.9606Z" fill="#C09300"/>
<path d="M44.6369 20.7315L44.5979 20.7428L44.7365 21.2211L44.7755 21.2098L44.6369 20.7315Z" fill="#C09300"/>
<path d="M44.5973 21.8951L44.5174 21.517L44.3529 21.7726C44.3483 21.7791 44.3411 21.7831 44.3332 21.7818C44.3254 21.7804 44.3188 21.7752 44.3162 21.768L44.2284 21.5013L44.0672 21.7667C44.0632 21.7739 44.0547 21.7772 44.0469 21.7765C44.039 21.7752 44.0324 21.7693 44.0298 21.7614L43.8961 21.2712C43.8942 21.264 43.8961 21.2568 43.9014 21.2516L44.1642 20.9822C44.1694 20.977 44.1766 20.975 44.1838 20.977C44.191 20.979 44.1963 20.9842 44.1982 20.9914L44.269 21.2444L44.4322 21.0235C44.4368 21.017 44.4453 21.0137 44.4532 21.0157C44.461 21.0176 44.4669 21.0242 44.4689 21.0321L44.5384 21.4161L44.7926 21.0301L44.8267 21.0524L44.5495 21.4737L44.6373 21.8879L44.5973 21.8964V21.8951ZM44.2343 21.4318C44.2343 21.4318 44.2356 21.4318 44.2369 21.4318C44.2448 21.4325 44.2513 21.4384 44.2539 21.4456L44.3418 21.7143L44.5056 21.4593L44.4374 21.0845L44.2775 21.3007C44.273 21.3073 44.2651 21.3099 44.2572 21.3086C44.2494 21.3073 44.2435 21.3014 44.2415 21.2942L44.1688 21.0347L43.9387 21.2706L44.0567 21.7038L44.2166 21.441C44.2205 21.4351 44.2271 21.4312 44.2343 21.4312V21.4318Z" fill="#C09300"/>
<path d="M44.3902 22.1782L44.303 21.9122L44.1739 22.1317C44.17 22.1389 44.1621 22.1422 44.1536 22.1415C44.1457 22.1409 44.1385 22.135 44.1365 22.1271L44.0376 21.7988L43.8915 22.0039L43.858 21.9803L44.0284 21.7411C44.033 21.7346 44.0409 21.7313 44.0481 21.7326C44.0559 21.7339 44.0618 21.7392 44.0645 21.747L44.1621 22.0708L44.2906 21.8525C44.2945 21.8453 44.3023 21.8421 44.3102 21.8427C44.3181 21.8434 44.3246 21.8493 44.3273 21.8565L44.4288 22.1658L44.3902 22.1782Z" fill="#C09300"/>
<path d="M45.6923 19.8657L46.3057 22.0427L45.4616 22.1718L45.1018 20.5341L45.6923 19.865V19.8657Z" fill="white"/>
<path d="M45.461 22.1914C45.4525 22.1914 45.4446 22.1855 45.4427 22.1763L45.0829 20.5386C45.0816 20.5327 45.0829 20.5262 45.0875 20.5216L45.6779 19.8525C45.6825 19.8473 45.6897 19.8453 45.6963 19.8466C45.7028 19.8479 45.7087 19.8532 45.7107 19.8604L46.3241 22.0374C46.3254 22.0426 46.3241 22.0485 46.3215 22.0531C46.3182 22.0577 46.3136 22.061 46.3084 22.0616L45.4643 22.1907C45.4643 22.1907 45.4623 22.1907 45.4617 22.1907L45.461 22.1914ZM45.1222 20.5399L45.4761 22.1507L46.2815 22.0275L45.6832 19.9049L45.1222 20.5399Z" fill="#C09300"/>
<path d="M45.8215 20.8087C45.8162 20.8087 45.811 20.8067 45.8071 20.8028L45.408 20.422L45.4361 20.3925L45.8136 20.753L45.8759 20.6009L45.9139 20.6167L45.8398 20.7962C45.8372 20.8028 45.832 20.8074 45.8254 20.8087C45.8241 20.8087 45.8228 20.8087 45.8215 20.8087Z" fill="#C09300"/>
<path d="M45.5351 20.9607C45.5286 20.9607 45.5227 20.9581 45.5188 20.9529L45.2651 20.6206L45.2979 20.5957L45.5207 20.8873L45.5987 20.1553L45.6393 20.1599L45.5561 20.943C45.5554 20.9516 45.5496 20.9581 45.541 20.9607C45.5391 20.9607 45.5371 20.9614 45.5358 20.9614L45.5351 20.9607Z" fill="#C09300"/>
<path d="M45.363 20.7307L45.2245 21.2091L45.2635 21.2204L45.4021 20.742L45.363 20.7307Z" fill="#C09300"/>
<path d="M45.4027 21.8952L45.3627 21.8867L45.4505 21.4725L45.1733 21.0512L45.2074 21.0289L45.4617 21.4149L45.5312 21.0308C45.5325 21.023 45.5384 21.0164 45.5469 21.0145C45.5547 21.0125 45.5633 21.0158 45.5679 21.0223L45.731 21.2432L45.8018 20.9902C45.8038 20.983 45.809 20.9778 45.8162 20.9758C45.8234 20.9738 45.8306 20.9758 45.8359 20.981L46.0987 21.2504C46.1039 21.2556 46.1059 21.2628 46.1039 21.27L45.9702 21.7602C45.9683 21.7681 45.9617 21.774 45.9532 21.7753C45.9447 21.7766 45.9368 21.7727 45.9329 21.7655L45.7717 21.5001L45.6838 21.7668C45.6812 21.774 45.6747 21.7799 45.6668 21.7805C45.6589 21.7819 45.6511 21.7779 45.6471 21.7714L45.4827 21.5158L45.4027 21.8939V21.8952ZM45.4945 21.4601L45.6583 21.715L45.7461 21.4463C45.7487 21.4385 45.7553 21.4332 45.7631 21.4326C45.771 21.4319 45.7789 21.4352 45.7828 21.4424L45.9427 21.7052L46.0607 21.272L45.8306 21.0361L45.7579 21.2949C45.7559 21.3022 45.7494 21.3081 45.7422 21.3094C45.7343 21.3107 45.7264 21.3074 45.7219 21.3015L45.562 21.0852L45.4938 21.4601H45.4945Z" fill="#C09300"/>
<path d="M45.6098 22.1783L45.5712 22.1659L45.6727 21.8566C45.6754 21.8487 45.6819 21.8435 45.6898 21.8428C45.6983 21.8428 45.7055 21.8461 45.7094 21.8526L45.8379 22.0709L45.9355 21.7471C45.9375 21.7399 45.9441 21.734 45.9519 21.7327C45.9598 21.7314 45.9676 21.7347 45.9716 21.7412L46.142 21.9804L46.1085 22.004L45.9624 21.7989L45.8634 22.1272C45.8608 22.1351 45.8543 22.1403 45.8464 22.1416C45.8385 22.1423 45.8307 22.139 45.8261 22.1318L45.697 21.9123L45.6098 22.1783Z" fill="#C09300"/>
<path d="M45.0003 23.0165C45.6419 23.0165 46.2553 22.966 46.6151 22.8645C46.7671 22.8369 46.7671 22.7583 46.7671 22.6567C46.9192 22.6063 46.8412 22.426 46.9473 22.426C46.8412 22.4536 46.8182 22.2458 46.6891 22.274C46.6891 22.0938 46.5089 22.0709 46.3569 22.122C46.0521 22.2236 45.5128 22.2465 45.0003 22.2465C44.4885 22.2235 43.9531 22.2236 43.6438 22.122C43.4918 22.0715 43.3115 22.0944 43.3115 22.274C43.1824 22.2465 43.1595 22.4542 43.0533 22.426C43.1595 22.426 43.0809 22.6056 43.2336 22.6567C43.2336 22.7583 43.2336 22.8369 43.3902 22.8645C43.7454 22.966 44.3588 23.0165 45.0003 23.0165Z" fill="white"/>
<path d="M45.0003 23.0544C44.3135 23.0544 43.7237 22.9987 43.3816 22.9011C43.2106 22.8703 43.1962 22.7772 43.1955 22.6822C43.1162 22.6435 43.0985 22.5708 43.0867 22.5203C43.0795 22.4909 43.0743 22.4719 43.0658 22.466C43.0586 22.466 43.0514 22.464 43.0442 22.4627C43.0258 22.4581 43.0134 22.4397 43.016 22.4207C43.0186 22.4017 43.035 22.3873 43.054 22.3873C43.0618 22.3873 43.0697 22.388 43.0769 22.3893C43.0972 22.386 43.1182 22.3591 43.1398 22.3316C43.1719 22.2903 43.2119 22.2392 43.2768 22.2333C43.2932 22.1239 43.3764 22.0596 43.5081 22.0596C43.5553 22.0596 43.6064 22.0682 43.6569 22.0852C43.9053 22.1671 44.3044 22.1815 44.727 22.1973C44.8188 22.2005 44.9112 22.2038 45.0029 22.2084C45.6583 22.2084 46.098 22.1684 46.3457 22.0859C46.3955 22.0695 46.4473 22.0603 46.4945 22.0603C46.6255 22.0603 46.7094 22.1245 46.7258 22.234C46.7907 22.2399 46.8307 22.291 46.8628 22.3323C46.8844 22.3604 46.9054 22.3873 46.9257 22.3906C46.9329 22.3893 46.9408 22.3886 46.9486 22.3886C46.9676 22.3886 46.984 22.403 46.9866 22.422C46.9893 22.4411 46.9768 22.4587 46.9585 22.464C46.9512 22.466 46.944 22.4673 46.9368 22.4673C46.9283 22.4725 46.9231 22.4922 46.9159 22.5217C46.9041 22.5715 46.8864 22.6449 46.8071 22.6835C46.8058 22.7785 46.792 22.8716 46.6255 22.9024C46.2789 23 45.6878 23.0558 45.0023 23.0558L45.0003 23.0544ZM43.1411 22.4417C43.151 22.4607 43.1562 22.483 43.1608 22.502C43.1733 22.5544 43.1844 22.599 43.2453 22.6193C43.2611 22.6245 43.2716 22.639 43.2716 22.6553C43.2716 22.7569 43.2716 22.8034 43.3967 22.8251C43.398 22.8251 43.3993 22.8251 43.4007 22.8257C43.7309 22.9201 44.3293 22.9765 45.0003 22.9765C45.6714 22.9765 46.2651 22.9214 46.6046 22.8257C46.6059 22.8257 46.6072 22.8257 46.6079 22.8251C46.7284 22.8034 46.7284 22.7569 46.7284 22.6553C46.7284 22.639 46.7389 22.6245 46.7546 22.6193C46.8162 22.599 46.8267 22.5538 46.8392 22.502C46.8438 22.4823 46.849 22.4607 46.8588 22.4417C46.8359 22.4247 46.8176 22.4004 46.8005 22.3788C46.7619 22.329 46.7376 22.3021 46.6963 22.3113C46.6852 22.3139 46.6734 22.3113 46.6642 22.3034C46.655 22.2962 46.6498 22.2851 46.6498 22.2739C46.6498 22.1599 46.5639 22.1363 46.4925 22.1363C46.4532 22.1363 46.4106 22.1435 46.368 22.1579C46.1124 22.2431 45.6648 22.2844 44.9997 22.2844C44.9066 22.2805 44.8142 22.2772 44.7225 22.2733C44.2945 22.2576 43.8902 22.2425 43.6313 22.1579C43.5887 22.1435 43.5461 22.1363 43.5068 22.1363C43.4347 22.1363 43.3495 22.1599 43.3495 22.2739C43.3495 22.2857 43.3443 22.2962 43.3351 22.3034C43.3259 22.3106 43.3141 22.3133 43.303 22.3113C43.2617 22.3028 43.2375 22.3296 43.1988 22.3794C43.1818 22.4017 43.1628 22.4253 43.1405 22.4424L43.1411 22.4417Z" fill="#C09300"/>
<path d="M44.1281 22.0427C44.3359 22.0702 44.5665 22.0931 44.7461 22.0702C44.8477 22.0702 44.9211 22.2452 44.7186 22.2733C44.539 22.2963 44.2572 22.2733 44.1052 22.2458C43.9761 22.2229 43.6943 22.1718 43.5147 22.1213C43.3345 22.0427 43.4643 21.8906 43.5652 21.9136C43.7218 21.964 43.925 22.0151 44.1281 22.0427Z" fill="white"/>
<path d="M44.5443 22.3034C44.3804 22.3034 44.2042 22.2844 44.1013 22.2661C43.9899 22.2464 43.6937 22.1933 43.5089 22.1409C43.3988 22.0931 43.4007 22.0249 43.4066 21.998C43.4191 21.9391 43.4807 21.8912 43.5442 21.8912C43.5528 21.8912 43.5619 21.8919 43.5698 21.8938C43.6753 21.9279 43.8863 21.9895 44.1295 22.0223C44.1308 22.0223 44.1321 22.0223 44.1334 22.0223C44.2618 22.0393 44.4283 22.059 44.5803 22.059C44.6406 22.059 44.6957 22.0557 44.7435 22.0498C44.8071 22.0498 44.8628 22.1022 44.8667 22.1645C44.8687 22.1901 44.8628 22.2739 44.7206 22.2936C44.6708 22.3001 44.6111 22.3034 44.5436 22.3034H44.5443ZM43.5442 21.9319C43.5003 21.9319 43.4551 21.9666 43.4466 22.0066C43.4387 22.0439 43.4656 22.078 43.5226 22.1029C43.7035 22.1534 43.9977 22.2064 44.1085 22.2261C44.2094 22.2444 44.3831 22.2628 44.5443 22.2628C44.6105 22.2628 44.6681 22.2595 44.716 22.2536C44.7894 22.2438 44.8293 22.2123 44.8267 22.1678C44.8241 22.1278 44.7854 22.0911 44.7461 22.0911C44.6989 22.097 44.6426 22.1003 44.5803 22.1003C44.4244 22.1003 44.2553 22.0806 44.1249 22.0629C43.8778 22.0295 43.6635 21.9672 43.5587 21.9332C43.5547 21.9325 43.5495 21.9319 43.5436 21.9319H43.5442Z" fill="#C09300"/>
<path d="M45.872 22.0426C45.6643 22.0701 45.4336 22.093 45.2586 22.0701C45.1525 22.0701 45.0784 22.2451 45.2816 22.2733C45.4618 22.2962 45.7429 22.2733 45.8949 22.2457C46.024 22.2228 46.3058 22.1717 46.4854 22.1212C46.6656 22.0426 46.5365 21.8905 46.4349 21.9135C46.2783 21.9639 46.0752 22.0151 45.872 22.0426Z" fill="white"/>
<path d="M45.4564 22.3034C45.3882 22.3034 45.3293 22.3001 45.2795 22.2936C45.1372 22.2739 45.132 22.1907 45.1333 22.1658C45.1379 22.1029 45.1949 22.0498 45.2585 22.0498C45.3076 22.0564 45.362 22.059 45.421 22.059C45.573 22.059 45.7402 22.0393 45.8693 22.0223C46.113 21.9889 46.3241 21.9279 46.4283 21.8938C46.4381 21.8912 46.4473 21.8906 46.4558 21.8906C46.5193 21.8906 46.5809 21.9384 46.5934 21.9974C46.5993 22.0243 46.6006 22.0931 46.4931 22.1396C46.3051 22.1927 46.0095 22.2458 45.8981 22.2654C45.7959 22.2838 45.6189 22.3028 45.4557 22.3028L45.4564 22.3034ZM45.2559 22.0911C45.212 22.0911 45.1766 22.1324 45.1739 22.1691C45.1713 22.213 45.2113 22.2438 45.284 22.2536C45.3319 22.2595 45.3896 22.2628 45.4557 22.2628C45.617 22.2628 45.7906 22.2444 45.8909 22.2261C46.0016 22.2064 46.2965 22.154 46.4794 22.1022C46.5338 22.0786 46.5606 22.0439 46.5528 22.0072C46.5436 21.9627 46.4846 21.9246 46.4387 21.9345C46.3352 21.9679 46.1216 22.0301 45.8745 22.0642C45.7441 22.0819 45.575 22.1016 45.421 22.1016C45.3594 22.1016 45.3044 22.0983 45.2552 22.0918L45.2559 22.0911Z" fill="#C09300"/>
<path d="M43.4917 21.941C43.3351 21.9135 43.2611 22.0931 43.3122 22.1946C43.3351 22.1442 43.4413 22.1442 43.4642 22.0931C43.4917 22.0144 43.4413 22.0144 43.4917 21.941Z" fill="white"/>
<path d="M43.3115 22.2156C43.3037 22.2156 43.2964 22.211 43.2932 22.2045C43.2643 22.1468 43.2702 22.0668 43.3082 22.0052C43.3489 21.9397 43.4183 21.9076 43.4944 21.9214C43.5009 21.9227 43.5068 21.9273 43.5094 21.9338C43.5121 21.9404 43.5114 21.9476 43.5075 21.9535C43.4839 21.9875 43.4858 22 43.4891 22.019C43.4924 22.0373 43.4963 22.0609 43.4819 22.1009C43.4662 22.1356 43.4295 22.1501 43.3941 22.1638C43.3659 22.175 43.3371 22.1861 43.3292 22.2038C43.3259 22.211 43.3187 22.2156 43.3109 22.2156H43.3115ZM43.4577 21.9594C43.3941 21.96 43.3587 22.002 43.3436 22.0269C43.3194 22.0655 43.3109 22.1147 43.3194 22.1553C43.3364 22.1422 43.3587 22.1337 43.3803 22.1252C43.4085 22.114 43.4373 22.1029 43.4452 22.0852C43.455 22.057 43.4524 22.0419 43.4498 22.0256C43.4465 22.0046 43.4446 21.9862 43.4577 21.9594Z" fill="#C09300"/>
<path d="M44.1052 22.4129C44.1052 22.3113 44.2068 22.3237 44.2068 22.2222C44.2068 22.1717 44.1793 22.0931 44.1281 22.0931C44.077 22.0931 44.0266 22.1435 44.0266 22.1946C44.0036 22.2962 44.1052 22.3113 44.1052 22.4129Z" fill="white"/>
<path d="M44.1051 22.4338C44.094 22.4338 44.0848 22.4247 44.0848 22.4135C44.0848 22.3729 44.0658 22.3486 44.0455 22.3224C44.0206 22.291 43.9931 22.2549 44.0062 22.1927C44.0075 22.1317 44.0671 22.0734 44.1281 22.0734C44.1923 22.0734 44.227 22.1606 44.227 22.2228C44.227 22.2851 44.1949 22.3106 44.1694 22.3336C44.1451 22.3552 44.1255 22.3722 44.1255 22.4135C44.1255 22.4247 44.1163 22.4338 44.1051 22.4338ZM44.1281 22.114C44.0888 22.114 44.0468 22.156 44.0468 22.1953C44.0468 22.1966 44.0468 22.1986 44.0468 22.1999C44.037 22.2444 44.0547 22.268 44.0783 22.2975C44.0881 22.31 44.0986 22.3237 44.1071 22.3395C44.1176 22.3244 44.1307 22.3132 44.1425 22.3028C44.1667 22.2811 44.1864 22.2641 44.1864 22.2228C44.1864 22.1789 44.1622 22.114 44.1287 22.114H44.1281Z" fill="#C09300"/>
<path d="M44.8352 22.1213C44.9873 22.1213 44.9722 22.3244 44.8981 22.426C44.8981 22.3519 44.769 22.3244 44.769 22.274C44.769 22.1953 44.8857 22.1953 44.8352 22.1213Z" fill="white"/>
<path d="M44.8987 22.4463C44.8987 22.4463 44.8948 22.4463 44.8922 22.445C44.8837 22.4423 44.8778 22.4345 44.8778 22.4253C44.8778 22.3958 44.845 22.3729 44.8129 22.3513C44.7795 22.3283 44.7487 22.3067 44.7487 22.2733C44.7487 22.2281 44.7795 22.2032 44.8017 22.1848C44.8299 22.1619 44.8352 22.1566 44.8181 22.1324C44.8135 22.1258 44.8135 22.118 44.8168 22.1114C44.8201 22.1049 44.8273 22.1003 44.8352 22.1003C44.9046 22.1003 44.938 22.1376 44.9544 22.1684C44.9944 22.2464 44.9649 22.3683 44.9151 22.4371C44.9112 22.4423 44.9053 22.4456 44.8987 22.4456V22.4463ZM44.8679 22.1461C44.8732 22.1802 44.847 22.2018 44.828 22.2169C44.8044 22.2359 44.7899 22.2497 44.7899 22.2733C44.7899 22.2857 44.8148 22.3028 44.8365 22.3178C44.8601 22.3342 44.8869 22.3526 44.9033 22.3775C44.9321 22.3178 44.9433 22.2385 44.9177 22.1881C44.9066 22.1671 44.8902 22.1527 44.8679 22.1461Z" fill="#C09300"/>
<path d="M46.509 21.941C46.6657 21.9135 46.7397 22.0931 46.6892 22.1946C46.6663 22.1442 46.5601 22.1442 46.5372 22.0931C46.5097 22.0144 46.5601 22.0144 46.5097 21.941H46.509Z" fill="white"/>
<path d="M46.6885 22.2156C46.6807 22.2156 46.6735 22.211 46.6702 22.2038C46.6623 22.1861 46.6335 22.1743 46.6053 22.1638C46.5699 22.1501 46.5332 22.1356 46.5182 22.1022C46.5031 22.0609 46.507 22.0373 46.5103 22.019C46.5136 22 46.5155 21.9875 46.4919 21.9535C46.488 21.9476 46.4874 21.9404 46.49 21.9338C46.4926 21.9273 46.4985 21.9227 46.505 21.9214C46.5811 21.9076 46.6512 21.9397 46.6912 22.0052C46.7292 22.0668 46.7351 22.1468 46.7062 22.2045C46.703 22.2117 46.6958 22.2156 46.6879 22.2156H46.6885ZM46.5424 21.9594C46.5549 21.9862 46.5535 22.0046 46.5503 22.0256C46.5476 22.0419 46.545 22.057 46.5555 22.0872C46.5627 22.1035 46.5916 22.1147 46.6197 22.1258C46.6414 22.1343 46.663 22.1429 46.6807 22.156C46.6892 22.1153 46.6807 22.0662 46.6564 22.0275C46.6407 22.0026 46.606 21.9607 46.5424 21.96V21.9594Z" fill="#C09300"/>
<path d="M45.8949 22.4129C45.8949 22.3113 45.7933 22.3237 45.7933 22.2222C45.7933 22.1717 45.8209 22.0931 45.872 22.0931C45.9231 22.0931 45.9736 22.1435 45.9736 22.1946C45.9965 22.2962 45.8949 22.3113 45.8949 22.4129Z" fill="white"/>
<path d="M45.8948 22.4338C45.8837 22.4338 45.8745 22.4247 45.8745 22.4135C45.8745 22.3722 45.8555 22.3552 45.8306 22.3336C45.8051 22.3113 45.7729 22.2831 45.7729 22.2228C45.7729 22.1625 45.807 22.0734 45.8719 22.0734C45.9329 22.0734 45.9925 22.1324 45.9938 22.1927C46.0069 22.2549 45.9794 22.291 45.9545 22.3224C45.9342 22.3486 45.9152 22.3729 45.9152 22.4135C45.9152 22.4247 45.906 22.4338 45.8948 22.4338ZM45.8719 22.114C45.8385 22.114 45.8136 22.1789 45.8136 22.2228C45.8136 22.2641 45.8332 22.2811 45.8575 22.3028C45.8693 22.3132 45.8824 22.3244 45.8929 22.3395C45.9014 22.3237 45.9119 22.31 45.9217 22.2975C45.9446 22.268 45.963 22.2444 45.9532 22.1999C45.9532 22.1986 45.9532 22.1966 45.9532 22.1953C45.9532 22.156 45.9112 22.114 45.8719 22.114Z" fill="#C09300"/>
<path d="M45.1647 22.1213C45.0126 22.1213 45.0277 22.3245 45.1011 22.4261C45.1011 22.352 45.2302 22.3245 45.2302 22.274C45.2302 22.1954 45.1136 22.1954 45.164 22.1213H45.1647Z" fill="white"/>
<path d="M45.1012 22.4463C45.0947 22.4463 45.0888 22.443 45.0848 22.4378C45.035 22.369 45.0055 22.2471 45.0455 22.1691C45.0612 22.1376 45.0947 22.1009 45.1648 22.1009C45.1726 22.1009 45.1792 22.1049 45.1831 22.1121C45.1864 22.1186 45.1864 22.1271 45.1818 22.133C45.1654 22.1573 45.1707 22.1625 45.1982 22.1855C45.2205 22.2038 45.2513 22.2287 45.2513 22.2739C45.2513 22.3074 45.2198 22.329 45.1871 22.3519C45.1549 22.3735 45.1222 22.3965 45.1222 22.426C45.1222 22.4351 45.1163 22.4424 45.1078 22.4456C45.1058 22.4463 45.1038 22.4469 45.1012 22.4469V22.4463ZM45.132 22.1461C45.1097 22.1527 45.0927 22.1665 45.0822 22.1881C45.0566 22.2385 45.0678 22.3178 45.0966 22.3775C45.113 22.3526 45.1405 22.3342 45.1635 22.3178C45.1851 22.3028 45.21 22.2857 45.21 22.2733C45.21 22.249 45.1956 22.2359 45.172 22.2169C45.153 22.2012 45.1268 22.1796 45.132 22.1461Z" fill="#C09300"/>
<path d="M43.5423 21.9921C43.5934 21.9921 43.6714 22.015 43.6943 22.0426L43.5416 21.9914L43.5423 21.9921Z" fill="white"/>
<path d="M43.6943 22.057C43.6943 22.057 43.691 22.057 43.6897 22.0564L43.5383 22.0059C43.5383 22.0059 43.535 22.0046 43.5337 22.0039C43.5278 22 43.5259 21.9921 43.5285 21.9856C43.5311 21.9797 43.537 21.9771 43.5429 21.9777C43.5953 21.9777 43.674 22.0013 43.7021 22.0308C43.7061 22.0334 43.7087 22.038 43.7087 22.0426C43.7087 22.0505 43.7021 22.057 43.6943 22.057Z" fill="#C09300"/>
<path d="M43.7958 22.0707C43.8233 22.0707 43.9249 22.0936 43.976 22.1211L43.7958 22.07V22.0707Z" fill="white"/>
<path d="M43.9754 22.1356C43.9754 22.1356 43.9728 22.1356 43.9715 22.1356L43.7932 22.0851C43.7899 22.0851 43.7867 22.0825 43.784 22.0799C43.7801 22.0753 43.7801 22.0681 43.7834 22.0629C43.7867 22.0583 43.7919 22.0557 43.7978 22.0563C43.8299 22.0576 43.9289 22.0806 43.98 22.1074C43.9859 22.1094 43.9905 22.1146 43.9905 22.1212C43.9905 22.1291 43.9839 22.1363 43.9761 22.1356H43.9754Z" fill="#C09300"/>
<path d="M44.7185 22.1716C44.668 22.1716 44.5665 22.1716 44.5389 22.1946L44.7185 22.1716Z" fill="white"/>
<path d="M44.5391 22.209C44.5332 22.209 44.5279 22.2057 44.526 22.2005C44.5233 22.1946 44.5253 22.1881 44.5299 22.1835C44.5587 22.1592 44.6413 22.1572 44.7167 22.1572C44.7226 22.1566 44.7278 22.1592 44.7311 22.1638C44.7337 22.1684 44.7337 22.1736 44.7311 22.1782C44.7285 22.1828 44.7239 22.1854 44.7186 22.1854L44.541 22.2084C44.541 22.2084 44.5397 22.2084 44.5391 22.2084V22.209Z" fill="#C09300"/>
<path d="M44.4375 22.1717C44.41 22.1442 44.3084 22.1442 44.2579 22.1717H44.4375Z" fill="white"/>
<path d="M44.4374 22.1861H44.2579C44.2513 22.1861 44.2454 22.1815 44.2441 22.1756C44.2428 22.169 44.2454 22.1625 44.2513 22.1592C44.2769 22.1448 44.3168 22.1369 44.3568 22.1369C44.3765 22.1369 44.4256 22.1395 44.4486 22.1618C44.4525 22.1658 44.4538 22.1723 44.4518 22.1775C44.4499 22.1828 44.4446 22.1861 44.4387 22.1861H44.4374Z" fill="#C09300"/>
<path d="M46.4586 21.9921C46.4081 21.9921 46.334 22.0151 46.3065 22.0426L46.4586 21.9921Z" fill="white"/>
<path d="M46.3059 22.057C46.3013 22.057 46.2961 22.0544 46.2934 22.0504C46.2902 22.0445 46.2908 22.0373 46.2954 22.0327C46.3275 22.0006 46.4068 21.9777 46.4579 21.9777C46.4651 21.9777 46.471 21.9829 46.4723 21.9895C46.4736 21.9967 46.4691 22.0032 46.4625 22.0052L46.3105 22.0557C46.3105 22.0557 46.3072 22.0563 46.3059 22.0563V22.057Z" fill="#C09300"/>
<path d="M46.2044 22.0707C46.1769 22.0707 46.0753 22.0936 46.0242 22.1211L46.2044 22.07V22.0707Z" fill="white"/>
<path d="M46.0247 22.1356C46.0188 22.1356 46.0136 22.1323 46.0116 22.1264C46.009 22.1199 46.0116 22.112 46.0182 22.1087C46.0693 22.0812 46.1702 22.0576 46.203 22.0563C46.2089 22.0557 46.2148 22.0583 46.2174 22.0629C46.2207 22.0688 46.22 22.076 46.2154 22.0806C46.2135 22.0825 46.2102 22.0845 46.2076 22.0845L46.0293 22.135C46.0293 22.135 46.0267 22.135 46.0254 22.135L46.0247 22.1356Z" fill="#C09300"/>
<path d="M45.2817 22.1717C45.3322 22.1717 45.4338 22.1717 45.462 22.1947L45.2817 22.1717Z" fill="white"/>
<path d="M45.4618 22.209C45.4618 22.209 45.4605 22.209 45.4599 22.209L45.2816 22.1861C45.2777 22.1861 45.2737 22.1848 45.2711 22.1822C45.2665 22.1776 45.2659 22.171 45.2685 22.1658C45.2711 22.1605 45.277 22.1572 45.2829 22.1579C45.3563 22.1579 45.4363 22.1599 45.4671 22.1822C45.4723 22.1841 45.4756 22.1894 45.4756 22.1953C45.4756 22.2031 45.4697 22.209 45.4612 22.2097L45.4618 22.209Z" fill="#C09300"/>
<path d="M45.5629 22.1717C45.5904 22.1441 45.692 22.1441 45.7431 22.1717H45.5629Z" fill="white"/>
<path d="M45.743 22.1861H45.5628C45.5549 22.1861 45.5483 22.1795 45.5483 22.1716C45.5483 22.1671 45.5503 22.1625 45.5542 22.1599C45.5772 22.1389 45.625 22.1363 45.644 22.1363C45.684 22.1363 45.724 22.1448 45.7495 22.1585C45.7554 22.1618 45.758 22.1684 45.7567 22.1749C45.7554 22.1815 45.7495 22.1854 45.743 22.1854V22.1861Z" fill="#C09300"/>
<path d="M43.4996 22.3978C43.4826 22.3945 43.4734 22.3808 43.478 22.365C43.4832 22.3454 43.499 22.3342 43.514 22.3395C43.5232 22.3428 43.5409 22.3605 43.5409 22.3664C43.5409 22.3736 43.5317 22.3906 43.5278 22.3906C43.5258 22.3906 43.5232 22.3919 43.5219 22.3939C43.5186 22.3978 43.5088 22.3998 43.5003 22.3978H43.4996Z" fill="#C09300"/>
<path d="M45.2658 22.5236C45.2592 22.521 45.2494 22.5072 45.2494 22.5C45.2494 22.4876 45.2677 22.4673 45.2795 22.4673C45.2854 22.4673 45.3005 22.4751 45.3064 22.481C45.3169 22.4922 45.3143 22.5099 45.3012 22.5197C45.2946 22.5249 45.2756 22.5262 45.2658 22.523V22.5236Z" fill="#C09300"/>
<path d="M45.2776 22.6036C45.2638 22.599 45.2593 22.5924 45.2579 22.5774C45.2566 22.5616 45.2579 22.559 45.275 22.5505L45.2868 22.5439L45.2979 22.5492C45.3136 22.5557 45.3202 22.5636 45.3209 22.5741C45.3209 22.5852 45.313 22.597 45.3005 22.6023C45.2894 22.6075 45.2887 22.6075 45.2783 22.6036H45.2776Z" fill="#C09300"/>
<path d="M43.6411 22.253C43.63 22.253 43.6149 22.2628 43.6058 22.268C43.5848 22.2726 43.5605 22.2857 43.5402 22.272C43.5206 22.2661 43.4937 22.2707 43.4911 22.2949C43.4963 22.3159 43.5258 22.3277 43.5435 22.3139C43.5566 22.2969 43.5927 22.2864 43.5966 22.3159C43.5822 22.3382 43.5835 22.3676 43.5717 22.3912C43.5697 22.4057 43.5638 22.4201 43.5553 22.4325C43.5402 22.4338 43.5245 22.4325 43.512 22.4417C43.4917 22.443 43.4714 22.4528 43.4596 22.4699C43.4465 22.4882 43.4341 22.5072 43.4308 22.5302C43.4341 22.5538 43.4609 22.5603 43.4812 22.5616C43.5029 22.5675 43.5238 22.5754 43.5455 22.5819C43.5802 22.5898 43.613 22.6023 43.6477 22.6101C43.6988 22.6252 43.7519 22.6324 43.8037 22.6462C43.8089 22.6481 43.8142 22.6494 43.8201 22.6501C43.841 22.6547 43.8522 22.6311 43.8541 22.614C43.8646 22.5767 43.8725 22.5387 43.883 22.5013C43.8902 22.4863 43.8987 22.4528 43.8699 22.46C43.8535 22.4699 43.8391 22.4849 43.8187 22.4863C43.7906 22.4876 43.8069 22.5164 43.8174 22.5282C43.8201 22.5472 43.8142 22.5695 43.801 22.5846C43.784 22.595 43.7637 22.5826 43.746 22.5787C43.7277 22.5787 43.6903 22.5695 43.708 22.5446C43.7139 22.5262 43.7145 22.5059 43.7218 22.4876C43.7309 22.4679 43.7322 22.4463 43.7368 22.4253C43.725 22.4004 43.7054 22.4338 43.6896 22.4365C43.6785 22.4443 43.6379 22.4469 43.6595 22.4666C43.6778 22.4804 43.6641 22.5053 43.6608 22.523C43.6595 22.5479 43.6339 22.5538 43.6136 22.5479C43.5933 22.5472 43.5651 22.5321 43.5822 22.5099C43.5861 22.4915 43.5927 22.4732 43.5959 22.4548C43.6038 22.4325 43.6097 22.4109 43.6182 22.3886C43.6215 22.369 43.6287 22.3499 43.6385 22.3323C43.6385 22.31 43.6536 22.291 43.6536 22.2687C43.6523 22.2575 43.647 22.2536 43.6405 22.2536L43.6411 22.253ZM43.5258 22.4863C43.5258 22.4863 43.5304 22.4863 43.533 22.4876C43.5409 22.4908 43.5415 22.4974 43.533 22.5046C43.5291 22.5079 43.5252 22.5105 43.5238 22.5105C43.5088 22.5092 43.5042 22.5072 43.5035 22.5013C43.5035 22.4967 43.5048 22.4948 43.5147 22.4902C43.5199 22.4876 43.5232 22.4869 43.5258 22.4863Z" fill="#C09300"/>
<path d="M43.4923 22.6481C43.4766 22.6331 43.4792 22.6219 43.5028 22.6049C43.5127 22.5977 43.5192 22.5983 43.5303 22.6088C43.548 22.6252 43.5487 22.635 43.533 22.6495C43.5251 22.656 43.5218 22.658 43.5127 22.658C43.5035 22.658 43.5009 22.6567 43.4923 22.6488V22.6481Z" fill="#C09300"/>
<path d="M43.5907 22.6776C43.575 22.6737 43.5658 22.658 43.5704 22.6429C43.5743 22.6291 43.577 22.6278 43.5973 22.6272C43.6202 22.6272 43.6248 22.6311 43.6248 22.6508C43.6248 22.6619 43.6241 22.6645 43.6182 22.6698C43.6117 22.6757 43.5986 22.6796 43.5901 22.677L43.5907 22.6776Z" fill="#C09300"/>
<path d="M46.4564 22.6803C46.4492 22.6744 46.4479 22.6717 46.4473 22.6639C46.4473 22.6508 46.4545 22.6409 46.4715 22.6337C46.4931 22.6239 46.5023 22.6252 46.5108 22.6396C46.522 22.6593 46.5213 22.6671 46.5082 22.6796C46.501 22.6868 46.4997 22.6875 46.4827 22.6875C46.4663 22.6875 46.4643 22.6875 46.4564 22.6803Z" fill="#C09300"/>
<path d="M43.7205 22.717C43.7087 22.7137 43.7028 22.7052 43.7028 22.6907C43.7028 22.6803 43.7028 22.6783 43.7106 22.6724C43.7152 22.6685 43.7231 22.6652 43.729 22.6645C43.7375 22.6632 43.7408 22.6645 43.7473 22.6691C43.765 22.6816 43.7689 22.694 43.7585 22.7058C43.7473 22.7183 43.7375 22.7215 43.7198 22.717H43.7205Z" fill="#C09300"/>
<path d="M44.4257 22.7484C44.4257 22.7484 44.4172 22.7432 44.4165 22.7392C44.4178 22.7215 44.4185 22.7032 44.4244 22.6862C44.4276 22.6691 44.4244 22.6521 44.4309 22.6357C44.4368 22.6062 44.4368 22.5754 44.444 22.5453C44.444 22.5302 44.446 22.5145 44.4499 22.5C44.4552 22.4771 44.4499 22.4529 44.4571 22.4299C44.4565 22.4214 44.4663 22.3985 44.4748 22.4122C44.4873 22.4306 44.5043 22.4456 44.5207 22.4607C44.5345 22.4686 44.522 22.481 44.5122 22.485C44.4991 22.4902 44.4958 22.5046 44.4965 22.5177C44.4945 22.5308 44.4892 22.5439 44.4886 22.5571C44.486 22.5774 44.4866 22.5977 44.484 22.6173C44.4781 22.637 44.4801 22.658 44.4788 22.6783C44.4788 22.6914 44.4729 22.7025 44.4735 22.7156C44.4722 22.7288 44.4716 22.7445 44.4604 22.7537C44.4499 22.7589 44.4349 22.7582 44.4263 22.7491L44.4257 22.7484Z" fill="#C09300"/>
<path d="M45.3812 22.4332C45.3654 22.445 45.3517 22.4587 45.3379 22.4725C45.3189 22.4869 45.3537 22.4954 45.3582 22.5079C45.3635 22.5269 45.3628 22.5466 45.3641 22.5662C45.37 22.5839 45.3727 22.6029 45.3713 22.6213C45.3694 22.6416 45.3438 22.637 45.332 22.6481C45.3163 22.6547 45.3097 22.6704 45.2979 22.6816C45.2901 22.6973 45.2881 22.7163 45.2868 22.734C45.2881 22.7484 45.277 22.7648 45.2868 22.7772C45.2881 22.7792 45.2894 22.7812 45.2907 22.7831C45.294 22.7877 45.3019 22.7838 45.3071 22.7851C45.3235 22.7844 45.3399 22.7864 45.3556 22.7799C45.3943 22.7733 45.4336 22.7726 45.4729 22.7707C45.4972 22.7713 45.5201 22.7628 45.5444 22.7635C45.5634 22.7674 45.5719 22.7471 45.5712 22.732C45.5607 22.711 45.5699 22.6861 45.5614 22.6645C45.5535 22.6429 45.5568 22.6186 45.5535 22.5964C45.5535 22.5787 45.5306 22.5721 45.5195 22.5852C45.5083 22.5964 45.4906 22.5983 45.4821 22.6121C45.4723 22.6318 45.5024 22.6318 45.507 22.6462C45.5129 22.6612 45.5109 22.6776 45.5122 22.6934C45.5162 22.7124 45.4952 22.7137 45.4821 22.7156C45.4651 22.7222 45.4408 22.7261 45.431 22.7058C45.4251 22.6901 45.4257 22.6737 45.4238 22.6573C45.4238 22.6285 45.4166 22.6003 45.4146 22.5721C45.4126 22.5367 45.4067 22.502 45.4048 22.4666C45.4048 22.4522 45.4028 22.4279 45.3818 22.4325L45.3812 22.4332ZM45.3609 22.6986L45.3707 22.6999L45.372 22.7117L45.3733 22.7235L45.3602 22.7274C45.353 22.7294 45.3471 22.7307 45.3471 22.7307C45.3471 22.7307 45.3445 22.7287 45.3412 22.7268C45.334 22.7215 45.336 22.7143 45.3451 22.7045C45.3504 22.6993 45.353 22.6979 45.3615 22.6986H45.3609Z" fill="#C09300"/>
<path d="M44.3967 22.4004C44.3843 22.405 44.3692 22.4227 44.3568 22.4227C44.3286 22.4247 44.3325 22.4522 44.3528 22.462C44.3554 22.4706 44.3528 22.481 44.3541 22.4902C44.3581 22.5158 44.3423 22.5361 44.345 22.5616C44.3436 22.5898 44.3351 22.6167 44.3338 22.6449C44.326 22.6737 44.326 22.7039 44.3207 22.7333C44.3174 22.7596 44.2984 22.7504 44.2814 22.7432C44.2814 22.7314 44.2807 22.7202 44.2801 22.7091C44.2873 22.6829 44.2657 22.675 44.2447 22.6717C44.2224 22.6737 44.2119 22.6547 44.2165 22.6357C44.2257 22.6246 44.2499 22.6278 44.265 22.6259C44.2965 22.6324 44.2952 22.5898 44.2788 22.5754C44.2676 22.5551 44.2401 22.5459 44.2322 22.5249C44.2355 22.4968 44.2165 22.4692 44.1942 22.4555C44.1595 22.4529 44.1326 22.483 44.1202 22.5125C44.1058 22.5164 44.0913 22.521 44.0769 22.5263C44.054 22.5322 44.0219 22.5715 44.0527 22.5865C44.0704 22.5911 44.1235 22.6036 44.0999 22.6278C44.0868 22.6508 44.0612 22.6508 44.0383 22.6449C44.0147 22.6449 43.9891 22.6337 43.9898 22.6069C43.9852 22.5826 43.9858 22.5571 43.9747 22.5348C43.9701 22.5079 43.9393 22.5138 43.9373 22.5387C43.9137 22.5557 43.917 22.5839 43.9334 22.6042C43.9439 22.6278 43.9334 22.6547 43.9236 22.6763C43.9177 22.7045 43.8862 22.7052 43.8646 22.7143C43.8535 22.7183 43.8122 22.7117 43.8272 22.7353C43.8515 22.7438 43.8803 22.7517 43.9059 22.7451C43.9321 22.7419 43.955 22.7235 43.9681 22.7012C43.9858 22.6835 44.0166 22.6927 44.0396 22.6921C44.0645 22.6921 44.09 22.7098 44.1136 22.698C44.1208 22.6796 44.1529 22.6501 44.1628 22.6809C44.1608 22.7084 44.1857 22.7235 44.2113 22.7202C44.2388 22.7189 44.229 22.7399 44.2283 22.7563C44.2303 22.7864 44.2493 22.8022 44.2748 22.8146C44.2834 22.8172 44.2925 22.8159 44.3011 22.8146C44.3253 22.8067 44.3509 22.7963 44.3581 22.7694C44.3679 22.7478 44.3679 22.7229 44.3751 22.6999C44.381 22.6639 44.3882 22.6272 44.3889 22.5905C44.398 22.5571 44.3954 22.5217 44.402 22.4882C44.4059 22.4633 44.4092 22.4378 44.4118 22.4129C44.4092 22.3998 44.4033 22.3972 44.3954 22.3998L44.3967 22.4004ZM44.1785 22.5341C44.1831 22.5341 44.1864 22.5407 44.1864 22.5512C44.1864 22.563 44.1929 22.5721 44.2001 22.5741C44.206 22.5754 44.2054 22.582 44.1988 22.5859C44.1949 22.5885 44.1883 22.5898 44.1765 22.5898C44.1582 22.5898 44.1464 22.5852 44.1366 22.5748L44.1307 22.5689L44.1398 22.563C44.1444 22.5597 44.1529 22.5525 44.1582 22.5466C44.1674 22.5374 44.1733 22.5328 44.1785 22.5335V22.5341Z" fill="#C09300"/>
<path d="M46.3024 22.2805C46.2841 22.2812 46.2657 22.2844 46.2494 22.2884C46.2159 22.2864 46.1989 22.3211 46.231 22.3388C46.2507 22.388 46.2808 22.3283 46.3116 22.3329C46.3581 22.3421 46.3621 22.3919 46.3686 22.4293C46.3712 22.4666 46.3817 22.5027 46.3929 22.538C46.4237 22.5721 46.3699 22.5938 46.3463 22.5669C46.3267 22.5453 46.2847 22.519 46.2611 22.5485C46.2323 22.561 46.231 22.5996 46.2068 22.6108C46.1681 22.6226 46.1628 22.5747 46.1425 22.5544C46.1235 22.5282 46.0875 22.5256 46.058 22.5164C46.0442 22.4882 46.0514 22.4411 46.0226 22.4221C45.9984 22.4319 45.9545 22.4771 45.9912 22.4974C46.0272 22.5282 45.9754 22.5426 45.959 22.5636C45.9354 22.5898 45.9315 22.6259 45.9276 22.6593C45.887 22.6816 45.8791 22.6337 45.8745 22.6042C45.8712 22.5682 45.8411 22.5787 45.8201 22.5924C45.7893 22.6049 45.7742 22.6337 45.7526 22.6567C45.75 22.6776 45.7539 22.7006 45.7539 22.7222C45.7611 22.7484 45.7926 22.736 45.8122 22.734C45.8437 22.7209 45.8568 22.7543 45.8312 22.7733C45.8142 22.7949 45.7598 22.7838 45.7651 22.8185C45.7828 22.8205 45.8004 22.8198 45.8181 22.8185C45.8535 22.8087 45.8909 22.7845 45.8948 22.7451C45.8994 22.7111 45.9486 22.7176 45.9754 22.7097C46.0088 22.6999 46.0495 22.6973 46.0567 22.7399C46.0796 22.7641 46.1288 22.791 46.1543 22.7582C46.1799 22.7425 46.1923 22.715 46.1904 22.6862C46.1851 22.6606 46.231 22.6599 46.2428 22.6744C46.2598 22.7019 46.3123 22.694 46.3372 22.6783C46.364 22.6586 46.3699 22.6232 46.4086 22.6232C46.4656 22.6062 46.5252 22.5964 46.5816 22.5747C46.6268 22.5649 46.5751 22.5361 46.5633 22.5197C46.5285 22.5027 46.4984 22.5728 46.4597 22.538C46.4296 22.5151 46.4315 22.4712 46.4204 22.4378C46.4125 22.3939 46.4145 22.3441 46.383 22.3093C46.3614 22.2864 46.3319 22.2805 46.3018 22.2825L46.3024 22.2805ZM46.0836 22.5852C46.0875 22.5852 46.0921 22.5872 46.0999 22.5911C46.1144 22.599 46.1242 22.6121 46.1242 22.6226C46.1242 22.6291 46.1222 22.6298 46.1124 22.6344C46.1058 22.637 46.0986 22.6403 46.096 22.6403C46.0901 22.6403 46.0757 22.6285 46.0757 22.6239C46.0757 22.6219 46.0737 22.6147 46.0718 22.6088C46.0678 22.5983 46.0685 22.5983 46.0737 22.5918C46.077 22.5872 46.0796 22.5846 46.0836 22.5846V22.5852ZM46.2939 22.5964C46.3057 22.5957 46.3129 22.5996 46.3182 22.6082C46.3241 22.6187 46.3201 22.6272 46.3051 22.6331C46.2985 22.6357 46.2919 22.6383 46.2913 22.6383C46.29 22.6383 46.2847 22.635 46.2795 22.6311C46.271 22.6252 46.2697 22.6226 46.2697 22.616C46.2697 22.6062 46.2808 22.597 46.2946 22.5957L46.2939 22.5964ZM46.0062 22.5996C46.0095 22.5996 46.0128 22.601 46.0174 22.6049C46.0233 22.6101 46.0252 22.6141 46.0265 22.6239C46.0279 22.6311 46.0272 22.6403 46.0265 22.6442C46.0252 22.6514 46.0246 22.6514 46.0082 22.6514C45.9879 22.6514 45.9859 22.6495 45.9859 22.6304C45.9859 22.618 45.9859 22.6154 45.9931 22.6082C45.9984 22.6029 46.0029 22.601 46.0062 22.6003V22.5996ZM45.8293 22.6462C45.8358 22.6475 45.8417 22.6527 45.843 22.6599C45.845 22.6704 45.843 22.675 45.8352 22.6789C45.828 22.6829 45.8116 22.6835 45.807 22.6809C45.8057 22.6803 45.8024 22.6776 45.8011 22.675C45.7991 22.6711 45.7991 22.6691 45.8024 22.6671C45.8044 22.6658 45.8063 22.6632 45.8063 22.6619C45.8063 22.6606 45.8083 22.6567 45.8116 22.6527C45.8162 22.6462 45.8234 22.6442 45.8299 22.6455L45.8293 22.6462ZM46.1268 22.6842C46.1327 22.6842 46.1373 22.6862 46.1406 22.6894C46.1465 22.6947 46.1465 22.7025 46.1393 22.7078C46.1347 22.7111 46.1111 22.7111 46.1032 22.7078C46.0993 22.7065 46.098 22.7045 46.098 22.7006C46.098 22.696 46.0993 22.6934 46.1071 22.6894C46.1137 22.6862 46.1203 22.6842 46.1261 22.6842H46.1268Z" fill="#C09300"/>
<path d="M45.5744 22.8388C45.5744 22.8388 45.5666 22.8349 45.5711 22.8316C45.5764 22.8218 45.5875 22.8185 45.5974 22.8152C45.615 22.8074 45.6301 22.7949 45.6413 22.7792C45.6426 22.7687 45.655 22.7628 45.655 22.7517C45.655 22.7366 45.6563 22.7209 45.6524 22.7058C45.6485 22.692 45.638 22.6816 45.6255 22.6743C45.617 22.6678 45.6039 22.6658 45.6006 22.6547C45.5987 22.6435 45.6085 22.635 45.6124 22.6252C45.6196 22.6114 45.6255 22.5977 45.6334 22.5839C45.6419 22.5747 45.6544 22.5839 45.659 22.5924C45.6649 22.6016 45.6707 22.6108 45.6734 22.6213C45.6832 22.6317 45.6917 22.6442 45.695 22.6586C45.6996 22.6684 45.7074 22.6783 45.7068 22.6894C45.7068 22.7025 45.7147 22.715 45.714 22.7281C45.714 22.7458 45.714 22.7648 45.7081 22.7818C45.7035 22.791 45.6943 22.7969 45.6884 22.8054C45.678 22.8146 45.6668 22.8238 45.6537 22.829C45.6445 22.8323 45.6393 22.8428 45.6275 22.8401C45.6111 22.8401 45.5941 22.8428 45.5777 22.8401C45.579 22.8421 45.5725 22.8375 45.5738 22.8382L45.5744 22.8388Z" fill="#C09300"/>
<path d="M45.3543 22.8533C45.3464 22.8454 45.3451 22.8421 45.3445 22.8343C45.3445 22.8264 45.3458 22.8231 45.3537 22.8153C45.3681 22.8008 45.3746 22.8008 45.3989 22.8133C45.4218 22.8251 45.4297 22.8264 45.4323 22.8179C45.4343 22.81 45.4474 22.8022 45.4605 22.8022C45.4683 22.8022 45.4729 22.8035 45.4795 22.8087C45.4873 22.8153 45.488 22.8159 45.488 22.8303C45.488 22.8454 45.488 22.8461 45.4788 22.8539C45.4697 22.8618 45.4683 22.8624 45.4572 22.8611C45.4434 22.8598 45.4349 22.8533 45.4323 22.8421C45.4303 22.8343 45.4277 22.8323 45.4257 22.8375C45.4251 22.8395 45.4218 22.8415 45.4179 22.8421C45.4113 22.8441 45.4002 22.8506 45.3923 22.8585C45.389 22.8611 45.3838 22.8624 45.3759 22.8624C45.3648 22.8624 45.3628 22.8624 45.3543 22.8526V22.8533Z" fill="#C09300"/>
<path d="M44.7165 22.5669C44.6949 22.5669 44.672 22.5852 44.6693 22.6062C44.6739 22.6304 44.6942 22.654 44.6811 22.6796C44.6903 22.7124 44.6569 22.7248 44.6339 22.7058C44.6202 22.6744 44.613 22.6403 44.5927 22.6121C44.5671 22.6049 44.5553 22.6462 44.5376 22.6606C44.5468 22.6848 44.573 22.7065 44.5756 22.7373C44.5822 22.7668 44.5638 22.7995 44.5383 22.8146C44.516 22.8356 44.4858 22.8284 44.459 22.8329C44.4262 22.8519 44.4832 22.8592 44.4983 22.8598C44.5317 22.8631 44.5671 22.8585 44.592 22.8336C44.6169 22.8218 44.6149 22.7792 44.6444 22.7746C44.6955 22.7727 44.746 22.7825 44.7971 22.7838C44.8246 22.7903 44.8666 22.7805 44.8856 22.8008C44.8856 22.8362 44.9157 22.8585 44.9446 22.8723C44.9603 22.8769 44.9773 22.8565 44.9937 22.8533C45.0245 22.8434 45.0153 22.8048 45.0337 22.7897C45.0868 22.7871 45.1405 22.7877 45.1936 22.7864C45.2034 22.7864 45.2067 22.772 45.2139 22.7661C45.2126 22.7458 45.2119 22.7255 45.2087 22.7045C45.1982 22.6783 45.2106 22.6449 45.1916 22.6232C45.1648 22.616 45.1425 22.6403 45.115 22.6422C45.0855 22.6553 45.0599 22.6829 45.0586 22.7163C45.0409 22.7451 45.0127 22.7111 45.0226 22.6875C45.0212 22.677 45.0245 22.6645 45.0212 22.6553C45.0049 22.6357 44.9767 22.6422 44.9537 22.639C44.921 22.6403 44.8889 22.6331 44.8561 22.6337C44.8273 22.6318 44.7978 22.6363 44.7696 22.6285C44.7362 22.6278 44.7408 22.5951 44.7355 22.5721C44.7296 22.5675 44.7224 22.5662 44.7152 22.5662L44.7165 22.5669ZM44.7807 22.6855C44.7919 22.6855 44.8024 22.6875 44.8128 22.6888C44.8266 22.6907 44.8417 22.6842 44.8548 22.6888C44.8862 22.694 44.9177 22.6927 44.9492 22.696C44.9577 22.696 44.9636 22.7019 44.9695 22.7071C44.9695 22.7294 44.9695 22.7517 44.9695 22.7733C44.9688 22.7818 44.9721 22.7923 44.9642 22.7982C44.9616 22.8002 44.959 22.8015 44.9564 22.8021C44.9478 22.8002 44.9387 22.7943 44.9341 22.7858C44.9328 22.774 44.9341 22.7628 44.9354 22.7517C44.9354 22.7484 44.9367 22.7438 44.9354 22.7419C44.9288 22.7373 44.921 22.734 44.9125 22.734C44.8849 22.7333 44.8581 22.7314 44.8312 22.7301C44.8083 22.7287 44.7853 22.732 44.763 22.7261C44.7545 22.7228 44.7434 22.7242 44.7381 22.715C44.7309 22.7065 44.7414 22.696 44.7493 22.692C44.7598 22.6875 44.7703 22.6855 44.7814 22.6861L44.7807 22.6855ZM45.1438 22.6934C45.149 22.6934 45.1503 22.6947 45.153 22.7045C45.1543 22.7104 45.1562 22.7176 45.1569 22.7209C45.1582 22.7248 45.1562 22.7261 45.151 22.7281C45.1353 22.734 45.1195 22.7333 45.1136 22.7261C45.111 22.7228 45.1136 22.7124 45.1189 22.7078C45.1281 22.6993 45.1385 22.694 45.1438 22.694V22.6934Z" fill="#C09300"/>
<path d="M44.9997 20.8748C46.0495 20.0675 45.9591 18.8846 45.9591 18.8846C45.9316 18.8898 45.9054 18.8931 45.8772 18.8931C45.657 18.8931 45.1321 18.7673 45.0095 18.6074C44.8784 18.7522 44.3417 18.8931 44.1229 18.8931C44.0953 18.8931 44.0671 18.8905 44.0409 18.8846C44.0409 18.8846 43.9498 20.0675 44.999 20.8748H44.9997Z" fill="white"/>
<path d="M44.9996 20.8984L44.9885 20.8899C43.9426 20.0858 44.0219 18.8957 44.0232 18.8839L44.0245 18.8629L44.0448 18.8675C44.0697 18.8728 44.0959 18.8754 44.1228 18.8754C44.345 18.8754 44.8699 18.7345 44.9957 18.5956L45.0108 18.5792L45.0245 18.5969C45.1412 18.7496 45.6615 18.8754 45.8778 18.8754C45.904 18.8754 45.9289 18.8728 45.9558 18.8675L45.9761 18.8636L45.9774 18.8846C45.9781 18.8964 46.056 20.0864 45.0108 20.8905L44.9996 20.8991V20.8984ZM44.0586 18.9068C44.0533 19.0667 44.0566 20.1179 44.9996 20.8519C45.9433 20.1179 45.9473 19.0667 45.942 18.9068C45.9204 18.9101 45.8994 18.9121 45.8778 18.9121C45.6655 18.9121 45.1569 18.7935 45.0088 18.6349C44.847 18.7856 44.326 18.9121 44.1228 18.9121C44.1012 18.9121 44.0796 18.9108 44.0586 18.9075V18.9068Z" fill="#C09300"/>
<path d="M45.8752 18.9717C45.866 18.9717 45.8568 18.9724 45.8477 18.9724C45.6478 18.9724 45.1845 18.8702 45.0062 18.7168C44.8188 18.8584 44.3476 18.9724 44.1517 18.9724C44.1425 18.9724 44.1333 18.9711 44.1241 18.9698C44.1241 19.0143 44.1261 19.0609 44.1287 19.1028C44.1392 19.2601 44.1667 19.4187 44.2087 19.5707C44.3411 20.0498 44.6111 20.4567 44.999 20.7654C45.387 20.4561 45.6576 20.0491 45.79 19.5694C45.8319 19.4174 45.8595 19.2588 45.87 19.1015C45.8726 19.0602 45.8752 19.015 45.8745 18.9711L45.8752 18.9717Z" fill="white"/>
<path d="M44.999 20.7844L44.9898 20.7772C44.6012 20.4678 44.326 20.0517 44.1949 19.5746C44.1516 19.418 44.1248 19.2601 44.1143 19.1034C44.1123 19.0694 44.109 19.0182 44.1097 18.9691V18.9514L44.1267 18.9547C44.1359 18.9566 44.1438 18.9573 44.1516 18.9573C44.3489 18.9573 44.8162 18.8413 44.9977 18.7043L45.0069 18.6971L45.016 18.705C45.1956 18.859 45.6635 18.9573 45.8483 18.9573C45.8568 18.9573 45.866 18.9573 45.8745 18.9566H45.8902V18.9711C45.8902 19.0182 45.8876 19.0661 45.8857 19.1028C45.8752 19.2587 45.8483 19.4173 45.805 19.5733C45.6733 20.051 45.3981 20.4672 45.0088 20.7765L44.9996 20.7837L44.999 20.7844ZM44.1385 18.9861C44.1385 19.0287 44.1412 19.072 44.1431 19.1015C44.153 19.2555 44.1798 19.4121 44.2224 19.5668C44.3535 20.0406 44.6143 20.4377 44.9983 20.747C45.383 20.4377 45.6445 20.0406 45.7756 19.5661C45.8182 19.4114 45.845 19.2555 45.8555 19.1015C45.8575 19.0694 45.8601 19.0287 45.8601 18.9874C45.8562 18.9874 45.8516 18.9874 45.8476 18.9874C45.6569 18.9874 45.1982 18.8918 45.0055 18.7358C44.8109 18.8754 44.3541 18.9874 44.1516 18.9874C44.1477 18.9874 44.1431 18.9874 44.1392 18.9874L44.1385 18.9861Z" fill="#C09300"/>
<path d="M44.6582 18.8747C44.4695 18.9344 44.265 18.9724 44.1516 18.9724C44.1425 18.9724 44.1333 18.9711 44.1248 18.9691C44.1248 19.0137 44.1267 19.0609 44.13 19.1028C44.1405 19.2601 44.1674 19.418 44.2093 19.57C44.2984 19.8925 44.4505 20.1821 44.6582 20.4312V18.8747Z" fill="#C09300"/>
<path d="M45.3214 18.8715V20.4554C45.5396 20.2005 45.6989 19.9023 45.7906 19.5687C45.8326 19.4167 45.8594 19.2588 45.8699 19.1015C45.8725 19.0602 45.8752 19.015 45.8752 18.9711C45.866 18.9711 45.8575 18.9724 45.8483 18.9724C45.7284 18.9724 45.5134 18.935 45.3214 18.8721V18.8715Z" fill="#C09300"/>
<path d="M45.3962 18.4907C45.4178 18.492 45.3674 18.376 45.3674 18.376C45.4244 18.4343 45.6387 18.4481 45.6387 18.4481C45.5102 18.3911 45.3818 17.9625 45.3969 17.6211C45.4106 17.2783 45.3477 17.1433 45.2973 17.0929C45.233 17.0286 45.0259 16.9716 44.8903 16.9644C44.8136 16.9605 44.8261 17.0228 44.8261 17.0228C44.6839 16.9861 44.541 16.9723 44.4768 17.0149C44.4165 17.0555 44.4034 17.2567 44.4479 17.222C44.5554 17.1361 44.6485 17.2141 44.7127 17.3078C44.7697 17.3897 44.7658 17.6217 44.6839 17.893C44.598 18.1781 44.3634 18.4632 44.3634 18.4632C44.4905 18.4632 44.6701 18.3498 44.6701 18.3498L44.6275 18.5274C44.7625 18.4632 44.8693 18.3636 44.8693 18.3636L44.9978 18.4986C45.0404 18.4415 45.1262 18.3636 45.1262 18.3636C45.1262 18.3636 45.2337 18.4769 45.3975 18.492L45.3962 18.4907Z" fill="white"/>
<path d="M44.5967 18.5615L44.6386 18.3885C44.577 18.4226 44.4571 18.4815 44.3621 18.4815H44.3208L44.347 18.4494C44.347 18.4494 44.5803 18.1644 44.6635 17.8865C44.7481 17.606 44.7435 17.3884 44.695 17.3183C44.659 17.2659 44.6032 17.2043 44.5397 17.2043C44.5128 17.2043 44.4859 17.2154 44.4584 17.2371C44.4512 17.243 44.444 17.2456 44.4368 17.2456C44.4302 17.2456 44.4132 17.243 44.4053 17.2167C44.3909 17.1689 44.4093 17.0352 44.4643 16.9985C44.5233 16.9592 44.6465 16.9599 44.8057 16.9979C44.8077 16.9887 44.8116 16.9789 44.8189 16.9703C44.8339 16.952 44.8569 16.9435 44.8903 16.9454C45.0331 16.9533 45.2429 17.0123 45.3104 17.0798C45.3661 17.1355 45.4296 17.2751 45.4159 17.6231C45.4001 17.9737 45.5345 18.3819 45.6465 18.4317L45.6374 18.4691C45.6197 18.4678 45.4906 18.4586 45.4073 18.4245C45.4283 18.4842 45.4204 18.496 45.4172 18.5012C45.4126 18.5078 45.4054 18.5117 45.3975 18.5117C45.2592 18.4992 45.1609 18.4219 45.1262 18.3904C45.1006 18.4147 45.0449 18.4691 45.0135 18.5104L44.9997 18.5287L44.868 18.3911C44.8339 18.4206 44.7441 18.494 44.6354 18.5458L44.598 18.5635L44.5967 18.5615ZM44.6989 18.3059L44.655 18.4894C44.7677 18.4285 44.8536 18.3485 44.8549 18.3478L44.8693 18.3347L44.9958 18.4671C45.041 18.4127 45.1092 18.3505 45.1124 18.3472L45.1269 18.3341L45.14 18.3478C45.14 18.3478 45.2363 18.4481 45.3805 18.4684C45.3759 18.4481 45.3628 18.4127 45.3497 18.3832L45.3818 18.3616C45.4126 18.3931 45.5056 18.4121 45.5758 18.4212C45.4598 18.2882 45.3641 17.9219 45.3772 17.6191C45.3916 17.2685 45.3248 17.1466 45.2835 17.1053C45.2232 17.045 45.022 16.99 44.889 16.9821H44.8837C44.8726 16.9821 44.8575 16.9841 44.8503 16.9926C44.8424 17.0018 44.8451 17.0162 44.8451 17.0162L44.8516 17.047L44.8215 17.0391C44.6662 16.9992 44.5384 16.9952 44.4879 17.0287C44.4709 17.0398 44.4551 17.0745 44.4466 17.1191C44.4401 17.1551 44.4407 17.184 44.4433 17.1984C44.539 17.1283 44.6386 17.1624 44.7291 17.2941C44.7926 17.3865 44.7822 17.6335 44.7029 17.8957C44.634 18.125 44.4728 18.3505 44.4073 18.4363C44.522 18.4167 44.6583 18.3308 44.6596 18.3302L44.7002 18.3039L44.6989 18.3059Z" fill="#C09300"/>
<path d="M44.684 18.3622L44.6538 18.3347C44.7829 18.1912 44.855 17.6722 44.8557 17.6676L44.8963 17.6728C44.893 17.6945 44.8222 18.2089 44.6846 18.3622H44.684Z" fill="#C09300"/>
<path d="M44.8858 18.3721L44.8497 18.3524C44.9395 18.1873 44.9683 17.6604 44.9683 17.6552L45.009 17.6571C45.0077 17.6794 44.9801 18.1984 44.8858 18.3721Z" fill="#C09300"/>
<path d="M45.1059 18.3695C45.0699 18.2679 45.0692 17.7023 45.0692 17.6781H45.1098C45.1098 17.84 45.1157 18.2771 45.1439 18.3557L45.1053 18.3695H45.1059Z" fill="#C09300"/>
<path d="M45.3496 18.3878C45.2271 18.2076 45.1976 17.7285 45.1963 17.7082L45.2369 17.7056C45.2369 17.7102 45.2671 18.1938 45.3837 18.3649L45.3496 18.3878Z" fill="#C09300"/>
<path d="M44.7456 17.4139C44.7391 17.3674 44.7279 17.3307 44.7115 17.3065C44.6473 17.2134 44.5543 17.1348 44.4468 17.2206C44.4468 17.2206 44.4835 17.1072 44.5615 17.1033C44.6218 17.0994 44.7594 17.1485 44.8806 17.3556C44.8806 17.3556 44.7908 17.3353 44.7699 17.3543C44.7292 17.3897 44.7456 17.4133 44.7456 17.4133V17.4139Z" fill="#C09300"/>
<path d="M44.7409 17.4173C44.7409 17.4173 44.735 17.4087 44.737 17.3956C44.7304 17.3583 44.72 17.3294 44.7069 17.3104C44.6223 17.1879 44.5352 17.1584 44.4506 17.2259L44.4355 17.2377L44.4414 17.22C44.4428 17.2154 44.4801 17.1027 44.5614 17.0988C44.5633 17.0988 44.566 17.0988 44.5679 17.0988C44.6453 17.0988 44.775 17.1656 44.8851 17.3537L44.8917 17.3648L44.8786 17.3622C44.8786 17.3622 44.8373 17.353 44.8052 17.353C44.7848 17.353 44.7763 17.357 44.7724 17.3596C44.758 17.372 44.7495 17.3845 44.7475 17.3956C44.7488 17.4015 44.7495 17.4074 44.7501 17.4133L44.7396 17.4173H44.7409ZM44.5397 17.1787C44.5994 17.1787 44.659 17.2207 44.716 17.3039C44.7278 17.3216 44.7377 17.3452 44.7442 17.3753C44.7488 17.3675 44.756 17.3589 44.7658 17.3511C44.773 17.3445 44.7862 17.3419 44.8058 17.3419C44.8281 17.3419 44.8543 17.3458 44.8694 17.3491C44.7291 17.1171 44.585 17.1106 44.5686 17.1106C44.5666 17.1106 44.5646 17.1106 44.5627 17.1106C44.5076 17.1132 44.4736 17.1748 44.4598 17.2062C44.4867 17.1886 44.5135 17.18 44.5404 17.18L44.5397 17.1787Z" fill="#C09300"/>
<path d="M44.4356 17.0811C44.4441 17.0523 44.4585 17.0254 44.4762 17.0143C44.5405 16.9717 44.6833 16.9854 44.8255 17.0221C44.8255 17.0221 44.8131 16.9605 44.8898 16.9638C45.0261 16.9717 45.2325 17.028 45.2967 17.0922C45.3118 17.1086 45.3295 17.1329 45.3446 17.1689H45.3419C45.3105 17.125 45.2207 17.1276 45.1997 17.1296C45.1656 17.1335 45.144 17.1322 45.0988 17.1434C45.0772 17.1486 45.0444 17.1545 45.0267 17.1683C45.013 17.1794 45.0018 17.2213 44.9802 17.2213C44.9461 17.2213 44.9487 17.2128 44.9396 17.2023C44.9284 17.1886 44.9219 17.1683 44.9107 17.1696C44.8753 17.1761 44.819 17.1479 44.7469 17.0916C44.6748 17.0346 44.6473 17.0208 44.5542 17.0274C44.4625 17.0352 44.433 17.0863 44.433 17.0863L44.4356 17.0798V17.0811Z" fill="#C09300"/>
<path d="M44.9802 17.2279C44.952 17.2279 44.9461 17.222 44.9395 17.2122C44.9382 17.2102 44.9376 17.2089 44.9356 17.2069C44.9317 17.2017 44.9284 17.1964 44.9251 17.1912C44.9205 17.184 44.916 17.1761 44.912 17.1761C44.8753 17.182 44.8183 17.1558 44.7436 17.0968C44.6846 17.0503 44.6558 17.0326 44.5909 17.0326C44.5804 17.0326 44.5686 17.0326 44.5549 17.0339C44.4677 17.0411 44.4389 17.0896 44.4382 17.0903L44.4277 17.0857L44.4304 17.0791C44.4363 17.0601 44.45 17.0247 44.473 17.0097C44.5005 16.9913 44.5424 16.9821 44.5975 16.9821C44.6578 16.9821 44.7344 16.9933 44.8183 17.0142C44.8183 17.0051 44.8196 16.99 44.8295 16.9782C44.8412 16.9638 44.8609 16.9566 44.8891 16.9585C45.0293 16.9664 45.2351 17.0234 45.3 17.089C45.3203 17.1106 45.336 17.1368 45.3491 17.1676L45.3524 17.1755H45.3386L45.3367 17.1728C45.3124 17.1388 45.2495 17.1348 45.2233 17.1348C45.2102 17.1348 45.2017 17.1355 45.1997 17.1361C45.1905 17.1374 45.182 17.1381 45.1735 17.1388C45.1519 17.1407 45.1322 17.142 45.0995 17.1499L45.0922 17.1519C45.0719 17.1565 45.0444 17.163 45.03 17.1741C45.0261 17.1774 45.0215 17.1853 45.0162 17.1938C45.007 17.2102 44.9966 17.2285 44.9795 17.2285L44.9802 17.2279ZM44.912 17.165C44.9225 17.165 44.9284 17.1748 44.935 17.1859C44.9376 17.1905 44.9409 17.1958 44.9441 17.2004C44.9461 17.2023 44.9474 17.2043 44.9487 17.2069C44.9533 17.2135 44.9559 17.2174 44.9802 17.2174C44.9907 17.2174 44.9992 17.2023 45.007 17.1886C45.0123 17.1794 45.0175 17.1702 45.0234 17.1656C45.0405 17.1525 45.0693 17.146 45.0903 17.1407L45.0975 17.1388C45.1309 17.1302 45.1512 17.1289 45.1735 17.127C45.1814 17.127 45.1899 17.1256 45.1991 17.1243C45.2056 17.1237 45.2148 17.123 45.224 17.123C45.2521 17.123 45.298 17.127 45.3288 17.1479C45.3183 17.1283 45.3065 17.1112 45.2928 17.0955C45.2305 17.0332 45.0247 16.9762 44.8891 16.969C44.8655 16.9677 44.8485 16.973 44.8386 16.9848C44.8268 16.9998 44.8308 17.0201 44.8308 17.0201L44.8327 17.0293L44.8242 17.0273C44.7377 17.0051 44.6597 16.9933 44.5981 16.9933C44.545 16.9933 44.5051 17.0018 44.4795 17.0188C44.4684 17.026 44.4579 17.0411 44.4494 17.0614C44.4677 17.0457 44.5011 17.0267 44.5542 17.0228C44.5686 17.0221 44.5804 17.0215 44.5916 17.0215C44.6597 17.0215 44.6912 17.0411 44.7515 17.0883C44.8222 17.144 44.8779 17.1715 44.9107 17.1656H44.9127L44.912 17.165Z" fill="#C09300"/>
<path d="M44.9624 17.1643C44.9834 17.1643 45.0005 17.1473 45.0005 17.1263C45.0005 17.1053 44.9834 17.0883 44.9624 17.0883C44.9415 17.0883 44.9244 17.1053 44.9244 17.1263C44.9244 17.1473 44.9415 17.1643 44.9624 17.1643Z" fill="white"/>
<path d="M23.856 21.752C23.9627 21.752 24.016 21.8053 24.016 21.912V22.84C24.016 22.9467 23.9627 23 23.856 23H18.864C18.5333 23 18.2987 23.0907 18.16 23.272C18.032 23.4533 17.968 23.6773 17.968 23.944C17.968 24.2853 18.0587 24.536 18.24 24.696C18.432 24.856 18.8 24.936 19.344 24.936H20.88C20.9867 24.936 21.04 24.9893 21.04 25.096V26.024C21.04 26.1307 20.9867 26.184 20.88 26.184H19.232C18.4107 26.184 17.7653 26.008 17.296 25.656C16.8267 25.304 16.592 24.744 16.592 23.976C16.592 23.6133 16.64 23.2987 16.736 23.032C16.8427 22.776 16.976 22.5627 17.136 22.392C17.3067 22.2213 17.4933 22.088 17.696 21.992C17.9093 21.896 18.1227 21.832 18.336 21.8C18.08 21.544 17.8613 21.2293 17.68 20.856C17.5093 20.4827 17.424 20.024 17.424 19.48C17.424 19.1493 17.472 18.792 17.568 18.408C17.664 18.0133 17.84 17.6507 18.096 17.32C18.352 16.9893 18.6987 16.7173 19.136 16.504C19.584 16.28 20.1547 16.168 20.848 16.168C21.4773 16.168 22.0213 16.2853 22.48 16.52C22.9387 16.744 23.3067 17.0587 23.584 17.464C23.6373 17.5493 23.6213 17.624 23.536 17.688L22.832 18.264C22.7467 18.328 22.672 18.3227 22.608 18.248C22.128 17.6933 21.5253 17.416 20.8 17.416C20.1387 17.416 19.648 17.6133 19.328 18.008C19.008 18.392 18.848 18.8773 18.848 19.464C18.848 19.8587 18.912 20.1947 19.04 20.472C19.168 20.7493 19.312 20.9787 19.472 21.16C19.6427 21.3413 19.8133 21.48 19.984 21.576C20.1547 21.6613 20.288 21.72 20.384 21.752H23.856Z" fill="#067EDA"/>
</svg>
