<svg width="108" height="40" viewBox="0 0 108 40" fill="none" xmlns="http://www.w3.org/2000/svg">
<rect width="108" height="40" rx="20" fill="white"/>
<path d="M17.344 14.28C17.344 14.1733 17.3973 14.12 17.504 14.12H24.048C24.1547 14.12 24.208 14.1733 24.208 14.28V15.288C24.208 15.3947 24.1547 15.448 24.048 15.448H18.864C18.8 15.448 18.768 15.48 18.768 15.544V18.744C18.768 18.808 18.8 18.84 18.864 18.84H23.264C23.3707 18.84 23.424 18.8933 23.424 19V20.008C23.424 20.1147 23.3707 20.168 23.264 20.168H18.864C18.8 20.168 18.768 20.2 18.768 20.264V23.576C18.768 23.64 18.8 23.672 18.864 23.672H24.048C24.1547 23.672 24.208 23.7253 24.208 23.832V24.84C24.208 24.9467 24.1547 25 24.048 25H17.504C17.3973 25 17.344 24.9467 17.344 24.84V14.28ZM31.3036 25C31.197 25 31.1436 24.9467 31.1436 24.84V20.36C31.1436 19.7413 30.9996 19.2613 30.7116 18.92C30.4343 18.5787 30.0076 18.408 29.4316 18.408C28.909 18.408 28.4823 18.5787 28.1516 18.92C27.8316 19.2507 27.6716 19.704 27.6716 20.28V24.84C27.6716 24.9467 27.6183 25 27.5116 25H26.4876C26.381 25 26.3276 24.9467 26.3276 24.84V17.496C26.3276 17.3893 26.381 17.336 26.4876 17.336H27.5116C27.6183 17.336 27.6716 17.3893 27.6716 17.496V18.2H27.6876C27.869 17.9013 28.141 17.656 28.5036 17.464C28.8663 17.2613 29.309 17.16 29.8316 17.16C30.6636 17.16 31.3143 17.4213 31.7836 17.944C32.253 18.4667 32.4876 19.1653 32.4876 20.04V24.84C32.4876 24.9467 32.4343 25 32.3276 25H31.3036ZM37.5268 28.056C36.9828 28.056 36.4654 27.9493 35.9748 27.736C35.4948 27.5333 35.1268 27.2613 34.8708 26.92C34.8068 26.8453 34.8121 26.7707 34.8868 26.696L35.5428 26.04C35.6174 25.9653 35.6974 25.9653 35.7828 26.04C36.0494 26.2853 36.3214 26.472 36.5988 26.6C36.8868 26.7387 37.2174 26.808 37.5908 26.808C38.2308 26.808 38.7108 26.6373 39.0308 26.296C39.3614 25.9653 39.5268 25.448 39.5268 24.744V23.848H39.5108C39.3294 24.168 39.0681 24.424 38.7268 24.616C38.3961 24.808 37.9481 24.904 37.3828 24.904C36.7321 24.904 36.1881 24.7493 35.7508 24.44C35.3134 24.12 34.9988 23.656 34.8068 23.048C34.7108 22.76 34.6414 22.4667 34.5988 22.168C34.5668 21.8587 34.5508 21.48 34.5508 21.032C34.5508 20.584 34.5668 20.2107 34.5988 19.912C34.6414 19.6027 34.7108 19.304 34.8068 19.016C34.9988 18.408 35.3134 17.9493 35.7508 17.64C36.1881 17.32 36.7321 17.16 37.3828 17.16C37.9481 17.16 38.3961 17.256 38.7268 17.448C39.0681 17.64 39.3294 17.896 39.5108 18.216H39.5268V17.496C39.5268 17.3893 39.5801 17.336 39.6868 17.336H40.7108C40.8174 17.336 40.8708 17.3893 40.8708 17.496V24.664C40.8708 25.7627 40.5828 26.6 40.0068 27.176C39.4414 27.7627 38.6148 28.056 37.5268 28.056ZM37.7188 23.672C38.5401 23.672 39.0841 23.288 39.3508 22.52C39.4148 22.328 39.4574 22.1147 39.4788 21.88C39.5108 21.6453 39.5268 21.3627 39.5268 21.032C39.5268 20.7013 39.5108 20.424 39.4788 20.2C39.4574 19.9653 39.4148 19.7467 39.3508 19.544C39.0841 18.7867 38.5401 18.408 37.7188 18.408C36.9081 18.408 36.3694 18.7867 36.1028 19.544C36.0388 19.7467 35.9908 19.9707 35.9588 20.216C35.9268 20.4507 35.9108 20.7227 35.9108 21.032C35.9108 21.64 35.9748 22.136 36.1028 22.52C36.3694 23.288 36.9081 23.672 37.7188 23.672ZM45.3395 25.08C44.6675 25.08 44.1875 24.92 43.8995 24.6C43.6115 24.2693 43.4675 23.7573 43.4675 23.064V14.28C43.4675 14.1733 43.5208 14.12 43.6275 14.12H44.6515C44.7582 14.12 44.8115 14.1733 44.8115 14.28V22.984C44.8115 23.304 44.8702 23.528 44.9875 23.656C45.1155 23.7733 45.3128 23.832 45.5795 23.832H45.8835C45.9902 23.832 46.0435 23.8853 46.0435 23.992V24.92C46.0435 25.0267 45.9902 25.08 45.8835 25.08H45.3395ZM48.065 15.608C47.9583 15.608 47.905 15.5547 47.905 15.448V14.28C47.905 14.1733 47.9583 14.12 48.065 14.12H49.153C49.2597 14.12 49.313 14.1733 49.313 14.28V15.448C49.313 15.5547 49.2597 15.608 49.153 15.608H48.065ZM48.097 25C47.9903 25 47.937 24.9467 47.937 24.84V17.496C47.937 17.3893 47.9903 17.336 48.097 17.336H49.121C49.2277 17.336 49.281 17.3893 49.281 17.496V24.84C49.281 24.9467 49.2277 25 49.121 25H48.097ZM54.5458 25.176C54.1724 25.176 53.8258 25.1387 53.5058 25.064C53.1858 25 52.8924 24.9147 52.6258 24.808C52.3698 24.6907 52.1351 24.568 51.9218 24.44C51.7191 24.3013 51.5378 24.1627 51.3778 24.024C51.3031 23.9493 51.3031 23.8747 51.3778 23.8L52.0338 23.096C52.1084 23.0213 52.1831 23.0213 52.2578 23.096C52.5458 23.3413 52.8924 23.5493 53.2978 23.72C53.7138 23.8907 54.1564 23.976 54.6258 23.976C55.1911 23.976 55.6124 23.8693 55.8898 23.656C56.1671 23.432 56.3058 23.1493 56.3058 22.808C56.3058 22.5093 56.2044 22.2747 56.0018 22.104C55.8098 21.9227 55.4151 21.8 54.8177 21.736L54.0018 21.656C53.2444 21.5707 52.6738 21.3467 52.2898 20.984C51.9058 20.6213 51.7138 20.1253 51.7138 19.496C51.7138 18.76 51.9591 18.1893 52.4498 17.784C52.9511 17.368 53.6551 17.16 54.5618 17.16C55.1271 17.16 55.6391 17.24 56.0978 17.4C56.5671 17.56 56.9618 17.7627 57.2818 18.008C57.3671 18.0613 57.3778 18.136 57.3138 18.232L56.7698 18.92C56.7058 18.9947 56.6311 19.0053 56.5458 18.952C56.3004 18.792 55.9911 18.648 55.6178 18.52C55.2551 18.392 54.8764 18.328 54.4818 18.328C54.0018 18.328 53.6391 18.4293 53.3938 18.632C53.1484 18.824 53.0258 19.0747 53.0258 19.384C53.0258 19.6933 53.1324 19.9333 53.3458 20.104C53.5591 20.264 53.9538 20.3707 54.5298 20.424L55.3298 20.504C56.1084 20.5787 56.6844 20.8027 57.0578 21.176C57.4418 21.5493 57.6338 22.0453 57.6338 22.664C57.6338 23.4213 57.3671 24.0293 56.8338 24.488C56.3111 24.9467 55.5484 25.176 54.5458 25.176ZM64.7255 25C64.6188 25 64.5655 24.9467 64.5655 24.84V20.36C64.5655 19.7413 64.4215 19.2613 64.1335 18.92C63.8562 18.5787 63.4295 18.408 62.8535 18.408C62.3308 18.408 61.9042 18.5787 61.5735 18.92C61.2535 19.2507 61.0935 19.704 61.0935 20.28V24.84C61.0935 24.9467 61.0402 25 60.9335 25H59.9095C59.8028 25 59.7495 24.9467 59.7495 24.84V14.28C59.7495 14.1733 59.8028 14.12 59.9095 14.12H60.9335C61.0402 14.12 61.0935 14.1733 61.0935 14.28V18.2H61.1095C61.2908 17.9013 61.5628 17.656 61.9255 17.464C62.2882 17.2613 62.7308 17.16 63.2535 17.16C64.0855 17.16 64.7362 17.4213 65.2055 17.944C65.6748 18.4667 65.9095 19.1653 65.9095 20.04V24.84C65.9095 24.9467 65.8562 25 65.7495 25H64.7255Z" fill="#067EDA"/>
<circle cx="88" cy="20" r="12" fill="#F4F4F4"/>
<mask id="mask0_232_864" style="mask-type:luminance" maskUnits="userSpaceOnUse" x="77" y="9" width="22" height="22">
<path d="M87.8898 30.8899C81.8755 30.829 77.0494 25.9041 77.1102 19.8899C77.1711 13.8756 82.096 9.04947 88.1102 9.11035C94.1245 9.17123 98.9506 14.0961 98.8898 20.1104C98.8289 26.1246 93.904 30.9508 87.8898 30.8899Z" fill="white"/>
</mask>
<g mask="url(#mask0_232_864)">
<path d="M74.4731 8.82313H100.822V19.9998H74.4731V8.82313Z" fill="#00008B"/>
<path d="M74.4731 19.9992H100.822V31.3961H74.4731V19.9992Z" fill="#00008B"/>
<mask id="mask1_232_864" style="mask-type:luminance" maskUnits="userSpaceOnUse" x="77" y="9" width="22" height="22">
<path d="M87.8893 30.8899C81.875 30.829 77.0489 25.9041 77.1097 19.8899C77.1706 13.8756 82.0955 9.04945 88.1098 9.11033C94.124 9.17122 98.9502 14.0961 98.8893 20.1103C98.8284 26.1246 93.9035 30.9507 87.8893 30.8899Z" fill="white"/>
</mask>
<g mask="url(#mask1_232_864)">
<path d="M75.9054 29.1904L102.938 12.4224L101.764 9.54684L74.731 26.3148L75.9054 29.1904Z" fill="white"/>
<path d="M75.6852 28.6516L102.718 11.8836L102.375 11.0441L75.3424 27.8121L75.6852 28.6516Z" fill="#FF0000"/>
<path d="M101.764 9.54684L74.731 26.3148L75.9054 29.1904L102.938 12.4224L101.764 9.54684Z" fill="white"/>
<path d="M101.984 10.0868L74.9511 26.8548L75.2938 27.6942L102.326 10.9262L101.984 10.0868Z" fill="#FF0000"/>
<path d="M75.9054 29.1904L102.938 12.4224L101.764 9.54684L74.731 26.3148L75.9054 29.1904Z" fill="white"/>
<path d="M75.6852 28.6516L102.718 11.8836L102.375 11.0441L75.3424 27.8121L75.6852 28.6516Z" fill="#FF0000"/>
<path d="M101.764 9.54684L74.731 26.3148L75.9054 29.1904L102.938 12.4224L101.764 9.54684Z" fill="white"/>
<path d="M101.984 10.0868L74.9511 26.8548L75.2938 27.6942L102.326 10.9262L101.984 10.0868Z" fill="#FF0000"/>
<path d="M75.9054 29.1904L102.938 12.4224L101.764 9.54684L74.731 26.3148L75.9054 29.1904Z" fill="white"/>
<path d="M75.6852 28.6516L102.718 11.8836L102.375 11.0441L75.3424 27.8121L75.6852 28.6516Z" fill="#FF0000"/>
<path d="M73.9059 9.5469L100.938 26.3149L99.7634 29.1905L72.7309 12.4225L73.9059 9.5469Z" fill="white"/>
<path d="M73.6858 10.0868L100.718 26.8548L100.375 27.6943L73.3424 10.9263L73.6858 10.0868Z" fill="#FF0000"/>
<path d="M99.7634 29.1905L72.7309 12.4225L73.9059 9.5469L100.938 26.3149L99.7634 29.1905Z" fill="white"/>
<path d="M99.9837 28.6517L72.9512 11.8837L73.2939 11.0442L100.326 27.8122L99.9837 28.6517Z" fill="#FF0000"/>
<path d="M75.5179 17.8104H100.331V22.0648H75.5179V17.8104Z" fill="white"/>
<path d="M85.871 8.30389H90.0049V31.6816H85.871V8.30389Z" fill="white"/>
<path d="M86.6501 8.30381H89.2262V31.6815H86.6501V8.30381Z" fill="#FF0000"/>
<path d="M75.5179 18.6116H100.331V21.263H75.5179V18.6116Z" fill="#FF0000"/>
</g>
</g>
</svg>
