<svg width="74" height="40" viewBox="0 0 74 40" fill="none" xmlns="http://www.w3.org/2000/svg">
<rect width="74" height="40" rx="20" fill="white"/>
<path d="M17.344 14.28C17.344 14.1733 17.3973 14.12 17.504 14.12H24.048C24.1547 14.12 24.208 14.1733 24.208 14.28V15.288C24.208 15.3947 24.1547 15.448 24.048 15.448H18.864C18.8 15.448 18.768 15.48 18.768 15.544V18.744C18.768 18.808 18.8 18.84 18.864 18.84H23.264C23.3707 18.84 23.424 18.8933 23.424 19V20.008C23.424 20.1147 23.3707 20.168 23.264 20.168H18.864C18.8 20.168 18.768 20.2 18.768 20.264V23.576C18.768 23.64 18.8 23.672 18.864 23.672H24.048C24.1547 23.672 24.208 23.7253 24.208 23.832V24.84C24.208 24.9467 24.1547 25 24.048 25H17.504C17.3973 25 17.344 24.9467 17.344 24.84V14.28ZM31.3036 25C31.197 25 31.1436 24.9467 31.1436 24.84V20.36C31.1436 19.7413 30.9996 19.2613 30.7116 18.92C30.4343 18.5787 30.0076 18.408 29.4316 18.408C28.909 18.408 28.4823 18.5787 28.1516 18.92C27.8316 19.2507 27.6716 19.704 27.6716 20.28V24.84C27.6716 24.9467 27.6183 25 27.5116 25H26.4876C26.381 25 26.3276 24.9467 26.3276 24.84V17.496C26.3276 17.3893 26.381 17.336 26.4876 17.336H27.5116C27.6183 17.336 27.6716 17.3893 27.6716 17.496V18.2H27.6876C27.869 17.9013 28.141 17.656 28.5036 17.464C28.8663 17.2613 29.309 17.16 29.8316 17.16C30.6636 17.16 31.3143 17.4213 31.7836 17.944C32.253 18.4667 32.4876 19.1653 32.4876 20.04V24.84C32.4876 24.9467 32.4343 25 32.3276 25H31.3036Z" fill="#067EDA"/>
<circle cx="54" cy="20" r="12" fill="#F4F4F4"/>
<mask id="mask0_207_378" style="mask-type:luminance" maskUnits="userSpaceOnUse" x="43" y="9" width="22" height="22">
<path d="M53.8898 30.8899C47.8755 30.829 43.0494 25.9041 43.1102 19.8899C43.1711 13.8756 48.096 9.04947 54.1102 9.11035C60.1245 9.17123 64.9506 14.0961 64.8898 20.1104C64.8289 26.1246 59.904 30.9508 53.8898 30.8899Z" fill="white"/>
</mask>
<g mask="url(#mask0_207_378)">
<path d="M40.4731 8.82313H66.822V19.9998H40.4731V8.82313Z" fill="#00008B"/>
<path d="M40.4731 19.9992H66.822V31.3961H40.4731V19.9992Z" fill="#00008B"/>
<mask id="mask1_207_378" style="mask-type:luminance" maskUnits="userSpaceOnUse" x="43" y="9" width="22" height="22">
<path d="M53.8893 30.8899C47.875 30.829 43.0489 25.9041 43.1097 19.8899C43.1706 13.8756 48.0955 9.04945 54.1098 9.11033C60.124 9.17122 64.9502 14.0961 64.8893 20.1103C64.8284 26.1246 59.9035 30.9507 53.8893 30.8899Z" fill="white"/>
</mask>
<g mask="url(#mask1_207_378)">
<path d="M41.9054 29.1904L68.9379 12.4224L67.7635 9.54684L40.731 26.3148L41.9054 29.1904Z" fill="white"/>
<path d="M41.6852 28.6516L68.7177 11.8836L68.3749 11.0441L41.3424 27.8121L41.6852 28.6516Z" fill="#FF0000"/>
<path d="M67.7635 9.54684L40.731 26.3148L41.9054 29.1904L68.9379 12.4224L67.7635 9.54684Z" fill="white"/>
<path d="M67.9836 10.0868L40.9511 26.8548L41.2938 27.6942L68.3263 10.9262L67.9836 10.0868Z" fill="#FF0000"/>
<path d="M41.9054 29.1904L68.9379 12.4224L67.7635 9.54684L40.731 26.3148L41.9054 29.1904Z" fill="white"/>
<path d="M41.6852 28.6516L68.7177 11.8836L68.3749 11.0441L41.3424 27.8121L41.6852 28.6516Z" fill="#FF0000"/>
<path d="M67.7635 9.54684L40.731 26.3148L41.9054 29.1904L68.9379 12.4224L67.7635 9.54684Z" fill="white"/>
<path d="M67.9836 10.0868L40.9511 26.8548L41.2938 27.6942L68.3263 10.9262L67.9836 10.0868Z" fill="#FF0000"/>
<path d="M41.9054 29.1904L68.9379 12.4224L67.7635 9.54684L40.731 26.3148L41.9054 29.1904Z" fill="white"/>
<path d="M41.6852 28.6516L68.7177 11.8836L68.3749 11.0441L41.3424 27.8121L41.6852 28.6516Z" fill="#FF0000"/>
<path d="M39.9059 9.5469L66.9377 26.3149L65.7634 29.1905L38.7309 12.4225L39.9059 9.5469Z" fill="white"/>
<path d="M39.6858 10.0868L66.7183 26.8548L66.3749 27.6943L39.3424 10.9263L39.6858 10.0868Z" fill="#FF0000"/>
<path d="M65.7634 29.1905L38.7309 12.4225L39.9059 9.5469L66.9377 26.3149L65.7634 29.1905Z" fill="white"/>
<path d="M65.9837 28.6517L38.9512 11.8837L39.2939 11.0442L66.3264 27.8122L65.9837 28.6517Z" fill="#FF0000"/>
<path d="M41.5179 17.8104H66.3308V22.0648H41.5179V17.8104Z" fill="white"/>
<path d="M51.871 8.30389H56.0049V31.6816H51.871V8.30389Z" fill="white"/>
<path d="M52.6501 8.30381H55.2262V31.6815H52.6501V8.30381Z" fill="#FF0000"/>
<path d="M41.5179 18.6116H66.3308V21.263H41.5179V18.6116Z" fill="#FF0000"/>
</g>
</g>
</svg>
