<svg width="24" height="10" viewBox="0 0 24 10" fill="none" xmlns="http://www.w3.org/2000/svg">
<path d="M0 10H2.04525V6.41367H5.72147V4.71488H2.04525V1.6968H6.53595V0H0V10Z" fill="#EF3C3B"/>
<path d="M22.8074 8.23564C22.3429 8.27737 21.9226 8.29922 21.5405 8.29922C21.0739 8.29922 20.6938 8.2416 20.4042 8.12239C20.1126 8.00517 19.8894 7.8184 19.7386 7.55613C19.5857 7.29783 19.4811 6.95808 19.4248 6.53884C19.3665 6.11961 19.3384 5.60898 19.3384 5.00497C19.3384 4.40095 19.3665 3.87642 19.4248 3.45718C19.4811 3.03994 19.5877 2.6962 19.7466 2.43394C19.9035 2.16968 20.1247 1.98093 20.4103 1.86767C20.6978 1.75442 21.0679 1.69879 21.5264 1.69879C21.7838 1.69879 22.0593 1.70674 22.357 1.7266C22.6526 1.74647 22.9442 1.7723 23.2278 1.80608C23.5153 1.83787 23.7526 1.87363 23.9437 1.91138L24 0.355653C23.7707 0.30002 23.4972 0.246374 23.1775 0.194715C22.8597 0.143056 22.5279 0.0973574 22.184 0.0596066C21.8401 0.0218558 21.5123 0.00198689 21.1986 0.00198689C20.4163 0.00198689 19.7728 0.101331 19.272 0.30002C18.7712 0.496722 18.3791 0.798728 18.0915 1.20604C17.8059 1.61136 17.6089 2.12597 17.4982 2.75382C17.3896 3.37969 17.3353 4.13074 17.3353 5.00695C17.3353 5.88317 17.3896 6.62229 17.4982 7.24617C17.6089 7.87403 17.8059 8.38863 18.0915 8.79396C18.3791 9.20127 18.7672 9.4993 19.2579 9.69203C19.7486 9.88476 20.3761 9.98212 21.1383 9.98212C21.4822 9.98212 21.8301 9.96622 22.182 9.93443C22.5359 9.90065 22.8698 9.85694 23.1835 9.80528C23.4972 9.75363 23.7707 9.70395 23.998 9.65825L23.9558 8.11643C23.6501 8.15418 23.266 8.19591 22.8054 8.23763L22.8074 8.23564Z" fill="#EF3C3B"/>
<path d="M13.6772 0H10.0332L11.8773 5.48381L13.6772 0Z" fill="#EF3C3B"/>
<path d="M12.8406 7.55017H10.914L8.79437 1.99483H8.58522V10H15.1674V1.99483H14.9603L12.8406 7.55017Z" fill="#EF3C3B"/>
</svg>
