<svg width="166" height="59" viewBox="0 0 166 59" fill="none" xmlns="http://www.w3.org/2000/svg">
<path d="M36.7959 36.0322C34.9116 36.0322 33.3825 37.5547 33.3825 39.4354C33.3825 41.3161 34.9116 42.8386 36.7959 42.8386C38.6801 42.8386 40.2055 41.3161 40.2055 39.4354C40.2055 37.5547 38.6764 36.0322 36.7959 36.0322Z" fill="#EF3C3B"/>
<path d="M45.4022 36.0322C43.518 36.0322 41.9888 37.5547 41.9888 39.4354C41.9888 41.3161 43.518 42.8386 45.4022 42.8386C47.2865 42.8386 48.8119 41.3161 48.8119 39.4354C48.8119 37.5547 47.2828 36.0322 45.4022 36.0322Z" fill="#EF3C3B"/>
<path d="M153.984 6.80641C155.865 6.80641 157.394 5.28392 157.394 3.4032C157.394 1.52249 155.865 0 153.984 0C152.103 0 150.571 1.52249 150.571 3.4032C150.571 5.28392 152.1 6.80641 153.984 6.80641Z" fill="#EF3C3B"/>
<path d="M162.59 0C160.706 0 159.177 1.52249 159.177 3.4032C159.177 5.28392 160.706 6.80641 162.59 6.80641C164.475 6.80641 166 5.28392 166 3.4032C166 1.52249 164.471 0 162.59 0Z" fill="#EF3C3B"/>
<path d="M119.678 31.4535C118.934 30.5841 118.149 29.6773 117.08 29.2743C115.809 28.7966 114.87 29.3601 113.992 30.2184C112.81 31.3752 111.73 32.6514 110.627 33.8865C108.313 36.48 106.043 39.1145 103.815 41.7863C103.564 42.0848 103.307 42.4094 103.25 42.7938C103.161 43.4356 103.789 44.0737 104.432 43.9954C105.023 43.9245 105.43 43.3946 105.808 42.9393C109.064 39.0212 114.911 37.4278 119.764 38.857C120.153 38.9727 120.531 39.1033 120.901 39.2525C124.546 40.7228 126.561 42.9505 129.428 45.7082C129.69 45.9582 129.967 46.2194 130.322 46.3015C130.943 46.447 131.623 45.8836 131.589 45.2492C131.563 44.7678 131.212 44.3723 130.883 44.0215C126.763 39.6518 123.585 36.0098 119.682 31.4461" fill="#EF3C3B"/>
<path d="M113.722 13.18C116.156 13.18 118.134 11.2097 118.134 8.77668C118.134 6.34369 116.156 4.37342 113.722 4.37342C111.289 4.37342 109.307 6.34369 109.307 8.77668C109.307 11.2097 111.285 13.18 113.722 13.18Z" fill="#EF3C3B"/>
<path d="M101.37 15.001C101.295 15.0532 104.383 19.1468 104.574 19.3893C106.365 21.6768 108.212 23.8896 110.275 25.9382C111.333 26.9868 112.627 28.3488 114.246 28.2929C115.345 28.2556 116.351 27.1995 117.072 26.4719C119.11 24.412 120.945 22.1507 122.841 19.964C124.875 17.6168 126.894 15.2584 128.92 12.9038C129.47 12.2657 130.027 11.6351 130.565 10.9895C131.93 9.35508 133.339 7.76169 134.73 6.14965C134.745 6.13472 134.756 6.11607 134.767 6.09741C134.954 5.92575 135.074 5.6832 135.074 5.4108C135.074 5.13839 134.962 4.90703 134.782 4.73538C134.79 4.72418 134.801 4.71299 134.812 4.7018C134.801 4.71299 134.79 4.72045 134.779 4.73165C134.61 4.57492 134.386 4.4779 134.139 4.4779C133.904 4.4779 133.694 4.56746 133.53 4.70926C133.53 4.70926 133.526 4.71672 133.515 4.72418C133.463 4.7727 133.414 4.82494 133.373 4.88464C132.576 5.7653 128.83 9.87377 124.979 13.2882C122.755 15.1204 120.329 17.1018 117.831 18.0459C116.553 18.531 115.065 18.7624 113.715 18.7661C112.276 18.7661 110.836 18.546 109.468 18.0982C107.602 17.4862 105.89 16.3443 104.492 14.9786C104.058 14.5569 103.65 14.1054 103.269 13.6389C103.06 13.3329 102.705 13.1277 102.305 13.1277C101.658 13.1277 101.134 13.6501 101.134 14.2957C101.134 14.5644 101.228 14.8069 101.381 15.0047" fill="#EF3C3B"/>
<path d="M107.868 31.7408C108.462 31.1475 108.757 30.4348 108.757 29.5952C108.757 28.7556 108.462 28.0429 107.868 27.4495C107.273 26.8562 106.559 26.5614 105.718 26.5614H86.8677C85.3685 26.5614 84.1983 26.1099 83.3571 25.2031C82.5159 24.315 82.0971 23.0089 82.0971 21.2812V19.4304C82.0971 17.3593 81.7607 15.501 81.084 13.8554C80.3923 12.2284 79.4352 10.8552 78.2164 9.7357C76.9976 8.6013 75.5246 7.74677 73.7936 7.16837C72.0813 6.57505 70.1933 6.28025 68.1333 6.28025C66.0733 6.28025 64.189 6.57505 62.473 7.16837C60.7607 7.77662 59.2764 8.63862 58.024 9.75809C56.7865 10.8925 55.8331 12.2732 55.1564 13.9039C54.4648 15.5309 54.1171 17.3743 54.1171 19.4304V21.2812C54.1171 23.0089 53.6983 24.315 52.8571 25.2031C52.0159 26.1062 50.857 26.5614 49.3727 26.5614C47.8885 26.5614 46.7295 26.1099 45.8883 25.2031C45.0471 24.315 44.6284 23.0089 44.6284 21.2812V15.3853H47.5445V9.31776H37.5847L37.5586 20.9379C37.5586 22.8783 37.1211 24.2926 36.25 25.1807C35.3752 26.0688 34.2237 26.5129 32.788 26.5129V26.5614C31.2888 26.5614 30.1186 26.1099 29.2774 25.2031C28.4362 24.3001 28.0175 22.9828 28.0175 21.2551V6.28772H14.0312C11.9712 6.28772 10.0944 6.58251 8.39706 7.17583C6.66606 7.78408 5.18556 8.64608 3.94806 9.76555C2.71057 10.9 1.75721 12.2806 1.08051 13.9113C0.392601 15.5346 0.048645 17.378 0.048645 19.4341C0.048645 21.4902 0.39634 23.412 1.08799 25.0576C1.76469 26.7032 2.71804 28.0839 3.95554 29.2034C5.19303 30.3042 6.67354 31.1513 8.40454 31.7446C10.1168 32.3379 12.0049 32.6327 14.0649 32.6327C16.1249 32.6327 18.0204 32.3379 19.7476 31.7446C21.3777 31.1848 22.7871 30.3863 23.9723 29.3526L23.9985 29.3788C25.0042 30.3975 26.2566 31.196 27.7558 31.7707C29.1877 32.3304 30.8439 32.6178 32.7245 32.6327H32.7993C33.0311 32.6327 33.2516 32.6066 33.4647 32.5581C35.0424 32.5021 36.4818 32.2633 37.7679 31.8155C39.069 31.3565 40.1981 30.7072 41.1552 29.8676C42.045 30.6587 43.1067 31.2893 44.3442 31.767C45.7761 32.308 47.4249 32.5954 49.2867 32.629H49.4101C49.4101 32.629 49.4251 32.629 49.4325 32.629C51.3243 32.6066 52.988 32.323 54.4274 31.767C55.9116 31.1923 57.1603 30.3937 58.1847 29.375L58.2109 29.3489C59.4147 30.3863 60.8392 31.1811 62.4879 31.7408C64.2002 32.3342 66.0882 32.629 68.1482 32.629C70.2082 32.629 72.0925 32.3342 73.8086 31.7408C75.4573 31.1811 76.8743 30.3826 78.0594 29.3489L78.0856 29.375C79.0913 30.3937 80.3437 31.1923 81.8429 31.767C83.2935 32.3267 84.9572 32.614 86.834 32.629H105.733C106.574 32.629 107.292 32.3342 107.883 31.7408M20.9066 19.4341C20.9066 20.4864 20.7421 21.4491 20.4131 22.3186C20.0841 23.2067 19.6317 23.9568 19.0522 24.565C18.4578 25.1919 17.7325 25.677 16.8763 26.0203C16.0351 26.3823 15.0967 26.5614 14.0611 26.5614C13.0255 26.5614 12.132 26.3823 11.2908 26.0203C10.4496 25.677 9.72428 25.1919 9.11488 24.565C8.50548 23.9568 8.02693 23.2067 7.68298 22.3186C7.35398 21.4454 7.18947 20.4864 7.18947 19.4341C7.18947 18.3818 7.35398 17.4526 7.68298 16.5981C8.03067 15.7436 8.498 14.9935 9.09245 14.3517C9.6869 13.7098 10.4122 13.2173 11.2683 12.8702C12.1095 12.5269 13.033 12.3515 14.035 12.3515H20.929L20.9029 19.4304L20.9066 19.4341ZM74.4965 22.3186C74.1749 23.1918 73.7188 23.9381 73.1244 24.565C72.5299 25.1919 71.8121 25.677 70.9634 26.0203C70.1148 26.3674 69.1726 26.539 68.1333 26.539C67.0939 26.539 66.2041 26.3674 65.3667 26.0203C64.5255 25.677 63.8002 25.1919 63.1908 24.565C62.5814 23.9418 62.1066 23.1918 61.7701 22.3186C61.4336 21.4454 61.2616 20.4864 61.2616 19.4341C61.2616 18.3818 61.4299 17.4526 61.7701 16.5981C62.1066 15.7436 62.5739 14.9935 63.1683 14.3517C63.7628 13.7098 64.4881 13.2173 65.3442 12.8702C66.2004 12.5269 67.1313 12.3515 68.137 12.3515C69.1427 12.3515 70.1185 12.5195 70.9672 12.859C71.8158 13.1949 72.5337 13.6688 73.1169 14.277C73.7001 14.8853 74.16 15.6316 74.489 16.5085C74.818 17.3892 74.9825 18.3631 74.9825 19.4304C74.9825 20.4976 74.8217 21.4454 74.5002 22.3149" fill="#EF3C3B"/>
<path d="M154.754 20.9379C154.754 22.8783 154.317 24.2926 153.446 25.1807C152.571 26.0688 151.419 26.5129 149.987 26.5129V26.5614H125.323C124.482 26.5614 123.768 26.8562 123.174 27.4495C122.579 28.0428 122.284 28.7556 122.284 29.5952C122.284 30.4348 122.579 31.1475 123.174 31.7408C123.768 32.3342 124.482 32.629 125.323 32.629H149.987C150.219 32.629 150.44 32.6028 150.653 32.5581C154.04 32.4424 156.724 31.4498 158.687 29.5579C160.781 27.5428 161.824 24.6695 161.824 20.9379V15.3891H164.74V9.3215H154.78L154.754 20.9416V20.9379Z" fill="#EF3C3B"/>
<path d="M3.38722 54.1154V44.8387H0V42.7751H8.99894V44.8387H5.61172V54.1154H3.38722Z" fill="#EF3C3B"/>
<path d="M17.5642 54.1154H15.6724V52.5183H15.6388C15.407 53.0743 15.0257 53.5146 14.491 53.8468C13.9564 54.1751 13.3283 54.3393 12.5955 54.3393C12.0871 54.3393 11.5749 54.246 11.0664 54.0632C10.558 53.8766 10.1018 53.5967 9.70181 53.2236C9.30177 52.8467 8.97651 52.3802 8.72976 51.8205C8.47927 51.2608 8.35589 50.5965 8.35589 49.8353C8.35589 49.1897 8.46805 48.5852 8.69611 48.0329C8.92043 47.4769 9.24195 46.9993 9.6532 46.6037C10.0645 46.2045 10.5505 45.891 11.1113 45.6671C11.6721 45.4432 12.2964 45.3275 12.9806 45.3275C13.6648 45.3275 14.2704 45.4358 14.8387 45.6559C15.407 45.8761 15.8893 46.1858 16.2893 46.5851C16.6894 46.9844 17.0034 47.462 17.2277 48.0255C17.452 48.5852 17.5679 49.2121 17.5679 49.9062V54.1192L17.5642 54.1154ZM12.9769 52.4176C13.7396 52.4176 14.3527 52.1787 14.8088 51.6974C15.2649 51.216 15.4967 50.5965 15.4967 49.8316C15.4967 49.0666 15.2687 48.4471 14.8088 47.9658C14.3527 47.4844 13.7396 47.2456 12.9769 47.2456C12.2142 47.2456 11.5973 47.4844 11.1337 47.9658C10.6701 48.4471 10.4383 49.0666 10.4383 49.8316C10.4383 50.5965 10.6701 51.216 11.1337 51.6974C11.5973 52.1787 12.2104 52.4176 12.9769 52.4176Z" fill="#EF3C3B"/>
<path d="M25.1387 49.6599C25.1387 48.839 24.9406 48.2307 24.548 47.8389C24.1554 47.4471 23.6283 47.2493 22.9666 47.2493C22.3048 47.2493 21.7777 47.4471 21.3851 47.8389C20.9925 48.2307 20.7944 48.839 20.7944 49.6599V54.1154H18.7269V49.6599C18.7269 48.9435 18.8279 48.3165 19.0298 47.7792C19.2316 47.2418 19.5195 46.7903 19.8896 46.4284C20.2598 46.0627 20.7047 45.7903 21.2281 45.6037C21.7478 45.4171 22.3272 45.3275 22.9666 45.3275C23.6059 45.3275 24.1816 45.4171 24.705 45.5962C25.2247 45.7753 25.6733 46.0477 26.0435 46.4097C26.4136 46.7754 26.7015 47.2269 26.9034 47.7717C27.1052 48.3165 27.2062 48.9435 27.2062 49.6636V54.1192H25.1387V49.6599Z" fill="#EF3C3B"/>
<path d="M33.9133 54.1154V49.2271C33.9133 48.533 33.7488 48.0292 33.4198 47.7195C33.0908 47.406 32.6758 47.253 32.1786 47.253C31.6814 47.253 31.2514 47.406 30.9261 47.712C30.6009 48.018 30.4401 48.5255 30.4401 49.2308V54.1192H28.3726V49.2308C28.3726 48.5591 28.4661 47.9807 28.6493 47.4881C28.8362 46.9956 29.0867 46.5926 29.4045 46.2754C29.7223 45.9582 30.1036 45.7194 30.5411 45.5626C30.9822 45.4059 31.457 45.3275 31.9655 45.3275C32.6123 45.3275 33.1918 45.4582 33.6928 45.7194C34.1937 45.9806 34.605 46.3537 34.919 46.8388H34.9527C35.2555 46.3537 35.6555 45.9806 36.1603 45.7194C36.665 45.4582 37.2445 45.3275 37.9062 45.3275C38.4147 45.3275 38.8895 45.4059 39.3306 45.5626C39.7718 45.7194 40.1494 45.9545 40.4672 46.2754C40.785 46.5926 41.0392 46.9993 41.2224 47.4881C41.4093 47.9807 41.4991 48.5591 41.4991 49.2308V54.1192H39.4316V49.2308C39.4316 48.5255 39.2708 48.0218 38.9456 47.712C38.6203 47.406 38.2053 47.253 37.6931 47.253C37.1809 47.253 36.7846 47.4098 36.4594 47.7195C36.1341 48.0329 35.9733 48.533 35.9733 49.2271V54.1154H33.9059H33.9133Z" fill="#EF3C3B"/>
<path d="M44.4937 50.5592V50.5928C44.6321 51.1712 44.9125 51.6265 45.3349 51.9623C45.7574 52.2981 46.292 52.4661 46.9426 52.4661C47.8697 52.4661 48.5464 52.1937 48.9764 51.6526H51.1822C50.8569 52.4735 50.326 53.1266 49.582 53.6117C48.8418 54.0968 47.9595 54.3393 46.9426 54.3393C46.2584 54.3393 45.6378 54.2274 45.0732 53.9998C44.5124 53.7759 44.0264 53.4624 43.6152 53.0631C43.2039 52.6638 42.8861 52.1862 42.6581 51.6339C42.4337 51.0779 42.3178 50.4771 42.3178 49.8316C42.3178 49.186 42.43 48.5815 42.6581 48.0292C42.8824 47.4732 43.2039 46.9956 43.6152 46.6C44.0264 46.2007 44.5124 45.8873 45.0732 45.6634C45.634 45.4395 46.2584 45.3238 46.9426 45.3238C47.6267 45.3238 48.2324 45.4358 48.8007 45.6634C49.3689 45.8873 49.8512 46.2007 50.2513 46.6C50.6513 46.9993 50.9653 47.4769 51.1897 48.0292C51.414 48.5852 51.5299 49.186 51.5299 49.8316V50.5592H44.4937ZM46.9426 47.1971C46.3294 47.1971 45.8172 47.3463 45.406 47.6486C44.9947 47.9509 44.7068 48.3613 44.5461 48.88V48.9136H49.3428V48.88C49.182 48.3613 48.8904 47.9509 48.4754 47.6486C48.0567 47.3463 47.5482 47.1971 46.9463 47.1971H46.9426Z" fill="#EF3C3B"/>
<path d="M58.7567 52.8653H58.723C58.4688 53.2945 58.1249 53.6266 57.6987 53.8729C57.2687 54.1154 56.7715 54.2386 56.2032 54.2386C55.706 54.2386 55.2237 54.1527 54.7601 53.9886C54.2965 53.8206 53.8852 53.5632 53.5263 53.2161C53.1674 52.8691 52.8795 52.4213 52.6664 51.8727C52.4533 51.3242 52.3449 50.6674 52.3449 49.9062V45.5552H54.4124V49.9062C54.4124 50.7272 54.6105 51.3354 55.0031 51.7272C55.3956 52.119 55.9228 52.3168 56.5845 52.3168C57.2463 52.3168 57.7435 52.1153 58.1473 51.7086C58.5511 51.3018 58.7567 50.701 58.7567 49.9062V45.5552H60.8242V53.8281C60.8242 54.5781 60.7157 55.22 60.4952 55.7461C60.2746 56.2723 59.9718 56.7014 59.5829 57.0373C59.1941 57.3731 58.7417 57.6194 58.2183 57.7761C57.6987 57.9328 57.1416 58.0112 56.5509 58.0112C56.0536 58.0112 55.5788 57.9515 55.1339 57.8395C54.689 57.7239 54.2815 57.5448 53.9189 57.3022C53.5525 57.0596 53.2422 56.7537 52.9805 56.3842C52.7188 56.0148 52.5318 55.5745 52.4159 55.067H54.4834C54.8199 55.8432 55.5078 56.2275 56.5509 56.2275C57.2575 56.2275 57.8033 56.0447 58.1847 55.6827C58.566 55.317 58.7567 54.7199 58.7567 53.8878V52.8653Z" fill="#EF3C3B"/>
<path d="M71.1279 54.1154H69.2361V52.5183H69.2025C68.9707 53.0743 68.5894 53.5146 68.0547 53.8468C67.5201 54.1751 66.892 54.3393 66.1592 54.3393C65.6508 54.3393 65.1386 54.246 64.6301 54.0632C64.1217 53.8766 63.6655 53.5967 63.2655 53.2236C62.8655 52.8467 62.5402 52.3802 62.2935 51.8205C62.043 51.2608 61.9196 50.5965 61.9196 49.8353C61.9196 49.1897 62.0318 48.5852 62.2598 48.0329C62.4841 47.4769 62.8057 46.9993 63.2169 46.6037C63.6282 46.2045 64.1142 45.891 64.675 45.6671C65.2358 45.4432 65.8601 45.3275 66.5443 45.3275C67.2285 45.3275 67.8342 45.4358 68.4024 45.6559C68.9707 45.8761 69.453 46.1858 69.853 46.5851C70.2531 46.9844 70.5671 47.462 70.7914 48.0255C71.0157 48.5852 71.1316 49.2121 71.1316 49.9062V54.1192L71.1279 54.1154ZM66.5406 52.4176C67.3033 52.4176 67.9164 52.1787 68.3725 51.6974C68.8286 51.216 69.0604 50.5965 69.0604 49.8316C69.0604 49.0666 68.8324 48.4471 68.3725 47.9658C67.9164 47.4844 67.3033 47.2456 66.5406 47.2456C65.7779 47.2456 65.161 47.4844 64.6974 47.9658C64.2338 48.4471 64.002 49.0666 64.002 49.8316C64.002 50.5965 64.2338 51.216 64.6974 51.6974C65.161 52.1787 65.7741 52.4176 66.5406 52.4176Z" fill="#EF3C3B"/>
<path d="M74.6385 54.1154H72.571V41.8049H74.6385V46.6933H74.6721C74.9264 46.2754 75.2703 45.9433 75.6965 45.697C76.1265 45.447 76.6237 45.3238 77.192 45.3238C77.6892 45.3238 78.1715 45.4096 78.6351 45.5738C79.0987 45.7418 79.51 45.9992 79.8689 46.3463C80.2278 46.6933 80.5157 47.1411 80.7288 47.6896C80.9419 48.2382 81.0503 48.8949 81.0503 49.6562V54.1117H78.9828V49.6562C78.9828 48.8352 78.7847 48.227 78.3921 47.8352C77.9995 47.4434 77.4724 47.2456 76.8106 47.2456C76.1489 47.2456 75.6517 47.4471 75.2479 47.8538C74.8441 48.2606 74.6385 48.8614 74.6385 49.6562V54.1154Z" fill="#EF3C3B"/>
</svg>
