<svg xmlns="http://www.w3.org/2000/svg" width="530.442" height="605.589" viewBox="0 0 530.442 605.589">
  <defs>
    <style>
      .cls-1 {
        fill: #db4b44;
        stroke: rgba(0,0,0,0);
        stroke-miterlimit: 10;
      }
    </style>
  </defs>
  <path id="Intersection_1" data-name="Intersection 1" class="cls-1" d="M432.453,658c-4.659-3.975-9.145-7.639-13.6-11.119a289.719,289.719,0,0,0-71.824-41.666c-6.578-2.651-13.28-4.983-19.908-6.935A226.96,226.96,0,0,0,262.9,589.23a248.807,248.807,0,0,0-107.781,24.691,235.442,235.442,0,0,1,31.209-17.654A246.326,246.326,0,0,1,219.973,583.4a250.194,250.194,0,0,1,35.192-7.874A243.853,243.853,0,0,1,291,572.858a224.574,224.574,0,0,1,55.965,6.941c6.7,1.724,13.453,3.812,20.081,6.215a288.88,288.88,0,0,1,73.01,39.019c9.758,7.084,19.664,14.992,31.171,24.9q4.613,3.972,9.228,8.062Zm-390.84,0,.171-.279a73.624,73.624,0,0,1,6.224-8.249c38.642-46.329,78.748-92.818,119.2-138.173,4.31-4.828,8.707-9.816,12.592-14.213,14.8-16.786,30.113-34.142,46.307-49.98a114.568,114.568,0,0,1,8.728-7.777c-13.219,14.392-25.855,29.77-38.08,44.635-4.33,5.274-8.235,10.02-12.143,14.718-38.634,46.479-76.973,94.192-113.949,141.81a72.634,72.634,0,0,0-5.912,8.433A24.523,24.523,0,0,0,61.483,658ZM192.92,400.532c-10.843-7.51-20.728-17.33-29.443-25.989l-.016-.015-.019-.026c-.774-.765-1.57-1.555-2.342-2.321-17.085-16.924-34-35.141-51.727-55.7C94.51,299.252,78.787,280,61.293,257.637,59.541,255.4,45.23,236.474,31.885,218.5,19.614,201.988,5.024,182.057,5.191,180.905a.072.072,0,0,1,.02-.045l.047-.04A20.152,20.152,0,0,1,.951,168.409a20.415,20.415,0,0,1,9.058-16.966,20.162,20.162,0,0,0,1.715,23.6l-.047.041a.045.045,0,0,0-.019.041c-.122,1.156,15.107,20.5,27.906,36.535,14.056,17.6,28.9,35.865,30.671,37.969,18.2,21.67,34.543,40.3,49.955,56.968,18.387,19.874,35.877,37.433,53.474,53.691l1.7,1.583.7.654.022.019c8.783,8.139,18.744,17.366,29.531,24.418,12.4,8.1,23.952,12.043,35.3,12.043,1.152,0,2.254-.041,3.375-.117,18.519-1.289,34.937-19.111,46.93-32.119.254-.274.5-.543.75-.812.158-.178.32-.355.482-.527,25.973-28.155,50.264-58.727,73.764-88.291l.086-.112.434-.546c7.3-9.188,14.854-18.688,22.332-27.957,26.317-32.611,52.96-65.88,78.723-98.055l.873-1.09c7.114-8.889,14.719-18.38,22.091-27.586,2.967-3.7,6-7.449,8.932-11.074l.167-.209.147-.182c6.051-7.473,12.307-15.2,18.3-22.911q5.99-7.7,12.081-15.39V93.812q-7.156,8.4-14.229,16.863c-6.268,7.5-12.787,15.007-19.092,22.263l-.661.761c-2.983,3.432-6.062,6.976-9.068,10.469-7.012,8.153-14.133,16.438-21.17,24.625-27.768,32.306-56.487,65.714-85.211,98.867-7.752,8.948-15.58,18.125-23.154,27l-.578.67c-24.641,28.885-50.127,58.752-77.221,86.142-.369.369-.778.785-1.244,1.257-12.488,12.649-29.587,29.964-48.208,30.607-.578.02-1.127.03-1.687.03C217.157,413.365,205.394,409.165,192.92,400.532Zm12.936-253.108A77.043,77.043,0,0,1,146.5,53.033a77.471,77.471,0,0,0-.184,8.731,76.305,76.305,0,0,0,14.1,41.686,77.218,77.218,0,0,0,33.605,26.674,76.614,76.614,0,0,0,29.231,5.743c.885,0,1.8-.015,2.736-.05A76.888,76.888,0,0,0,298.526,75.3a76.383,76.383,0,0,1-6.957,28.818,77.257,77.257,0,0,1-7.276,12.523,77.387,77.387,0,0,1-20.714,19.844,76.993,76.993,0,0,1-42.159,12.5A78,78,0,0,1,205.855,147.424Z" transform="translate(-0.451 -52.911)"/>
</svg>
