<svg xmlns="http://www.w3.org/2000/svg" xmlns:xlink="http://www.w3.org/1999/xlink" width="136.001" height="39" viewBox="0 0 136.001 39">
  <defs>
    <style>
      .cls-1 {
        fill: none;
      }

      .cls-2 {
        clip-path: url(#clip-path);
      }

      .cls-3 {
        isolation: isolate;
      }

      .cls-4 {
        clip-path: url(#clip-path-2);
      }

      .cls-5 {
        fill: #ef3c3b;
      }
    </style>
    <clipPath id="clip-path">
      <rect id="Rectangle_8" data-name="Rectangle 8" class="cls-1" width="136.001" height="39" transform="translate(8578.999 326.999)"/>
    </clipPath>
    <clipPath id="clip-path-2">
      <rect id="Rectangle_7" data-name="Rectangle 7" class="cls-1" width="136" height="39" transform="translate(8579 327)"/>
    </clipPath>
  </defs>
  <g id="Group_15" data-name="Group 15" transform="translate(-8578.999 -326.999)">
    <g id="Group_14" data-name="Group 14" class="cls-2">
      <g id="Group_13" data-name="Group 13" class="cls-3">
        <g id="Group_12" data-name="Group 12">
          <g id="Group_11" data-name="Group 11" class="cls-4">
            <g id="Group_10" data-name="Group 10">
              <g id="Group_9" data-name="Group 9" class="cls-4">
                <path id="Path_18" data-name="Path 18" class="cls-5" d="M8609.359,356.61a2.8,2.8,0,1,0,2.787,2.8,2.793,2.793,0,0,0-2.787-2.8"/>
                <path id="Path_19" data-name="Path 19" class="cls-5" d="M8616.4,356.61a2.8,2.8,0,1,0,2.787,2.8,2.793,2.793,0,0,0-2.787-2.8"/>
                <path id="Path_20" data-name="Path 20" class="cls-5" d="M8705.173,332.594a2.8,2.8,0,1,0-2.791-2.8,2.792,2.792,0,0,0,2.791,2.8"/>
                <path id="Path_21" data-name="Path 21" class="cls-5" d="M8712.212,327a2.8,2.8,0,1,0,2.787,2.8,2.794,2.794,0,0,0-2.787-2.8"/>
                <path id="Path_22" data-name="Path 22" class="cls-5" d="M8677.124,352.849a5.61,5.61,0,0,0-2.125-1.79,2.244,2.244,0,0,0-2.523.777c-.967.951-1.851,2-2.752,3.015q-2.837,3.2-5.569,6.492a1.755,1.755,0,0,0-.461.829.911.911,0,0,0,.966.987c.481-.059.815-.493,1.125-.868a11.142,11.142,0,0,1,11.41-3.353q.476.141.931.326c2.981,1.207,4.628,3.039,6.971,5.306a1.678,1.678,0,0,0,.729.488.882.882,0,0,0,1.035-.865,1.719,1.719,0,0,0-.578-1.01c-3.368-3.592-5.968-6.582-9.158-10.334"/>
                <path id="Path_23" data-name="Path 23" class="cls-5" d="M8672.256,337.829a3.618,3.618,0,1,0-3.609-3.618,3.613,3.613,0,0,0,3.609,3.618"/>
                <path id="Path_24" data-name="Path 24" class="cls-5" d="M8662.155,339.326c-.062.044,2.464,3.406,2.62,3.607a56.223,56.223,0,0,0,4.663,5.381c.863.861,1.923,1.98,3.245,1.934.9-.031,1.722-.9,2.311-1.5,1.664-1.692,3.168-3.549,4.716-5.347q2.493-2.893,4.971-5.8c.448-.524.905-1.043,1.347-1.573,1.114-1.343,2.267-2.654,3.4-3.976a.246.246,0,0,0,.029-.044.765.765,0,0,0,.012-1.119l.023-.027c-.01.007-.019.016-.029.024a.753.753,0,0,0-1.021-.021l0,0-.012.013a.867.867,0,0,0-.117.131,97.053,97.053,0,0,1-6.862,6.9,22.807,22.807,0,0,1-5.845,3.912,9.828,9.828,0,0,1-3.366.59,11.054,11.054,0,0,1-3.471-.55,10.692,10.692,0,0,1-4.068-2.563,13.539,13.539,0,0,1-1-1.1.956.956,0,1,0-1.546,1.124Z"/>
                <path id="Path_25" data-name="Path 25" class="cls-5" d="M8640.185,345.341a5.336,5.336,0,0,1-1.121,1.844,5.01,5.01,0,0,1-1.769,1.2,6.057,6.057,0,0,1-2.314.425,5.865,5.865,0,0,1-2.263-.425,5.251,5.251,0,0,1-1.778-1.2,5.427,5.427,0,0,1-1.162-1.844,6.562,6.562,0,0,1-.413-2.372,6.345,6.345,0,0,1,.413-2.332,5.886,5.886,0,0,1,1.143-1.844,4.885,4.885,0,0,1,1.776-1.217,6.051,6.051,0,0,1,2.284-.424,6.231,6.231,0,0,1,2.314.414,4.929,4.929,0,0,1,1.758,1.166,5.288,5.288,0,0,1,1.121,1.834,7.344,7.344,0,0,1,.011,4.775m-43.818-2.372a6.712,6.712,0,0,1-.4,2.372,5.364,5.364,0,0,1-1.111,1.844,5,5,0,0,1-1.778,1.2,5.75,5.75,0,0,1-2.3.445,5.649,5.649,0,0,1-2.264-.445,5.284,5.284,0,0,1-2.949-3.04,6.69,6.69,0,0,1-.4-2.372,6.468,6.468,0,0,1,.4-2.332,6.036,6.036,0,0,1,1.151-1.844,4.893,4.893,0,0,1,1.778-1.217,5.884,5.884,0,0,1,2.263-.424h5.638Zm71.1,10.114a2.494,2.494,0,0,0-1.759-4.257H8650.3a3.707,3.707,0,0,1-2.868-1.114,4.537,4.537,0,0,1-1.031-3.222v-1.521a12.04,12.04,0,0,0-.828-4.582,9.567,9.567,0,0,0-5.961-5.492,15.051,15.051,0,0,0-9.255,0,10.825,10.825,0,0,0-3.637,2.127,9.533,9.533,0,0,0-2.345,3.406,11.574,11.574,0,0,0-.848,4.541v1.521a4.541,4.541,0,0,1-1.03,3.222,4.2,4.2,0,0,1-5.7,0,4.541,4.541,0,0,1-1.03-3.222v-4.845h2.385v-4.988h-8.144l-.02,9.549a4.835,4.835,0,0,1-1.071,3.485,3.78,3.78,0,0,1-2.829,1.1v.04a3.709,3.709,0,0,1-2.869-1.114,4.613,4.613,0,0,1-1.031-3.243v-12.3h-11.437a13.814,13.814,0,0,0-4.607.729,10.582,10.582,0,0,0-3.637,2.127,9.518,9.518,0,0,0-2.344,3.406,11.574,11.574,0,0,0-.848,4.541,11.885,11.885,0,0,0,.848,4.622,9.268,9.268,0,0,0,2.344,3.4,10.472,10.472,0,0,0,3.637,2.087,13.99,13.99,0,0,0,4.628.73,14.166,14.166,0,0,0,4.647-.73,10.173,10.173,0,0,0,3.455-1.966l.021.02a8.508,8.508,0,0,0,3.071,1.967,11.357,11.357,0,0,0,4.062.709h.061a2.535,2.535,0,0,0,.544-.06,11.951,11.951,0,0,0,3.518-.608,8.365,8.365,0,0,0,2.769-1.6,8.471,8.471,0,0,0,2.606,1.562,11.939,11.939,0,0,0,4.041.709h.12a11.63,11.63,0,0,0,4.083-.708,8.759,8.759,0,0,0,3.071-1.967l.021-.02a10.362,10.362,0,0,0,3.5,1.966,15.032,15.032,0,0,0,9.255,0,10.149,10.149,0,0,0,3.476-1.966l.02.02a8.521,8.521,0,0,0,3.072,1.967,11.519,11.519,0,0,0,4.081.709h15.452a2.387,2.387,0,0,0,1.759-.73"/>
                <path id="Path_26" data-name="Path 26" class="cls-5" d="M8705.8,344.207a4.837,4.837,0,0,1-1.072,3.487,3.78,3.78,0,0,1-2.828,1.094v.041h-20.166a2.493,2.493,0,0,0,0,4.986H8701.9a2.661,2.661,0,0,0,.543-.059,9.557,9.557,0,0,0,6.57-2.465q2.565-2.482,2.565-7.084v-4.561h2.384V334.66h-8.143Z"/>
              </g>
            </g>
          </g>
        </g>
      </g>
    </g>
  </g>
</svg>
