<svg xmlns="http://www.w3.org/2000/svg" width="24" height="24" viewBox="0 0 24 24">
  <g id="vuesax_bold_ticket-expired" data-name="vuesax/bold/ticket-expired" transform="translate(-620 -572)">
    <g id="ticket-expired">
      <path id="Vector" d="M17.846,9.035a1.46,1.46,0,0,0,1.45,1.46.7.7,0,0,1,.7.69c0,3.84-1.16,5-5,5H9.746v-1.59a.741.741,0,0,0-.68-.74.17.17,0,0,0-.07-.01.755.755,0,0,0-.75.75v1.59H6.486c-1.88,0-2.85-1.41-3.73-3.54l-.17-.42a.7.7,0,0,1,.39-.91,1.406,1.406,0,0,0,.81-.81,1.48,1.48,0,0,0,.01-1.15,1.529,1.529,0,0,0-1.98-.83.638.638,0,0,1-.54,0,.726.726,0,0,1-.38-.39l-.15-.4c-1.49-3.62-.84-5.17,2.78-6.67L5.976.055a.688.688,0,0,1,.91.38l2.18,4.75a.811.811,0,0,0-.82.74v4.34a.755.755,0,0,0,.75.75.17.17,0,0,0,.07-.01.741.741,0,0,0,.68-.74V5.925a.741.741,0,0,0-.68-.74V1.025H15c3.84,0,5,1.16,5,5v.85a.7.7,0,0,1-.7.7A1.453,1.453,0,0,0,17.846,9.035Z" transform="translate(622.004 575.905)" fill="#0f1f71"/>
      <path id="Vector-2" data-name="Vector" d="M0,0H24V24H0Z" transform="translate(620 572)" fill="none" opacity="0"/>
    </g>
  </g>
</svg>
