<svg width="524" height="658" viewBox="0 0 524 658" fill="none" xmlns="http://www.w3.org/2000/svg">
<path d="M361.451 658C356.793 654.025 352.307 650.359 347.848 646.881C324.818 628.912 301.992 615.67 276.021 605.215C269.443 602.564 262.746 600.232 256.115 598.281C235.734 592.271 214.129 589.227 191.895 589.227C173.428 589.227 154.832 591.338 136.621 595.514C118.348 599.688 100.684 605.883 84.1152 613.92C93.9102 607.328 104.414 601.391 115.32 596.268C126.115 591.201 137.439 586.873 148.969 583.406C160.457 579.945 172.299 577.295 184.16 575.529C196.07 573.758 208.125 572.859 219.998 572.859C239.24 572.859 258.07 575.188 275.965 579.797C282.668 581.521 289.414 583.609 296.041 586.016C322.281 595.529 345.484 607.932 369.055 625.033C378.809 632.119 388.717 640.025 400.227 649.939C403.301 652.586 406.371 655.273 409.451 658H361.451ZM-0.00195312 622.088C31.459 584.875 63.7246 547.721 96.2109 511.297C100.52 506.469 104.914 501.482 108.799 497.084C123.6 480.297 138.912 462.945 155.107 447.107C158.188 444.096 161.045 441.551 163.838 439.328C150.617 453.719 137.979 469.1 125.754 483.963C121.428 489.24 117.521 493.984 113.613 498.68C75.0957 545.018 36.873 592.582 -0.00195312 640.061V622.088ZM121.916 400.531C111.076 393.021 101.188 383.199 92.4766 374.543L92.4609 374.527L92.4395 374.502C91.668 373.738 90.8672 372.943 90.0977 372.178C73.0117 355.254 56.0977 337.041 38.3711 316.482C26.3086 302.498 13.6816 287.184 -0.00195312 269.953V250.527C17.8906 271.812 33.9941 290.16 49.1914 306.594C67.5762 326.469 85.0645 344.023 102.664 360.285C103.225 360.805 103.797 361.336 104.367 361.865L105.072 362.523L105.092 362.539C113.877 370.68 123.836 379.906 134.627 386.961C147.023 395.062 158.574 399 169.926 399C171.078 399 172.182 398.961 173.305 398.885C191.822 397.596 208.242 379.773 220.232 366.766C220.488 366.49 220.732 366.225 220.982 365.955C221.141 365.775 221.305 365.598 221.467 365.424C247.438 337.27 271.729 306.701 295.229 277.135L295.314 277.021L295.75 276.477C303.053 267.291 310.602 257.789 318.08 248.521C344.396 215.908 371.041 182.641 396.803 150.465L397.674 149.373C404.789 140.488 412.395 130.998 419.77 121.789C422.736 118.094 425.764 114.342 428.697 110.713L428.865 110.504L429.014 110.326C435.062 102.854 441.32 95.125 447.312 87.4121C463.865 66.1309 481.107 44.8574 497.777 24.2891C503.744 16.9277 510.502 8.58789 516.969 0.560547C517.121 0.371094 517.25 0.183594 517.355 0C517.861 0.382812 518.357 0.794922 518.816 1.22461C518.924 1.13281 519.031 1.03516 519.184 0.908203L519.297 0.804688L519.408 0.708984C519.23 0.927734 519.076 1.11133 518.908 1.30078C520.5 2.8125 521.746 4.58789 522.629 6.57422C523.539 8.63867 523.998 10.8379 523.998 13.0996C523.998 15.4238 523.514 17.668 522.553 19.7676C521.635 21.7871 520.326 23.5859 518.664 25.1055C518.521 25.4121 518.312 25.7285 518.037 26.0371C511.793 33.2656 505.408 40.6016 499.23 47.6914L498.262 48.8145C480.76 68.9277 462.662 89.7266 445.164 110.672C438.896 118.176 432.377 125.68 426.068 132.939L425.412 133.699C422.428 137.129 419.346 140.678 416.34 144.17C409.332 152.32 402.207 160.604 395.174 168.795C367.402 201.1 338.686 234.508 309.959 267.658C302.211 276.609 294.381 285.785 286.807 294.664L286.23 295.332C261.588 324.215 236.102 354.086 209.01 381.471C208.637 381.842 208.232 382.256 207.764 382.73C195.273 395.379 178.18 412.695 159.555 413.34C158.979 413.355 158.432 413.365 157.869 413.365C146.156 413.361 134.393 409.168 121.916 400.531ZM134.855 147.426C129.895 146.406 125.014 144.904 120.354 142.936C115.781 141.014 111.361 138.627 107.23 135.844C103.139 133.092 99.2891 129.926 95.7891 126.439C92.2969 122.963 89.1211 119.125 86.3555 115.047C83.5586 110.922 81.1641 106.52 79.2305 101.961C75.1973 92.4707 73.1504 82.375 73.1504 71.9707C73.1504 65.5586 73.9434 59.1914 75.5039 53.0352C75.2793 55.9102 75.2129 58.8457 75.3203 61.7656C75.6719 71.9102 77.9688 81.6934 82.1504 90.8535C84.1562 95.2578 86.6016 99.4941 89.4141 103.449C92.1953 107.359 95.3652 111.033 98.8496 114.383C102.326 117.717 106.129 120.742 110.15 123.365C114.219 126.016 118.549 128.295 123.018 130.125C132.309 133.938 142.143 135.869 152.25 135.869C153.135 135.869 154.053 135.85 154.986 135.818C163.781 135.508 172.352 133.74 180.457 130.559C188.301 127.48 195.555 123.152 202.01 117.686C208.412 112.279 213.854 105.912 218.186 98.7559C222.596 91.4805 225.73 83.5898 227.521 75.2988C227.094 85.3438 224.75 95.0391 220.564 104.117C218.543 108.502 216.098 112.713 213.291 116.643C210.498 120.547 207.324 124.207 203.863 127.531C200.396 130.85 196.6 133.867 192.574 136.486C188.516 139.133 184.186 141.412 179.711 143.24C170.416 147.055 160.555 148.992 150.418 148.992C145.182 148.992 139.939 148.461 134.855 147.426Z" fill="#EF3C3B"/>
</svg>
