<svg xmlns="http://www.w3.org/2000/svg" width="32" height="32" viewBox="0 0 32 32">
  <defs>
    <style>
      .cls-1 {
        fill: #db4b44;
      }

      .cls-2 {
        fill: none;
        opacity: 0;
      }

      .cls-3 {
        fill: #fff;
      }
    </style>
  </defs>
  <g id="Group_5183" data-name="Group 5183" transform="translate(-1182.004 -668.004)">
    <rect id="Rectangle_4936" data-name="Rectangle 4936" class="cls-1" width="32" height="32" rx="8" transform="translate(1182.004 668.004)"/>
    <g id="vuesax_bold_translate" data-name="vuesax/bold/translate" transform="translate(1185.764 671.764)">
      <g id="translate" transform="translate(0 0)">
        <path id="Vector" class="cls-2" d="M0,0H24.48V24.48H0Z" transform="translate(24.48 24.48) rotate(180)"/>
        <path id="Subtraction_14" data-name="Subtraction 14" class="cls-3" d="M2.92,10.151a2.9,2.9,0,0,1-2.188-.77A3.236,3.236,0,0,1,0,7.078v-4A3.154,3.154,0,0,1,.77.767,3.16,3.16,0,0,1,3.084,0H7.068A3.187,3.187,0,0,1,9.44.787a3.051,3.051,0,0,1,.712,2.29V7.068A3.129,3.129,0,0,1,9.438,9.4a2.958,2.958,0,0,1-2.2.746H7.161l-.038,0H3.084c-.053,0-.1,0-.153,0Zm1.8-8.334a1.589,1.589,0,0,0-.588.1.93.93,0,0,0-.408.269,2.269,2.269,0,0,0-.338.638,2.225,2.225,0,0,0-.169.677,1.144,1.144,0,0,0,.151.489,2.429,2.429,0,0,0,.351.524,2.236,2.236,0,0,0-.561.9A3.085,3.085,0,0,0,3,6.463a1.718,1.718,0,0,0,.566,1.4,2.548,2.548,0,0,0,1.683.475l.4,0L7.159,7.4l-.072-.163c-.038,0-.072,0-.105.01l-.054.006-.056,0c-.08.008-.142.014-.185.016-.072.006-.19.006-.341.006h-.1a5.427,5.427,0,0,1-2.185-.333A.913.913,0,0,1,3.45,6.1a1.414,1.414,0,0,1,.709-1.1,5.481,5.481,0,0,1,1.922-.8c.084-.174.147-.317.212-.477s.113-.324.169-.505c-.451.1-.733.175-.915.233s-.453.166-.843.332a2.174,2.174,0,0,1-.669-.4A.465.465,0,0,1,3.86,3.06c0-.143.171-.258.507-.344A5.363,5.363,0,0,1,5.7,2.58a1.945,1.945,0,0,0,.223.014h.108c.04,0,.08,0,.121,0a1.789,1.789,0,0,0-.623-.577A1.659,1.659,0,0,0,4.718,1.817Z" transform="translate(2.039 2.04)"/>
        <path id="Vector-2" data-name="Vector" class="cls-3" d="M7.905,8.67A7.918,7.918,0,0,1,0,.765.771.771,0,0,1,.765,0,.771.771,0,0,1,1.53.765,6.386,6.386,0,0,0,6.457,6.977l-.275-.459A.766.766,0,0,1,7.5,5.732L8.568,7.517a.76.76,0,0,1,.01.765A.8.8,0,0,1,7.905,8.67Z" transform="translate(1.275 14.535)"/>
        <path id="Vector-3" data-name="Vector" class="cls-3" d="M7.911,8.67a.771.771,0,0,1-.765-.765A6.386,6.386,0,0,0,2.22,1.693l.275.459a.766.766,0,0,1-1.316.785L.108,1.153A.76.76,0,0,1,.1.388.8.8,0,0,1,.771,0,7.918,7.918,0,0,1,8.676,7.905.771.771,0,0,1,7.911,8.67Z" transform="translate(14.529 1.275)"/>
        <path id="Vector-4" data-name="Vector" class="cls-3" d="M5.182,0a5.182,5.182,0,1,0,5.182,5.182A5.182,5.182,0,0,0,5.182,0Zm2.53,7.64a.769.769,0,0,1-1.03-.347l-.173-.347H3.866l-.173.347a.768.768,0,0,1-.683.418A.771.771,0,0,1,2.326,6.6L4.508,2.244a.775.775,0,0,1,.683-.418.766.766,0,0,1,.683.428L8.058,6.61A.778.778,0,0,1,7.711,7.64Z" transform="translate(12.077 12.087)"/>
        <path id="Vector-5" data-name="Vector" class="cls-3" d="M0,1.112H1.112L.551,0Z" transform="translate(16.708 16.392)"/>
      </g>
    </g>
  </g>
</svg>
