<svg xmlns="http://www.w3.org/2000/svg" width="24" height="24" viewBox="0 0 24 24">
  <g id="vuesax_bold_car" data-name="vuesax/bold/car" transform="translate(-172 -188)">
    <g id="car">
      <path id="Vector" d="M19.5,5.92a.755.755,0,0,1-.75.75H.75a.75.75,0,0,1,0-1.5H1.77l.38-1.81C2.51,1.61,3.26,0,6.24,0h7.02c2.98,0,3.73,1.61,4.09,3.36l.38,1.81h1.02A.755.755,0,0,1,19.5,5.92Z" transform="translate(174.25 190.08)" fill="#db4b44"/>
      <path id="Vector-2" data-name="Vector" d="M20.932,3.41c-.15-1.65-.59-3.41-3.8-3.41H4.372C1.162,0,.732,1.76.572,3.41L.012,9.5a2.729,2.729,0,0,0,.7,2.09,2.806,2.806,0,0,0,2.08.91h1.88A1.919,1.919,0,0,0,6.8,10.96l.2-.6c.23-.69.29-.86,1.19-.86h5.12c.9,0,.93.1,1.19.86l.2.6a1.919,1.919,0,0,0,2.13,1.54h1.88a2.822,2.822,0,0,0,2.08-.91,2.729,2.729,0,0,0,.7-2.09ZM7.752,5.5h-3a.75.75,0,0,1,0-1.5h3a.75.75,0,0,1,0,1.5Zm9,0h-3a.75.75,0,0,1,0-1.5h3a.75.75,0,0,1,0,1.5Z" transform="translate(173.248 198.25)" fill="#db4b44"/>
      <path id="Vector-3" data-name="Vector" d="M0,0H24V24H0Z" transform="translate(196 212) rotate(180)" fill="none" opacity="0"/>
    </g>
  </g>
</svg>
